<svg xmlns="http://www.w3.org/2000/svg" viewBox="0 0 20 20"><title>ico-opt</title><g id="Capa_2" data-name="Capa 2"><g id="Capa_1-2" data-name="Capa 1"><path d="M18.7,10.65l0,.4-.39.06a2.45,2.45,0,0,0-1.93,1.42,2.2,2.2,0,0,0,.49,2.17l.25.32-.25.31a9,9,0,0,1-1.26,1.29l-.3.25L15,16.63a2.11,2.11,0,0,0-.44-.24,2.23,2.23,0,0,0-1.73.13,1.94,1.94,0,0,0-1.23,1.71l-.05.4-.39,0a8.72,8.72,0,0,1-1,.06q-.39,0-.78,0l-.4,0-.06-.39a2.43,2.43,0,0,0-1.42-1.91l1.17-1.2a5,5,0,0,0,1.4.21A5.37,5.37,0,1,0,4.63,10a4.93,4.93,0,0,0,.19,1.34L3.39,12.75a2.17,2.17,0,0,0-1.13-1.22,2,2,0,0,0-.49-.12l-.4-.05,0-.39a9,9,0,0,1,0-1.8l0-.39.39-.06A2.24,2.24,0,0,0,3.59,7.47,2.2,2.2,0,0,0,3.1,5.3L2.85,5l.25-.31A9,9,0,0,1,4.36,3.38l.3-.25L5,3.36a1.77,1.77,0,0,0,.44.25,2.23,2.23,0,0,0,1.73-.13A1.94,1.94,0,0,0,8.38,1.77l0-.4.39,0a9,9,0,0,1,1.8,0l.4,0,.06.39A2.43,2.43,0,0,0,12.5,3.65a2.45,2.45,0,0,0,2.36-.42L15.18,3l.31.24a8.48,8.48,0,0,1,1.29,1.25l.26.31-.24.32a1.91,1.91,0,0,0-.29,2.08,1.86,1.86,0,0,0,1,1.06,2.63,2.63,0,0,0,.67.17l.4,0,0,.4A8.93,8.93,0,0,1,18.7,10.65ZM9.38,13.51a3.42,3.42,0,0,0,3.9-4,.4.4,0,0,0-.68-.21L11,10.93a.69.69,0,0,1-1,0L9.08,10a.69.69,0,0,1,0-1l1.6-1.6a.39.39,0,0,0-.2-.67,3.42,3.42,0,0,0-4,3.88,1,1,0,0,1-.27.87L1.93,15.6c-.63.63-.2,1.26.43,1.89h0c.63.63,1.22,1,1.86.39l4.28-4.1A1,1,0,0,1,9.38,13.51Z" fill="#09843B"/><rect width="20" height="20" fill="none"/></g></g></svg>