<svg xmlns="http://www.w3.org/2000/svg" viewBox="0 0 20 20"><title>ico-pinup</title><g id="Capa_2" data-name="Capa 2"><g id="Capa_1-2" data-name="Capa 1"><path d="M13.79,12.36a1.89,1.89,0,0,0-1.11-2.06,2.36,2.36,0,0,1-1.34-2.2V6.56a1.44,1.44,0,0,1,1.43-1.44h0a.81.81,0,0,0,.81-.81h0a.81.81,0,0,0-.81-.81H7.23a.81.81,0,0,0-.81.81h0a.82.82,0,0,0,.81.82h0A1.42,1.42,0,0,1,8.66,6.56V8.1a2.36,2.36,0,0,1-1.35,2.2,1.9,1.9,0,0,0-1.1,2.06Z" fill="#09843B"/><line x1="10" y1="12.36" x2="10" y2="16.5" fill="none" stroke="#004972" stroke-miterlimit="10" stroke-width="0.82"/><rect width="20" height="20" fill="none"/></g></g></svg>
