<svg xmlns="http://www.w3.org/2000/svg" viewBox="0 0 20 20"><title>ico-catastro</title><g id="Capa_2" data-name="Capa 2"><g id="Capa_1-2" data-name="Capa 1"><path d="M12.21,15.42c.15-.27.29-.54.44-.8l.75,0ZM8.53,16.86l-.77-1.11L5,17.52Zm9.56-1L14.6,18.13l1.75.17c1.69-.4,2.56-.93,2.56-1.56C18.91,16.41,18.61,16.09,18.09,15.81Zm-3.54-1-4.3,2.71,2.77.39,4-2.54A16.66,16.66,0,0,0,14.55,14.82Zm-10.92.36c-1.57.4-2.54.95-2.54,1.56,0,.43.49.82,1.33,1.16l3.76-2.37Zm4.43,3.74c.62,0,1.27,0,1.94,0,.5,0,1,0,1.45,0a.15.15,0,0,1,.05-.07l.63-.39L9.53,18Zm-1.71-.15,1.94-1.11-4.51.67A19.49,19.49,0,0,0,6.35,18.77Zm1.05-4L7,14.65H7c-.61.06-1.19.12-1.73.21l1.65.22ZM9.13,16c-1-1.53-2.65-4.28-2.65-6.55a3.52,3.52,0,1,1,7,0c0,2.27-1.61,5-2.65,6.55A1,1,0,0,1,9.13,16ZM10,11A1.56,1.56,0,1,0,8.45,9.45,1.55,1.55,0,0,0,10,11Zm7.58-5.94L10.79,1.22A1.6,1.6,0,0,0,10.05,1a1.57,1.57,0,0,0-.72.18l-1.28.71H4.7a1.5,1.5,0,0,0-1.5,1.5v1.2l-.79.46a1.5,1.5,0,0,0,.75,2.8h0v4.58A1.5,1.5,0,0,0,4.7,14H6.83L6,12.46H4.7V6.38H3.16l1.54-.9V3.42H6.56v1l3.49-1.91,6.79,3.85H15.25v6.08H14L13.17,14h2.08a1.5,1.5,0,0,0,1.5-1.5V7.88h.09a1.5,1.5,0,0,0,.74-2.81Z" fill="#09843B"/><rect width="20" height="20" fill="none"/></g></g></svg>