<svg xmlns="http://www.w3.org/2000/svg" viewBox="0 0 20 20"><title>ico-repardocu</title><g id="Capa_2" data-name="Capa 2"><g id="Capa_1-2" data-name="Capa 1"><polygon points="11.79 15.5 11.88 14.5 7 14.5 6.91 15.5 11.79 15.5" fill="#09843B"/><path d="M10.58,12.43a1.37,1.37,0,0,1-1.16-.86h0a1.19,1.19,0,0,0-1-.72H4.72l0-.84a.38.38,0,0,0-.62-.32L1.19,12.08a.39.39,0,0,0,0,.57l2.54,2.4a.38.38,0,0,0,.64-.25l.11-1.37H12l.1-1Z" fill="#09843B"/><path d="M5,8.76l.13.09L5.55,4A1.37,1.37,0,0,1,6.94,2.75h4.21L11,4.5H7.83l-.08,1H11l-.07,1H7.66l-.07.91h7l0-.45a1.39,1.39,0,0,1,.63-1H12.43l.24-3.37a1.23,1.23,0,0,0-.32-.91,1.26,1.26,0,0,0-.91-.39H6.94A2.88,2.88,0,0,0,4.06,3.84l-.42,5A1.37,1.37,0,0,1,5,8.76Z" fill="#09843B"/><path d="M15,13.08a1.39,1.39,0,0,1-.48-.42L14.23,16a1.49,1.49,0,0,1-1.47,1.28H5.67a1.18,1.18,0,0,1-.87-.36,1,1,0,0,1-.26-.8V16l-.08,0a1.43,1.43,0,0,1-.5.09,1.37,1.37,0,0,1-.91-.35V16a2.52,2.52,0,0,0,.65,1.95,2.65,2.65,0,0,0,2,.84h7.09a3,3,0,0,0,3-2.65L16,13.18a1.28,1.28,0,0,1-.34.06A1.32,1.32,0,0,1,15,13.08Z" fill="#09843B"/><path d="M18.83,9.19,16.29,6.8a.38.38,0,0,0-.64.24l-.11,1.37h-8l-.09,1H9.51a1.1,1.1,0,0,1,1,.84h0a1,1,0,0,0,.89.61h3.93l-.12,1a.38.38,0,0,0,.62.33l2.94-2.4A.39.39,0,0,0,18.83,9.19Z" fill="#09843B"/><rect width="20" height="20" fill="none"/></g></g></svg>