<svg xmlns="http://www.w3.org/2000/svg" viewBox="0 0 20 20"><title>ico-tecnica</title><g id="Capa_2" data-name="Capa 2"><g id="Capa_1-2" data-name="Capa 1"><path d="M16.74,19.06c0-2.48-3.94-4-6.74-4s-6.71,1.52-6.74,4h0A1.21,1.21,0,0,1,2.19,17.3c1.25-2.45,5-3.74,7.81-3.74s6.56,1.29,7.81,3.74A1.21,1.21,0,0,1,16.74,19.06ZM5.16,6.94l.58-.05c1.53-.11,3.07-.16,4.61-.16,1.23,0,2.46,0,3.69.12.41,0,.81.05,1.21.09a.74.74,0,0,0,.44-.1.54.54,0,0,0,.22-.68.79.79,0,0,0-.67-.46.18.18,0,0,1-.19-.16,4,4,0,0,0-.71-2.11c-.48-.71-1.2-1.5-1.59-1.39s-.36.26-.42.5-.1.43-.16.64-.09.38-.14.57A.45.45,0,0,1,11.5,4c-.23,0-.39-.2-.35-.37.1-.4.19-.81.29-1.21s.21-.67.28-1a.17.17,0,0,0,0-.07,2.35,2.35,0,0,0-1.5-.39,2.05,2.05,0,0,0-1.47.37.11.11,0,0,0,0,.11c0,.21.08.43.13.64s.15.58.22.87.12.46.17.7-.11.31-.33.35a.47.47,0,0,1-.54-.19.64.64,0,0,1-.06-.18c-.07-.29-.15-.58-.22-.87s.05-.46-.36-.6-.67.2-1.06.59A4.2,4.2,0,0,0,5.38,5.54a.2.2,0,0,1-.19.16.79.79,0,0,0-.6.33.53.53,0,0,0,0,.62A.62.62,0,0,0,5.16,6.94Zm8.92.38h-.23V8.55a3.64,3.64,0,0,1-7.28,0s0,0,0,0V7.32H6.33A1.1,1.1,0,0,0,5.23,8.4a1,1,0,0,0,.08.38h0a1.07,1.07,0,0,0,.31.42,4.65,4.65,0,0,0,9.18,0,1.07,1.07,0,0,0,.31-.42h0a1,1,0,0,0,.08-.39A1.09,1.09,0,0,0,14.08,7.32Z" fill="#09843B"/><rect width="20" height="20" fill="none"/></g></g></svg>