<svg xmlns="http://www.w3.org/2000/svg" viewBox="0 0 20 20"><title>ico-recaudo</title><g id="Capa_2" data-name="Capa 2"><g id="Capa_1-2" data-name="Capa 1"><path d="M10.33,18.05a5.35,5.35,0,0,1-.48-.57h0l-.16-.2-.26.09v-.56l-.06-.1H8.94v.79a9.28,9.28,0,0,1-1.38.2v-.43H7.08v.46l-.62,0a11.52,11.52,0,0,1-2.56-.27v-.77H3.42v.64c-.72-.22-1.12-.48-1.17-.62v-1a10.27,10.27,0,0,0,4.21.78,12.75,12.75,0,0,0,2.68-.27,5.16,5.16,0,0,1-.28-1,11.7,11.7,0,0,1-2.4.24,7.71,7.71,0,0,1-4.21-.93V13.54h0v-.27A10.27,10.27,0,0,0,6.46,14a13.68,13.68,0,0,0,2.34-.2,5.14,5.14,0,0,1,.63-2.1h0v-.52c.14,0,.27-.08.4-.12a5.89,5.89,0,0,1,.5-.6A5.28,5.28,0,0,1,12,9.39h-.06s0-.06,0-.09c0-.84-.91-1.52-2.5-1.92a.37.37,0,0,0-.05-.11A10.32,10.32,0,0,0,13.54,8a10.27,10.27,0,0,0,4.21-.78V8.57a4.11,4.11,0,0,1-1.21.54V8.38h-.48v.86l-.12,0a5.42,5.42,0,0,1,1.29.66,5.15,5.15,0,0,0,.52-.2v.62l.19.16.06.07h0a5.34,5.34,0,0,1,1.25,2.13V3.27c0-1.73-3-2.52-5.71-2.52s-5.71.79-5.71,2.52v3.5c-.44,0-.9-.07-1.37-.07C3.71,6.7.75,7.49.75,9.22v7.51c0,1.73,3,2.52,5.71,2.52a10.48,10.48,0,0,0,4.34-.81A4.42,4.42,0,0,1,10.33,18.05ZM8.94,12.78A10.91,10.91,0,0,1,6.46,13a11.48,11.48,0,0,1-2.56-.27V11.32a11.94,11.94,0,0,0,1.39.19v.77h.48v-.74c.23,0,.46,0,.69,0a13.22,13.22,0,0,0,2.48-.23Zm8.81-6.69A7.73,7.73,0,0,1,13.54,7a7.73,7.73,0,0,1-4.21-.93V4.76a10.27,10.27,0,0,0,4.21.78h.65v.41h.49V5.49a12.07,12.07,0,0,0,1.38-.19v1h.48V5.19a6.11,6.11,0,0,0,1.21-.43ZM13.54,2.25c2.68,0,4.1.75,4.21,1v.34a7.73,7.73,0,0,1-4.21.93A7.59,7.59,0,0,1,9.33,3.6V3.3C9.44,3,10.86,2.25,13.54,2.25ZM2.25,10.78a6.36,6.36,0,0,0,1.17.43v1.43a3.7,3.7,0,0,1-1.17-.53Zm8.67-1.62c0,.5-1.7,1.4-4.46,1.4S2,9.66,2,9.16H2c0-.49,1.69-1.39,4.46-1.39s4.46.9,4.46,1.39Zm-1.62,0L6.46,8.41C8,8.41,9.3,8.75,9.3,9.16Zm4.32-5.28,2.9-.67C16.56,3.57,15.26,3.87,13.62,3.88Zm-.16-1.31-2.9.67C10.52,2.88,11.82,2.58,13.46,2.57ZM3.62,9.16l2.84.76C4.89,9.92,3.62,9.58,3.62,9.16Zm13.56,2.08a4.28,4.28,0,0,0-7.3,3,4.28,4.28,0,0,0,7.3,3,4.21,4.21,0,0,0,0-6Zm-2.57-.51v.54a3.5,3.5,0,0,1,.89.13.54.54,0,0,1,.38.66.55.55,0,0,1-.69.39,2.84,2.84,0,0,0-.85-.12c-.62,0-.82.27-.82.54s.33.51,1.16.81c1.14.4,1.59.92,1.59,1.79a1.81,1.81,0,0,1-1.66,1.75v.55a.41.41,0,0,1,0,.19c-.14,0-.27,0-.41,0a3.44,3.44,0,0,1-.45-.05.37.37,0,0,1,0-.18v-.48a4.14,4.14,0,0,1-1.17-.2A.56.56,0,1,1,12.84,16a3.37,3.37,0,0,0,1,.17c.56,0,.93-.22.93-.59s-.31-.59-1-.83c-1-.34-1.73-.82-1.73-1.74a1.76,1.76,0,0,1,1.62-1.7v-.6a.34.34,0,0,1,0-.18,3.44,3.44,0,0,1,.45-.05c.14,0,.27,0,.41,0A.41.41,0,0,1,14.61,10.73Z" fill="#09843B"/><rect width="20" height="20" fill="none"/></g></g></svg>