<?xml version="1.0" encoding="utf-8"?>
<!-- Generator: Adobe Illustrator 24.0.1, SVG Export Plug-In . SVG Version: 6.00 Build 0)  -->
<svg version="1.1" id="Capa_1" xmlns="http://www.w3.org/2000/svg" xmlns:xlink="http://www.w3.org/1999/xlink" x="0px" y="0px"
	 viewBox="0 0 20 20" style="enable-background:new 0 0 20 20;" xml:space="preserve">
<style type="text/css">
	.st0{fill:#E9E9E9;}
	.st1{fill:#005380;}
	.st2{fill:none;}
</style>
<path id="Rectángulo_1849" class="st0" d="M5,6h10c2.2,0,4,1.8,4,4l0,0c0,2.2-1.8,4-4,4H5c-2.2,0-4-1.8-4-4l0,0C1,7.8,2.8,6,5,6z"
	/>
<path class="st1" d="M5,9c0.6,0,1,0.4,1,1s-0.4,1-1,1s-1-0.4-1-1S4.4,9,5,9z M10,9c0.6,0,1,0.4,1,1s-0.4,1-1,1s-1-0.4-1-1
	S9.4,9,10,9z M15,9c0.6,0,1,0.4,1,1s-0.4,1-1,1s-1-0.4-1-1S14.4,9,15,9z"/>
<rect y="0" class="st2" width="20" height="20"/>
</svg>
