<svg xmlns="http://www.w3.org/2000/svg" viewBox="0 0 20 20"><title>ico-pqr</title><g id="Capa_2" data-name="Capa 2"><g id="Capa_1-2" data-name="Capa 1"><path d="M16.51,18.76c0-2.48-4-4-6.74-4s-6.72,1.52-6.75,4H3A1.22,1.22,0,0,1,2,17c1.26-2.45,5-3.74,7.82-3.74s6.55,1.29,7.81,3.74a1.22,1.22,0,0,1-1.07,1.76Zm-2.26-7.15a1,1,0,0,1-.25,0H11.08l-.21,0A3.59,3.59,0,0,1,6.13,8.25s0,0,0,0V7.84s0,0,0,0h0c1.69-1,3.39-2,5.12-2.91h0a.46.46,0,0,1,.62.18.88.88,0,0,1,.05.15c.17,1.13.3,2.28.44,3.42h1.42a1,1,0,0,0,.4-.21V5.49A2.39,2.39,0,0,0,11.85,3.1a1.5,1.5,0,0,1-1.46-1.17,6.85,6.85,0,0,0-2,.1,4.68,4.68,0,0,0-2.3,1.26A8.36,8.36,0,0,0,4,8.16c-.08.45-.09.9-.13,1.35A3.16,3.16,0,0,0,4,10.74a3.09,3.09,0,0,0,.58,1.07,3.41,3.41,0,0,0,.43.42,2.13,2.13,0,0,0,.44.28A.42.42,0,0,0,6,12.24,1,1,0,0,0,6,12V10.79a4.68,4.68,0,0,0,6.88.89c0,.05,0,.1,0,.15.05.37.07.74.39.94a.81.81,0,0,0,1,0,5.36,5.36,0,0,0,1.15-1.13,4.59,4.59,0,0,0,.26-.49A3.94,3.94,0,0,1,14.25,11.61ZM9.77,9.39a.74.74,0,1,1-.74.74A.74.74,0,0,1,9.77,9.39ZM16.71,7a1.5,1.5,0,0,1-.47,1.07V8.4a2.43,2.43,0,0,1-2.15,2.23H11a1.38,1.38,0,0,0,0-1h3s1.24-.23,1.24-1.23V5.49A3.39,3.39,0,0,0,11.85,2.1H11.2a1.06,1.06,0,0,1,1.12-.85,4.21,4.21,0,0,1,3.92,4.25V6A1.5,1.5,0,0,1,16.71,7Z" fill="#09843B"/><rect width="20" height="20" fill="none"/></g></g></svg>