<svg xmlns="http://www.w3.org/2000/svg" viewBox="0 0 20 20"><title>ico-factura</title><g id="Capa_2" data-name="Capa 2"><g id="Capa_1-2" data-name="Capa 1"><path d="M5.77,10.1h-1V9.25h1Zm2-1.89h-1V10.1h1Zm2-1h-1V10.1h1Zm.69,11.11a5.29,5.29,0,0,1-.79-1H4.77A1.76,1.76,0,0,1,3,15.49v-11A1.75,1.75,0,0,1,4.77,2.74h7a1.75,1.75,0,0,1,1.75,1.75V9.31a5.67,5.67,0,0,1,.71-.06,5.16,5.16,0,0,1,.79.07V4.49a3.25,3.25,0,0,0-3.25-3.25h-7A3.26,3.26,0,0,0,1.52,4.49v11a3.26,3.26,0,0,0,3.25,3.25H11A6.36,6.36,0,0,1,10.46,18.28Zm8-3.74a4.25,4.25,0,0,1-4.25,4.22,4.24,4.24,0,0,1-3-1.24,4.24,4.24,0,1,1,7.26-3Zm-3.85-3.69c-.13,0-.27,0-.4,0a3.26,3.26,0,0,0-.45,0,.34.34,0,0,0,0,.18v.6a1.74,1.74,0,0,0-1.61,1.68c0,.92.7,1.4,1.71,1.74.72.23,1,.46,1,.82s-.38.59-.93.59a3,3,0,0,1-1-.18.57.57,0,1,0-.34,1.08,4.39,4.39,0,0,0,1.16.19V18a.39.39,0,0,0,0,.18c.15,0,.29,0,.45,0a2.71,2.71,0,0,0,.4,0,.39.39,0,0,0,0-.18v-.55a1.79,1.79,0,0,0,1.65-1.74c0-.86-.45-1.38-1.58-1.78-.82-.29-1.15-.5-1.15-.81s.2-.54.82-.54a2.74,2.74,0,0,1,.84.13.56.56,0,0,0,.69-.38.55.55,0,0,0-.38-.67,4,4,0,0,0-.89-.13V11A.41.41,0,0,0,14.63,10.85Z" fill="#09843B"/><rect width="20" height="20" fill="none"/></g></g></svg>