<svg xmlns="http://www.w3.org/2000/svg" viewBox="0 0 20 20"><title>ico-cobro</title><g id="Capa_2" data-name="Capa 2"><g id="Capa_1-2" data-name="Capa 1"><path d="M4.79,9.87a.47.47,0,0,1-.47-.51A5.8,5.8,0,0,1,10,4.2a5.55,5.55,0,0,1,2.78.7c.38.2.65.4.93.09h0a.91.91,0,0,0-.21-1.41A7.14,7.14,0,0,0,10,2.7,7.31,7.31,0,0,0,2.83,9.5a.43.43,0,0,1-.42.41H1.53a.4.4,0,0,0-.29.67l2.22,2.46A.53.53,0,0,0,4.29,13L6,10.65a.47.47,0,0,0-.34-.8ZM16.54,7a.53.53,0,0,0-.83,0L14.05,9.35a.47.47,0,0,0,.34.8l.83,0a.46.46,0,0,1,.47.5A5.8,5.8,0,0,1,10,15.8a5.55,5.55,0,0,1-2.78-.7c-.38-.21-.66-.4-.94-.09h0a.91.91,0,0,0,.21,1.41A7.14,7.14,0,0,0,10,17.3a7.31,7.31,0,0,0,7.13-6.8.43.43,0,0,1,.42-.41h.88a.4.4,0,0,0,.29-.67ZM9.9,5.7a4.48,4.48,0,0,1,.64.06v.67a5,5,0,0,1,1.08.16.64.64,0,0,1,.45.8.66.66,0,0,1-.83.45,3.58,3.58,0,0,0-1-.14c-.75,0-1,.33-1,.65s.4.61,1.39,1c1.38.47,1.92,1.1,1.92,2.14a2.16,2.16,0,0,1-2,2.09v.69a4.48,4.48,0,0,1-.64.06,3.71,3.71,0,0,1-.48-.05s0,0,0,0v-.57A5.77,5.77,0,0,1,8,13.41a.68.68,0,0,1-.46-.82.67.67,0,0,1,.87-.47,4.13,4.13,0,0,0,1.24.2c.67,0,1.13-.26,1.13-.7s-.38-.71-1.24-1c-1.24-.41-2.08-1-2.08-2.09a2.11,2.11,0,0,1,2-2V5.79s0,0,0,0A3.71,3.71,0,0,1,9.9,5.7Z" fill="#09843B"/><rect width="20" height="20" fill="none"/></g></g></svg>