<svg xmlns="http://www.w3.org/2000/svg" viewBox="0 0 20 20"><title>ico-convenio</title><g id="Capa_2" data-name="Capa 2"><g id="Capa_1-2" data-name="Capa 1"><path d="M15.85,13.66a1.27,1.27,0,0,1,0,1.66,1.21,1.21,0,0,1-.78.38l-.21,0a4.51,4.51,0,0,1-.1.53,1,1,0,0,1-1.06.71c-.21,0-.28.07-.35.26a1.11,1.11,0,0,1-.77.76,1.17,1.17,0,0,1-.78-.1,2.08,2.08,0,0,1-.33-.17l-.13.19a1.13,1.13,0,0,1-1.65.32c-.1-.06-.21-.17-.3-.16s-.15.16-.24.23a.81.81,0,0,1-.35.14.85.85,0,0,1-.83-1,.76.76,0,0,1-1.12.22.91.91,0,0,1-.45-1.06.86.86,0,0,1-1.1,0,.93.93,0,0,1-.36-1.06,1,1,0,0,1-1.51-.6.81.81,0,0,1,.19-.7l.52-.62c-.21-.25-.4-.5-.61-.74a.18.18,0,0,1,0-.25c.09-.16.17-.32.26-.51l.82,1a.93.93,0,0,1,1.23.18.89.89,0,0,1,.09,1.13A.92.92,0,0,1,7,14.51a.9.9,0,0,1,.3,1,.84.84,0,0,1,1.07.09.85.85,0,0,1,.3,1,.76.76,0,0,1,1,.21.64.64,0,0,1,.15.75.74.74,0,0,0,.92.14.75.75,0,0,0,.15-.16.19.19,0,0,0-.05-.29L9.33,16.21a.28.28,0,0,1-.09-.43c.12-.15.26-.16.44,0l2.21,1.55a.52.52,0,0,0,.86-.3.45.45,0,0,0-.23-.52l-2.37-1.73c-.07-.05-.16-.12-.17-.18a.57.57,0,0,1,.08-.34c.06-.1.3-.08.42,0l1.31.93,1.55,1.1a.54.54,0,0,0,.65,0,.51.51,0,0,0,.15-.62.63.63,0,0,0-.22-.24l-2.46-1.76-.61-.44-.07,0a.34.34,0,0,1-.1-.48.35.35,0,0,1,.48,0l.85.6c.82.59,1.64,1.18,2.47,1.76a.66.66,0,0,0,.94-.22.59.59,0,0,0-.14-.8L11,10.23c-.15-.14-.3-.28-.44-.43A1.05,1.05,0,0,0,8.9,10a2.13,2.13,0,0,0-.13.45,1.89,1.89,0,0,1-1.31,1.38,2.44,2.44,0,0,1-.81,0,.59.59,0,0,1-.44-.34.5.5,0,0,1,0-.34,3.52,3.52,0,0,0,.35-1.56,1.55,1.55,0,0,1,.22-.72c.08-.13.15-.26.24-.42H5.59c.14-.28.26-.53.39-.77,0,0,.12,0,.18,0h2a.49.49,0,0,0,.21,0A4,4,0,0,1,9.5,7.19h0a.32.32,0,0,1,0-.14V6.69a3.3,3.3,0,0,1-.88-.15A.45.45,0,0,1,8.26,6a.44.44,0,0,1,.56-.3,2.41,2.41,0,0,0,.78.13c.42,0,.7-.16.7-.44s-.23-.45-.78-.63c-.77-.26-1.31-.62-1.31-1.33A1.33,1.33,0,0,1,9.44,2.17V1.71a.32.32,0,0,1,0-.14l.34,0c.11,0,.21,0,.32,0a.32.32,0,0,1,0,.14v.41a2.88,2.88,0,0,1,.67.1.41.41,0,0,1,.29.5A.41.41,0,0,1,10.6,3,2.31,2.31,0,0,0,10,2.92c-.47,0-.62.21-.62.41s.25.39.88.62c.86.3,1.2.7,1.2,1.35a1.35,1.35,0,0,1-1.25,1.33v.42a.14.14,0,0,1,0,.06,4.67,4.67,0,0,1,1.11.09c.45.1.89.25,1.34.35a8.45,8.45,0,0,0,1,.13c.1,0,.17,0,.21.13.75,1.58,1.51,3.15,2.25,4.72a.31.31,0,0,1,0,.25,4,4,0,0,1-.25.56A.27.27,0,0,0,15.85,13.66Zm2.76-2.22-1.45-3L16.05,6.06a.39.39,0,0,0-.42-.23.93.93,0,0,0-.19.06l-1,.5a.37.37,0,0,0-.2.57c.85,1.8,1.71,3.59,2.56,5.38a.41.41,0,0,0,.63.22l1-.47C18.71,11.93,18.76,11.76,18.61,11.44ZM5.33,7a.38.38,0,0,0-.2-.57l-1-.49a2,2,0,0,0-.26-.09.42.42,0,0,0-.37.28Q2.2,8.79.9,11.5a.38.38,0,0,0,.16.55l1.13.53a.38.38,0,0,0,.56-.21l.78-1.64Z" fill="#09843B"/><rect width="20" height="20" fill="none"/></g></g></svg>