<?xml version="1.0" encoding="utf-8"?>
<!-- Generator: Adobe Illustrator 24.0.0, SVG Export Plug-In . SVG Version: 6.00 Build 0)  -->
<svg version="1.1" id="Capa_1" xmlns="http://www.w3.org/2000/svg" xmlns:xlink="http://www.w3.org/1999/xlink" x="0px" y="0px"
	 viewBox="0 0 20 20" style="enable-background:new 0 0 20 20;" xml:space="preserve">
<style type="text/css">
	.st0{fill:#026533;}
	.st1{fill:none;}
</style>
<title>ico-convenio</title>
<path id="Trazado_2702" class="st0" d="M12.8,4.1c-1-0.7-2.1-1.1-3.3-1C8.6,3,7.7,3.3,6.9,3.8C6.7,3.8,6.5,4,6.4,4.2
	C5.6,4.9,5.6,6,6.3,6.8c0.4,0.4,0.8,0.6,1.3,0.6l0,0c0-0.5,0.1-1,0.4-1.4C8.4,5.5,9,5.2,9.6,5.3c0.7,0,1.2,0.2,1.4,0.6
	c0.3,0.3,0.4,0.8,0.4,1.2c0,0.4-0.2,0.8-0.4,1.1c-0.2,0.1-0.3,0.3-0.5,0.4c-0.7,0.5-1.4,1-2,1.6c-0.4,0.4-0.4,1-0.4,1.9
	c0,0.1,0,0.2,0.2,0.2h2c0.2,0,0.2-0.1,0.2-0.2c0-0.3,0.1-0.5,0.1-0.7c0.2-0.3,0.5-0.6,0.8-0.8l0.7-0.5c0.6-0.5,1.1-0.9,1.4-1.2
	c0.4-0.5,0.7-1.2,0.7-1.9C14.2,5.8,13.7,4.7,12.8,4.1z M9.4,13.9c-0.8-0.1-1.5,0.6-1.6,1.4c0,0,0,0.1,0,0.1c0,0.8,0.6,1.6,1.4,1.6
	c0.1,0,0.1,0,0.2,0c0.9,0,1.6-0.6,1.7-1.5C11,14.6,10.3,13.9,9.4,13.9z"/>
<rect class="st1" width="20" height="20"/>
</svg>
