<svg xmlns="http://www.w3.org/2000/svg" viewBox="0 0 20 20"><title>ico-sgto</title><g id="Capa_2" data-name="Capa 2"><g id="Capa_1-2" data-name="Capa 1"><path d="M19,7.4a1.79,1.79,0,0,0-3.57.32,1.72,1.72,0,0,0,.16.57L12,11.57a1.25,1.25,0,0,0-.61-.09,1.32,1.32,0,0,0-.62.22L7.17,9.52a1.77,1.77,0,0,0,0-.23,1.38,1.38,0,0,0-2.75.24,1.84,1.84,0,0,0,0,.25l-2,1.82a1.15,1.15,0,1,0,.83,1,.29.29,0,0,0,0-.09l2-1.82a1.46,1.46,0,0,0,.63.09,1.32,1.32,0,0,0,.62-.22l3.63,2.18a1.77,1.77,0,0,0,0,.23,1.38,1.38,0,1,0,2.74-.24.86.86,0,0,0-.05-.27l3.57-3.29A1.78,1.78,0,0,0,19,7.4Z" fill="#09843B"/><rect width="20" height="20" fill="none"/></g></g></svg>