<svg xmlns="http://www.w3.org/2000/svg" viewBox="0 0 14.01 14"><title>contraseña</title><g id="Capa_2" data-name="Capa 2"><g id="Capa_1-2" data-name="Capa 1"><rect x="0.01" width="14" height="14" fill="none"/><path id="Trazado_2568" data-name="Trazado 2568" d="M7.61,5.66A4.23,4.23,0,0,0,1.74,4.32,3.88,3.88,0,0,0,0,8a3.92,3.92,0,0,0,5.19,3.23c1.12-.4,2.39-2.53,2.39-2.53H9.17a.55.55,0,0,1,.55.54v1.66a.87.87,0,0,0,.87.87h1.32a.87.87,0,0,0,.88-.87V8.73h1V6.38a.72.72,0,0,0-.72-.72ZM3.92,8.87a1.3,1.3,0,1,1,1.31-1.3A1.33,1.33,0,0,1,3.92,8.88Z" fill="#7b7b7b"/></g></g></svg>