<svg xmlns="http://www.w3.org/2000/svg" viewBox="0 0 14 14"><title>error</title><g id="Capa_2" data-name="Capa 2"><g id="Capa_1-2" data-name="Capa 1"><rect width="14" height="14" fill="none"/><g id="Grupo_5778" data-name="Grupo 5778"><g id="Grupo_5630" data-name="Grupo 5630"><path id="Trazado_2571" data-name="Trazado 2571" d="M7,1.14A5.86,5.86,0,1,1,1.14,7,5.86,5.86,0,0,1,7,1.14Z" fill="#b70000"/><g id="_" data-name=" " style="isolation:isolate"><g style="isolation:isolate"><path d="M5.81,10.7a1,1,0,0,1,.35-.78A1.23,1.23,0,0,1,7,9.61a1.24,1.24,0,0,1,.87.31,1,1,0,0,1,.35.78,1,1,0,0,1-.35.79A1.24,1.24,0,0,1,7,11.8a1.23,1.23,0,0,1-.86-.31A1,1,0,0,1,5.81,10.7ZM7,9H7a.91.91,0,0,1-.92-.88l-.2-4.6a.92.92,0,0,1,.92-1h.4a.93.93,0,0,1,.92,1L8,8.16A.92.92,0,0,1,7,9Z" fill="#fff"/></g></g></g></g></g></g></svg>