<svg xmlns="http://www.w3.org/2000/svg" viewBox="0 0 20 20"><title>Recurso 29</title><g id="Capa_2" data-name="Capa 2"><g id="Capa_1-2" data-name="Capa 1"><rect width="30" height="30" fill="#0C6CB1"/><path id="ico-encontrar" d="M14,12.42h-.8l-.28-.27A6.48,6.48,0,0,0,12.07,3a6.58,6.58,0,0,0-9,.75,6.48,6.48,0,0,0,9.12,9.15l.28.27v.79l4.25,4.25a1.06,1.06,0,0,0,1.49,0h0a1,1,0,0,0,0-1.49L14,12.42Zm-6,0a4.49,4.49,0,0,1-4.5-4.5h0A4.5,4.5,0,1,1,8,12.42Z" fill="white" fill-rule="evenodd" opacity="0.9" style="isolation:isolate"/></g></g></svg>