<svg xmlns="http://www.w3.org/2000/svg" viewBox="0 0 18 18"><title>cargar</title><g id="Capa_2" data-name="Capa 2"><g id="Capa_1-2" data-name="Capa 1"><rect id="Rectángulo_4920" data-name="Rectángulo 4920" width="18" height="18" fill="none"/><path d="M8,5.74v7a1,1,0,0,0,2,0v-7l2.5,2.5,1.41-1.41L9,1.92,4.09,6.83,5.5,8.24Z" fill="#09843B"/><path d="M16.16,9.37a.5.5,0,0,0-.5.5v3.71a1.5,1.5,0,0,1-1.5,1.5H3.84a1.5,1.5,0,0,1-1.5-1.5V9.87a.5.5,0,0,0-.5-.5.5.5,0,0,0-.5.5v3.71a2.5,2.5,0,0,0,2.5,2.5H14.16a2.5,2.5,0,0,0,2.5-2.5V9.87A.5.5,0,0,0,16.16,9.37Z" fill="#09843B"/></g></g></svg>