<svg xmlns="http://www.w3.org/2000/svg" viewBox="0 0 18 18"><title>Check-Sel</title><g id="Capa_2" data-name="Capa 2"><g id="Capa_1-2" data-name="Capa 1"><rect id="Rectángulo_4923" data-name="Rectángulo 4923" x="3" y="3" width="12" height="12" rx="3" fill="#fff"/><path id="Rectangle_1066" data-name="Rectangle 1066" d="M0,0H18V18H0Z" fill="none"/><path id="Icon_ionic-md-checkbox-outline" data-name="Icon ionic-md-checkbox-outline" d="M6.27,7.73l-.94.94,3,3L15,5l-.93-.93L8.33,9.77Zm7.4,5.94H4.33V4.33H11V3H4.33A1.34,1.34,0,0,0,3,4.33v9.34A1.34,1.34,0,0,0,4.33,15h9.34A1.34,1.34,0,0,0,15,13.67V8.33H13.67Z" fill="#09843B" opacity="0.5" style="isolation:isolate"/><path id="Trazado_2895" data-name="Trazado 2895" d="M14.19,4.05l.88,1.12L8.35,11.8l-3-3.11,1-.93,2,2.13Z" fill="#09843B"/></g></g></svg>