<svg xmlns="http://www.w3.org/2000/svg" viewBox="0 0 18 18"><title>actualizar</title><g id="Capa_2" data-name="Capa 2"><g id="Capa_1-2" data-name="Capa 1"><path id="Trazado_2485" data-name="Trazado 2485" d="M8.34,6.33V9.25a.71.71,0,0,0,.35.62l2.48,1.47.52-.85-2-1.18a.72.72,0,0,1-.35-.62V6.33ZM15,7.66V4.43c0-.94-.54-.9-.91-.52l-.85.85A6,6,0,1,0,15,9H13.67A4.66,4.66,0,0,1,9,13.66,4.73,4.73,0,0,1,4.34,9a4.67,4.67,0,0,1,8-3.3l-1.2,1.19a.45.45,0,0,0,.33.77Z" fill="#09843B"/><rect id="Rectángulo_4920" data-name="Rectángulo 4920" width="18" height="18" fill="none"/></g></g></svg>