<svg xmlns="http://www.w3.org/2000/svg" viewBox="0 0 20 20"><title>Recurso 1</title><g id="Capa_2" data-name="Capa 2"><g id="Capa_1-2" data-name="Capa 1"><rect width="20" height="20" fill="none"/><g id="Grupo_6410" data-name="Grupo 6410"><g id="Grupo_5910" data-name="Grupo 5910"><path id="Trazado_2642" data-name="Trazado 2642" d="M3.59,14.29l-1,1.05H9.14l-.67-1.05Z" fill="#09843B"/><path id="Trazado_2643" data-name="Trazado 2643" d="M5.79,12l-1,1.15H8.09L7.32,12Z" fill="#09843B"/><path id="Trazado_2644" data-name="Trazado 2644" d="M17,11.61c-.1,0-.1-.1-.19-.1-.86-.48-1.63-1-2.49-1.44A13.3,13.3,0,0,1,12.69,9a2.5,2.5,0,0,0-2.2-.48,4,4,0,0,0-1,.39l-.1-.1L4.55,3.94c0-.09-.1-.09-.2-.19A.49.49,0,0,0,3.7,4s0,0,0,0a.49.49,0,0,0,.1.67L6.65,7.59l2,2a.13.13,0,0,1,0,.18h0a3.91,3.91,0,0,0-.39,1.15,2.81,2.81,0,0,0,.39,1.72l.57.86c.38.68.77,1.25,1.15,1.92h1.34l-1.15-2a6.3,6.3,0,0,1,.86-.77c.48-.67,1.15-1.24,1.73-1.91.09-.1.09-.1.19,0,.67.38,1.25.76,1.92,1.15l-3.55,3.54H16L17,14.29H14.41C15.27,13.43,16.14,12.57,17,11.61Z" fill="#09843B"/></g></g></g></g></svg>