<svg xmlns="http://www.w3.org/2000/svg" viewBox="0 0 15.07 15"><defs><style>.cls-1{fill:#fae01b;}.cls-2{fill:none;}</style></defs><g id="Capa_2" data-name="Capa 2"><g id="Capa_1-2" data-name="Capa 1"><path class="cls-1" d="M14.72,1.69H.36A.37.37,0,0,0,0,2.06v10.6A.37.37,0,0,0,.36,13H14.72a.37.37,0,0,0,.35-.37V2.06A.37.37,0,0,0,14.72,1.69Zm-.35,9L10.58,7.54,14.37,4.1Zm0-8.23v.7L8.5,8.45a1.44,1.44,0,0,1-1,.41,1.46,1.46,0,0,1-1-.41L.72,3.13v-.7ZM.72,4.1,4.5,7.54.72,10.66Zm0,8.19V11.6L5,8,6.12,9a2.15,2.15,0,0,0,1.42.59A2.19,2.19,0,0,0,9,9L10,8l4.33,3.57v.69Z"/><rect class="cls-2" width="15" height="15"/></g></g></svg>
