<?xml version="1.0" encoding="utf-8"?>
<!-- Generator: Adobe Illustrator 24.0.1, SVG Export Plug-In . SVG Version: 6.00 Build 0)  -->
<svg version="1.1" id="Capa_1" xmlns="http://www.w3.org/2000/svg" xmlns:xlink="http://www.w3.org/1999/xlink" x="0px" y="0px"
	 viewBox="0 0 20 20" style="enable-background:new 0 0 20 20;" xml:space="preserve">
<style type="text/css">
	.st0{fill:#09843B;}
	.st1{fill:none;}
</style>
<g>
	<g id="eFuLlZ.tif">
		<g>
			<path class="st0" d="M16.9,8c0,1.9,0,3.8,0,5.6c0,0,0,0,0,0.1c-0.1,0.4-0.4,0.6-0.9,0.6c-0.5,0-1,0-1.6,0c0,0-0.1,0-0.1,0
				c0,0.9,0,1.8,0,2.6c0,0.5-0.4,0.9-0.9,0.9c-2.3,0-4.7,0-7,0c-0.5,0-0.9-0.4-0.9-0.9c0-0.8,0-1.6,0-2.5c0,0,0-0.1,0-0.1
				c-0.6,0-1.2,0-1.8,0c-0.5,0-0.9-0.4-0.9-0.9c0-1.8,0-3.5,0-5.3c0-0.5,0.4-0.9,0.9-0.9c4.1,0,8.2,0,12.3,0c0.4,0,0.7,0.2,0.8,0.6
				C16.8,7.9,16.8,8,16.9,8z M6.4,16.9c2.3,0,4.6,0,7,0c0-1.7,0-3.5,0-5.2c-2.3,0-4.7,0-7,0C6.4,13.4,6.4,15.2,6.4,16.9z M15.1,8.2
				c-0.5,0-0.9,0.4-0.9,0.9c0,0.5,0.4,0.9,0.9,0.9c0.5,0,0.9-0.4,0.9-0.9C16,8.6,15.6,8.2,15.1,8.2z"/>
			<path class="st0" d="M13.5,3.8c0.1,0,0.1,0.1,0.2,0.1c0.3,0.2,0.5,0.4,0.5,0.8c0,0.5,0,1.1,0,1.6c0,0,0,0.1,0,0.1
				c-0.3,0-0.6,0-0.9,0c0-0.6,0-1.2,0-1.7c-2.3,0-4.7,0-7,0c0,0.6,0,1.2,0,1.7c-0.3,0-0.6,0-0.9,0c0,0,0-0.1,0-0.1c0-0.5,0-1,0-1.6
				c0-0.4,0.2-0.7,0.6-0.9c0,0,0,0,0,0C8.6,3.8,11.1,3.8,13.5,3.8z"/>
			<path class="st0" d="M12.5,12.6c0,0.3,0,0.6,0,0.9c-1.7,0-3.5,0-5.2,0c0-0.3,0-0.6,0-0.9C9,12.6,10.7,12.6,12.5,12.6z"/>
			<path class="st0" d="M11.6,14.3c0,0.3,0,0.6,0,0.9c-1.5,0-2.9,0-4.4,0c0-0.3,0-0.6,0-0.9C8.7,14.3,10.1,14.3,11.6,14.3z"/>
		</g>
	</g>
	<rect class="st1" width="20" height="20"/>
</g>
</svg>
