<?xml version="1.0" encoding="utf-8"?>
<!-- Generator: Adobe Illustrator 24.0.1, SVG Export Plug-In . SVG Version: 6.00 Build 0)  -->
<svg version="1.1" id="Capa_1" xmlns="http://www.w3.org/2000/svg" xmlns:xlink="http://www.w3.org/1999/xlink" x="0px" y="0px"
	 viewBox="0 0 20 20" style="enable-background:new 0 0 20 20;" xml:space="preserve">
<style type="text/css">
	.st0{fill:#09843B;}
</style>
<g id="Grupo_7319" transform="translate(2984 3369) rotate(180)">
	<path id="Trazado_2579" class="st0" d="M2978.1,3354h-8.2c-2.7,0-4.9,2.1-4.9,4.8c0,2.7,2.2,4.8,4.9,4.8h8.2c2.7,0,4.9-2.1,4.9-4.8
		C2983,3356.1,2980.8,3354,2978.1,3354z M2978.1,3361.9h-8.2c-1.7,0.1-3.2-1.3-3.3-3.1c-0.1-1.7,1.3-3.2,3.1-3.3c0.1,0,0.1,0,0.2,0
		h8.2c1.7-0.1,3.2,1.3,3.3,3.1c0.1,1.7-1.3,3.2-3.1,3.3C2978.2,3361.9,2978.2,3361.9,2978.1,3361.9z M2969.9,3356.4
		c-1.3,0-2.4,1-2.4,2.3c0,1.3,1,2.4,2.3,2.4c0,0,0.1,0,0.1,0c1.3,0,2.4-1,2.4-2.3c0-1.3-1-2.4-2.3-2.4
		C2970,3356.4,2970,3356.4,2969.9,3356.4z"/>
</g>
</svg>
