<svg xmlns="http://www.w3.org/2000/svg" viewBox="0 0 18 18"><title>descargar</title><g id="Capa_2" data-name="Capa 2"><g id="Capa_1-2" data-name="Capa 1"><rect id="Rectángulo_4920" data-name="Rectángulo 4920" width="18" height="18" fill="none"/><path d="M10,12.26v-7a1,1,0,0,0-2,0v7L5.5,9.76,4.09,11.17,9,16.08l4.91-4.91L12.5,9.76Z" fill="#09843B"/><path d="M14.16,1.92H3.84a2.5,2.5,0,0,0-2.5,2.5V8.13a.5.5,0,0,0,.5.5.5.5,0,0,0,.5-.5V4.42a1.5,1.5,0,0,1,1.5-1.5H14.16a1.5,1.5,0,0,1,1.5,1.5V8.13a.5.5,0,0,0,.5.5.5.5,0,0,0,.5-.5V4.42A2.5,2.5,0,0,0,14.16,1.92Z" fill="#09843B"/></g></g></svg>