<svg xmlns="http://www.w3.org/2000/svg" viewBox="0 0 20 20"><title>Recurso 2</title><g id="Capa_2" data-name="Capa 2"><g id="Capa_1-2" data-name="Capa 1"><rect width="20" height="20" fill="none"/><path d="M13.5,8.25a.87.87,0,0,1-.88.87H7.38a.87.87,0,0,1-.88-.87V3.4h7Zm-.88-3.5H10.88v3.5h1.74Z" fill="#09843B"/><path d="M13.78,3.94a.76.76,0,0,1,.55.24L16.06,6.1v9.15a.81.81,0,0,1-.81.81H4.75a.81.81,0,0,1-.81-.81V4.75a.81.81,0,0,1,.81-.81h9m0-.94h-9A1.76,1.76,0,0,0,3,4.75v10.5A1.76,1.76,0,0,0,4.75,17h10.5A1.76,1.76,0,0,0,17,15.25V6.06a.82.82,0,0,0-.22-.56L15,3.55A1.69,1.69,0,0,0,13.78,3Z" fill="#09843B"/></g></g></svg>