<svg xmlns="http://www.w3.org/2000/svg" viewBox="0 0 18 18"><title>borrar</title><g id="Capa_2" data-name="Capa 2"><g id="Capa_1-2" data-name="Capa 1"><g id="Grupo_5359" data-name="Grupo 5359"><g id="Grupo_5358" data-name="Grupo 5358"><g id="Trazado_2490" data-name="Trazado 2490"><path d="M11,12.83c0,.45-.5.4-.5.4V7.89H11Zm-1.66.4H8.85V7.89h.49Zm-1.65,0s-.5,0-.5-.4V7.89h.5Z" fill="#09843B"/></g><path id="Trazado_2491" data-name="Trazado 2491" d="M12.71,7v6.24c0,1-.56,1.51-1.65,1.51H6.84a1.38,1.38,0,0,1-1.53-1.2c0-.06,0-.11,0-.17,0-2.81,0-6.38,0-6.38" fill="none" stroke="#09843B" stroke-miterlimit="10" stroke-width="1.02"/><path d="M13.2,6.36a.71.71,0,0,0-.76-.67H11A1.36,1.36,0,0,0,9.64,4.47H8.54A1.37,1.37,0,0,0,7.2,5.69H5.51a.72.72,0,0,0-.72.72h8.42A.07.07,0,0,0,13.2,6.36ZM8.54,5h1.1a.86.86,0,0,1,.82.72H7.73A.85.85,0,0,1,8.54,5Z" fill="#09843B"/></g></g><rect id="Rectángulo_4920" data-name="Rectángulo 4920" width="18" height="18" fill="none"/></g></g></svg>