<svg xmlns="http://www.w3.org/2000/svg" viewBox="0 0 611.06 114.11"><defs><style>.cls-1{fill:#09843b;}</style></defs><g id="Capa_2" data-name="Capa 2"><g id="Capa_1-2" data-name="Capa 1"><path class="cls-1" d="M186.11,11l-.19.19c-1.53,0-2.39.41-2.58,1.22a20.15,20.15,0,0,0-.24,2.95c0,1.13,0,2.75,0,4.87v6q0,5.76-2.28,8.22c-2,2.18-4.86,3.26-8.57,3.26A15.66,15.66,0,0,1,164.27,36a6.68,6.68,0,0,1-3.14-4.08c-.32-1.13-.47-4.06-.47-8.81v-5a43.27,43.27,0,0,0-.25-6,.88.88,0,0,0-.66-.73c-.2,0-.95-.11-2.27-.19l-.19-.19V9.66l.19-.19q1.86.12,6,.12c2.8,0,4.78,0,6-.12l.19.19V11l-.19.19c-1.32.08-2.08.14-2.27.19a.85.85,0,0,0-.66.73,43.27,43.27,0,0,0-.25,6v4q0,7.34.66,9,1.31,3.26,6.5,3.26a7.72,7.72,0,0,0,5.29-1.68,4.77,4.77,0,0,0,1.25-1.6,9.53,9.53,0,0,0,.53-2.53,28.56,28.56,0,0,0,.18-3.22v-4c0-3.39,0-5.7,0-6.95a8.8,8.8,0,0,0-.23-2.26,1.15,1.15,0,0,0-.68-.61,11.79,11.79,0,0,0-2.39-.29l-.19-.19V9.66l.19-.19c1.13.08,2.29.12,3.47.12.9,0,2.61,0,5.15-.12l.19.19Zm48.5-1.31-.19-.17q-2,.12-4.5.12c-1.31,0-2.68,0-4.13-.12l-.2.17V11l.2.2c1.32.08,2.07.14,2.26.19a.87.87,0,0,1,.67.72,45.11,45.11,0,0,1,.25,6V29.45q-9.43-10.65-16.41-20c-1.15.08-2.61.12-4.35.12q-1.67,0-3.51-.12l-.19.17V11l.19.2c1.32.08,2.08.14,2.27.19a.88.88,0,0,1,.66.72,43.37,43.37,0,0,1,.25,6V28.36a43.35,43.35,0,0,1-.25,6,.85.85,0,0,1-.66.72,20.08,20.08,0,0,1-2.27.19l-.19.19V36.8l.19.18c1.5-.08,3-.12,4.48-.12,1.28,0,2.67,0,4.16.12l.19-.18V35.48l-.19-.19a19.8,19.8,0,0,1-2.27-.19.85.85,0,0,1-.67-.72,45.08,45.08,0,0,1-.25-6V15.68Q222.71,31.14,227.9,37c.75.1,1.86.27,3.32.52l.25-.17q-.25-2.64-.25-11.35V18.1a43.37,43.37,0,0,1,.25-6,.86.86,0,0,1,.66-.72c.19,0,1-.11,2.27-.19l.21-.2Zm30.84,25.81-.2-.2a20.66,20.66,0,0,1-2.27-.19.85.85,0,0,1-.66-.72,43.27,43.27,0,0,1-.25-6V18.09a43.17,43.17,0,0,1,.25-6,.88.88,0,0,1,.66-.73,22.11,22.11,0,0,1,2.27-.18l.2-.2V9.65l-.2-.18q-1.86.12-5.95.12t-6-.12l-.19.18V11l.19.2a21.49,21.49,0,0,1,2.27.18.85.85,0,0,1,.66.73,43.17,43.17,0,0,1,.25,6V28.35a43.27,43.27,0,0,1-.25,6,.83.83,0,0,1-.66.72,20.08,20.08,0,0,1-2.27.19l-.19.2v1.3l.17.2c1.3-.09,3.29-.12,6-.12s4.7,0,6,.12l.18-.2ZM313,9.69l-.22-.22c-1.63.08-3,.12-4.13.12q-2.37,0-4.56-.12l-.21.19V11l.2.19a15,15,0,0,1,2.59.21c.29.1.43.35.43.78a23.28,23.28,0,0,1-1.32,4.21c-.61,1.67-1,2.71-1.16,3.12l-4.31,10.81-4.91-12.13-.91-2.3a20.39,20.39,0,0,1-1.26-3.69.7.7,0,0,1,.33-.66,6.55,6.55,0,0,1,2.58-.35l.17-.19V9.69l-.19-.22q-3.18.12-7.06.12c-2.07,0-3.78,0-5.14-.12l-.21.22V11l.19.21a4.2,4.2,0,0,1,2.37.45,15.58,15.58,0,0,1,2,3.88l8.9,21.59h2.95c.78-2.22,2.28-6,4.52-11.47l2.6-6.32L308.55,16a34.13,34.13,0,0,1,1.67-3.65,2.19,2.19,0,0,1,.81-.88,6.51,6.51,0,0,1,1.73-.32L313,11Zm38.65,20.48h-1.18l-.19.22-.47,2.4a3.25,3.25,0,0,1-.36,1.16.67.67,0,0,1-.31.22q-1.28.45-7,.45h-2.64c-.06-1.59-.09-3.24-.09-4.93V23.77q1.21-.09,2.64-.09c.89,0,1.73,0,2.51.09,1.05.09,1.68.28,1.89.55a6.31,6.31,0,0,1,.31,2.65l.2.2h1.29l.2-.18c-.06-1.55-.08-3-.08-4.29s0-2.52.08-4l-.2-.19h-1.2l-.2.19a6.33,6.33,0,0,1-.4,2.63,4.15,4.15,0,0,1-2,.29H341.9c-.64,0-1.46,0-2.48-.09v-4c0-2.4.07-4.29.21-5.64,1.15-.09,2.29-.14,3.42-.14.94,0,2,.05,3.28.16a4.43,4.43,0,0,1,2.09.43,8.11,8.11,0,0,1,.31,3l.19.2h1.13l.19-.22.14-1.8c0-.48.1-1.06.17-1.75l.25-2.15-.21-.16q-10.23.12-13.87.12-4.1,0-6.05-.12l-.2.18V11l.2.2a21.8,21.8,0,0,1,2.27.18.85.85,0,0,1,.65.73,41.13,41.13,0,0,1,.26,6v9.83l-.06,4.35a10.43,10.43,0,0,1-.21,2.58A7.23,7.23,0,0,1,332,36l-.09.24v.54l.19.2c1-.09,2.63-.13,5-.13l14.1.13.2-.2a44,44,0,0,1,.42-6.4Zm45.13,5.35-.19-.19a2.21,2.21,0,0,1-1.24-.29c-.58-.38-1.75-1.92-3.51-4.64l-3-4.59c-.72-1.11-1.41-2.21-2.06-3.3q5.94-2.22,5.94-7.48a6.62,6.62,0,0,0-.35-2.26A4.62,4.62,0,0,0,389.51,10a14.86,14.86,0,0,0-4.93-.6c-1,0-2.43,0-4.38.11-1,0-2.27.06-3.84.06q-4.08,0-6-.12l-.19.18V11l.19.2a21.49,21.49,0,0,1,2.27.18.86.86,0,0,1,.66.73,43.17,43.17,0,0,1,.25,6V28.35a43.27,43.27,0,0,1-.25,6,.84.84,0,0,1-.66.72,20.08,20.08,0,0,1-2.27.19l-.19.2v1.32l.19.18c1.2-.09,3.2-.12,6-.12s4.67,0,6,.12l.18-.2v-1.3l-.2-.2a20.08,20.08,0,0,1-2.27-.19.84.84,0,0,1-.66-.72,45,45,0,0,1-.25-6V18.2q0-4.57.19-6.48a11.33,11.33,0,0,1,1.87-.15,8.3,8.3,0,0,1,3.39.54Q387,13.27,387,16.53a6.1,6.1,0,0,1-.83,3.24,5.06,5.06,0,0,1-1.82,1.9,6.11,6.11,0,0,1-3,.61l-.66,0-.22.66a5.28,5.28,0,0,1,1.15,1.18l2.16,3.28,4.8,8a5,5,0,0,1,.74,1.56c1.44-.09,2.48-.12,3.15-.12.43,0,1.54,0,3.32.1.39,0,.64,0,.73,0l.19-.2Zm38.45-7.64a7.43,7.43,0,0,0-1.07-4.11,5.82,5.82,0,0,0-2.95-2.25,11.6,11.6,0,0,0-2.11-.56l-2.27-.39a15.66,15.66,0,0,1-5-1.3A3.64,3.64,0,0,1,420.23,16a4.34,4.34,0,0,1,1.41-3.35,5.9,5.9,0,0,1,4.12-1.38,8.78,8.78,0,0,1,3.32.66,4.59,4.59,0,0,1,2.09,1.55,22.29,22.29,0,0,1,.19,3l.2.19h1.22l.22-.19a33.09,33.09,0,0,1,.56-5.55l-.14-.47A15.87,15.87,0,0,0,426.09,9c-3.36,0-6,.82-7.88,2.49a8,8,0,0,0-2.67,6.34A6.57,6.57,0,0,0,418,23.5q1.63,1.2,6.81,2a11.65,11.65,0,0,1,3.32.87,3.68,3.68,0,0,1,2.07,3.55,5.87,5.87,0,0,1-.75,2.85q-1.49,2.68-5.32,2.68a8.64,8.64,0,0,1-3.92-.94,5.51,5.51,0,0,1-2.5-2.13,22.52,22.52,0,0,1-.24-2.86v-.46l-.17-.19h-1.24l-.2.19a28,28,0,0,1-.54,6.35l.23.42a18.37,18.37,0,0,0,8,1.87,15,15,0,0,0,5.65-1,9.61,9.61,0,0,0,4.17-3.2,9.22,9.22,0,0,0,1.82-5.65m31.58,7.59-.2-.2a20.37,20.37,0,0,1-2.27-.19.84.84,0,0,1-.66-.72,43.27,43.27,0,0,1-.25-6V18.09a43.17,43.17,0,0,1,.25-6,.86.86,0,0,1,.66-.73,21.8,21.8,0,0,1,2.27-.18l.2-.2V9.65l-.2-.18c-1.24.08-3.23.12-5.95.12s-4.74,0-6-.12l-.19.18V11l.19.2a21.49,21.49,0,0,1,2.27.18.88.88,0,0,1,.66.73,43.17,43.17,0,0,1,.25,6V28.35a43.27,43.27,0,0,1-.25,6,.85.85,0,0,1-.66.72,20.08,20.08,0,0,1-2.27.19l-.19.2v1.3l.17.2c1.29-.09,3.28-.12,6-.12s4.69,0,6,.12l.18-.2ZM515.23,21.6a13.26,13.26,0,0,0-1.71-7.08,9.83,9.83,0,0,0-4.62-4,20.56,20.56,0,0,0-7.74-1.14c-1.21,0-2.42,0-3.62.06q-3.63.11-8.15.11c-1.24,0-2.54,0-3.91-.11l-.2.17V11l.2.2a21.46,21.46,0,0,1,2.26.18.85.85,0,0,1,.66.73,42.69,42.69,0,0,1,.26,6v9.83l-.06,4.35a9.92,9.92,0,0,1-.22,2.58A7,7,0,0,1,486.83,36l-.09.23v.54l.18.2a45.31,45.31,0,0,1,4.63-.12l6.85.12a19.52,19.52,0,0,0,7.46-1.19,14.33,14.33,0,0,0,5.08-3.28,14.86,14.86,0,0,0,4.29-10.9m-6,.93a16,16,0,0,1-1.46,7A8.69,8.69,0,0,1,504,33.7a13.69,13.69,0,0,1-6.09,1.13,22.22,22.22,0,0,1-3.49-.27,33.32,33.32,0,0,1-.16-3.76l0-8.48q0-8.34.2-10.52a22.59,22.59,0,0,1,3.45-.25,19.61,19.61,0,0,1,5.41.58,7.26,7.26,0,0,1,3.4,2.14q2.6,2.88,2.6,8.26m53.37,13-.18-.21a5.49,5.49,0,0,1-1.84-.23c-.33-.11-.68-.64-1.09-1.55L549.26,9.34H546.5c-.75,2-1.33,3.46-1.7,4.44l-5.06,12.67c-2,4.94-3.13,7.63-3.43,8.09s-1.11.72-2.45.79l-.22.19v1.27l.2.18c2.1-.09,3.41-.13,3.94-.13.68,0,2.22,0,4.62.13l.19-.2V35.52l-.19-.19q-1.49-.07-2-.15c-.61-.09-.91-.39-.91-.88a15.06,15.06,0,0,1,1-3.37l.86-2.37,4.5,0c1.86,0,3.68,0,5.47,0l1.57,4.09a7.16,7.16,0,0,1,.54,1.83c0,.46-.35.72-1.07.76l-1.68.09-.2.22v1.22l.18.2c2-.09,4.26-.13,6.63-.13.6,0,2.33,0,5.2.13l.18-.2Zm-12.3-9.19c-1,0-2.36.06-4,.06s-3.07,0-4.13-.06l4-10.16,4.15,10.16M611,21.6a13.26,13.26,0,0,0-1.71-7.08,9.9,9.9,0,0,0-4.61-4,20.73,20.73,0,0,0-7.75-1.14c-1.21,0-2.42,0-3.62.06q-3.63.11-8.15.11c-1.24,0-2.55,0-3.92-.11l-.2.17V11l.2.2a21.49,21.49,0,0,1,2.27.18.86.86,0,0,1,.66.73,43.27,43.27,0,0,1,.25,6v9.83l-.06,4.35a9.67,9.67,0,0,1-.21,2.58A7.25,7.25,0,0,1,582.6,36l-.1.23v.54l.19.2a45.13,45.13,0,0,1,4.63-.12l6.84.12a19.54,19.54,0,0,0,7.47-1.19,14.41,14.41,0,0,0,5.08-3.28A14.86,14.86,0,0,0,611,21.6m-6,.93a16,16,0,0,1-1.45,7,8.69,8.69,0,0,1-3.82,4.15,13.71,13.71,0,0,1-6.1,1.13,22.09,22.09,0,0,1-3.48-.27A31,31,0,0,1,590,30.8l0-8.48c0-5.56.06-9.07.2-10.52a22.49,22.49,0,0,1,3.45-.25,19.61,19.61,0,0,1,5.41.58,7.18,7.18,0,0,1,3.39,2.14c1.74,1.92,2.6,4.67,2.6,8.26m-421.9,54.3a9.61,9.61,0,0,0-1.39-5.35,7.63,7.63,0,0,0-3.83-2.93,14.84,14.84,0,0,0-2.76-.73c-1.62-.29-2.6-.46-2.95-.51-3.39-.53-5.53-1.1-6.44-1.69a4.72,4.72,0,0,1-2.1-4.26A5.66,5.66,0,0,1,165.52,57a7.62,7.62,0,0,1,5.35-1.79,11,11,0,0,1,4.32.86,6,6,0,0,1,2.73,2,32.39,32.39,0,0,1,.25,3.94l.25.26H180l.28-.26a43.81,43.81,0,0,1,.73-7.22l-.18-.6a20.56,20.56,0,0,0-9.54-1.9q-6.57,0-10.25,3.23a10.49,10.49,0,0,0-3.49,8.26q0,5,3.21,7.35,2.13,1.56,8.86,2.6A15.31,15.31,0,0,1,174,74.86a4.81,4.81,0,0,1,2.7,4.63,7.68,7.68,0,0,1-1,3.71q-1.92,3.48-6.92,3.48a11.45,11.45,0,0,1-5.1-1.21,7.29,7.29,0,0,1-3.26-2.78,30.57,30.57,0,0,1-.3-3.73v-.59l-.23-.25h-1.62l-.25.25a37.7,37.7,0,0,1-.7,8.26l.3.55A23.81,23.81,0,0,0,168,89.61a19.42,19.42,0,0,0,7.35-1.26,12.4,12.4,0,0,0,5.43-4.17,12,12,0,0,0,2.37-7.35m21.92,9.88-.25-.25a26,26,0,0,1-3-.26,1.08,1.08,0,0,1-.85-.93,56.38,56.38,0,0,1-.33-7.83V64.08a56.58,56.58,0,0,1,.33-7.83,1.11,1.11,0,0,1,.85-.93,27.37,27.37,0,0,1,3-.25l.25-.25V53.1l-.25-.23c-1.62.11-4.2.15-7.75.15s-6.16,0-7.78-.15l-.25.23v1.72l.25.25a27.37,27.37,0,0,1,3,.25,1.11,1.11,0,0,1,.85.93,56.58,56.58,0,0,1,.33,7.83V77.44a56.38,56.38,0,0,1-.33,7.83,1.08,1.08,0,0,1-.85.93,26,26,0,0,1-3,.26l-.25.25V88.4l.22.25q2.53-.15,7.78-.15t7.8.15l.23-.25Zm53.21,0-.26-.25a25.72,25.72,0,0,1-2.95-.26,1.08,1.08,0,0,1-.86-.93,56.38,56.38,0,0,1-.33-7.83V64.08a56.58,56.58,0,0,1,.33-7.83,1.11,1.11,0,0,1,.86-.93,27,27,0,0,1,2.95-.25l.26-.23V53.1l-.26-.23c-1.75.11-4.28.15-7.57.15-.66,0-1.94,0-3.84-.15-.67,1.77-1.37,3.42-2.08,5l-6,12.9-3.86,7.82-8-16.79L225,58.28c-1-2.33-1.82-4.12-2.37-5.41-1.53.11-3.33.15-5.38.15-2.67,0-4.89,0-6.64-.15l-.25.23v1.72l.25.25a26.74,26.74,0,0,1,2.95.25,1.11,1.11,0,0,1,.86.93,56.58,56.58,0,0,1,.33,7.83V77.44a56.38,56.38,0,0,1-.33,7.83,1.08,1.08,0,0,1-.86.93,25.43,25.43,0,0,1-2.95.26l-.25.25v1.71l.25.23c2-.1,3.9-.15,5.83-.15,1.67,0,3.48,0,5.41.15l.25-.23V86.71l-.25-.25a26,26,0,0,1-3-.26,1.09,1.09,0,0,1-.86-.93,57,57,0,0,1-.32-7.83V59.92l6.61,13.76,3.54,7.5c1.49,3.18,2.68,5.81,3.55,7.91h1.7L237.71,79q2.81-6.11,3.28-7.07l5.63-11.54V77.44a54.76,54.76,0,0,1-.33,7.83,1.07,1.07,0,0,1-.85.93,26,26,0,0,1-3,.26l-.25.25v1.71l.22.23q2.38-.15,7.78-.15c3.52,0,6.12,0,7.78.15l.26-.25Zm43.56-16.87q0-8.24-5-12.93t-13.71-4.62a23,23,0,0,0-10.37,2.12q-9.27,4.68-9.27,16.82,0,8.65,4.92,13.52T282,89.61q9.13,0,14.42-5.15,5.43-5.31,5.43-14.62m-7.78,1.31a25.68,25.68,0,0,1-1.31,8.46q-2.48,7.11-9.67,7.1A9.89,9.89,0,0,1,274.15,82c-1.91-3-2.87-7.12-2.87-12.33A22.54,22.54,0,0,1,272.54,62q2.44-6.74,9.95-6.74a9.78,9.78,0,0,1,8.62,4.3q2.94,4.32,2.94,11.63m-3.71-29.82-6.47.79-5.53,7v.35l1.17.88,11.39-8.23ZM346.87,53.1l-.25-.23c-1.73.11-3.69.15-5.86.15-1.7,0-3.49,0-5.38-.15l-.25.23v1.72l.25.25a27.37,27.37,0,0,1,3,.25,1.09,1.09,0,0,1,.85.93,55,55,0,0,1,.33,7.83V78.86q-12.27-13.86-21.36-26c-1.49.11-3.38.15-5.65.15-1.45,0-3,0-4.57-.15l-.26.23v1.72l.26.25a27,27,0,0,1,2.95.25,1.12,1.12,0,0,1,.86.93,57.17,57.17,0,0,1,.32,7.83V77.44a57,57,0,0,1-.32,7.83,1.09,1.09,0,0,1-.86.93,25.72,25.72,0,0,1-2.95.26l-.26.25v1.71l.26.23c1.95-.1,3.89-.15,5.83-.15,1.67,0,3.46,0,5.4.15l.25-.23V86.71l-.25-.25a25.43,25.43,0,0,1-2.95-.26,1.09,1.09,0,0,1-.86-.93,56.38,56.38,0,0,1-.33-7.83V60.93Q331.37,81,338.13,88.65c1,.13,2.42.36,4.33.68l.32-.22q-.33-3.44-.32-14.77V64.08a57.17,57.17,0,0,1,.32-7.83,1.11,1.11,0,0,1,.86-.93,27,27,0,0,1,2.95-.25l.28-.25Zm48.14,24q0-8-10.4-8.46a27.5,27.5,0,0,0,3.64-1.08A10.21,10.21,0,0,0,391,65.88a7.6,7.6,0,0,0,2.79-6A6.75,6.75,0,0,0,392.67,56q-2.21-3.21-9.24-3.2c-1,0-2.29,0-3.77.1q-2.81.12-6.28.12c-3.66,0-6.23,0-7.73-.15l-.25.22v1.72l.25.26a27,27,0,0,1,3,.25,1.11,1.11,0,0,1,.86.93,56.58,56.58,0,0,1,.33,7.83v12.8l-.08,5.66a13.31,13.31,0,0,1-.27,3.36,9.25,9.25,0,0,1-2,1.49l-.13.3v.71l.25.25c1.18-.1,2.85-.15,5-.15l6,.12c.66,0,1.49,0,2.5,0a15.76,15.76,0,0,0,7.8-1.71q6.14-3.5,6.13-9.83m-8.81-16a8,8,0,0,1-.83,3.62q-1.44,2.92-6,2.92c-1.16,0-1.94,0-2.32,0v-7c0-1.5,0-3.14.1-4.9a23,23,0,0,1,3.26-.2c3.87,0,5.8,1.85,5.8,5.57m1.09,16.78a8.76,8.76,0,0,1-1.8,5.85A6.79,6.79,0,0,1,380,86a19.45,19.45,0,0,1-2.9-.17c-.07-1.21-.1-2.45-.1-3.71V70.39c.85,0,1.62-.07,2.3-.07q7.95,0,8,7.58m52.45-8.06q0-8.24-5-12.93t-13.71-4.62a23,23,0,0,0-10.38,2.12q-9.27,4.68-9.26,16.82,0,8.65,4.93,13.52t13.55,4.86q9.14,0,14.42-5.15,5.43-5.31,5.42-14.62M432,71.15a25.68,25.68,0,0,1-1.31,8.46q-2.49,7.1-9.67,7.1A9.88,9.88,0,0,1,412.07,82c-1.91-3-2.88-7.13-2.88-12.33A22.54,22.54,0,0,1,410.45,62c1.64-4.49,4.95-6.74,10-6.74a9.79,9.79,0,0,1,8.62,4.3Q432,63.84,432,71.15m40.48,8.66h-1.54l-.25.28-.61,3.13a4.28,4.28,0,0,1-.48,1.51.76.76,0,0,1-.4.28q-1.68.58-9,.58H456.7c-.09-2.07-.13-4.2-.13-6.41V64.08a58.93,58.93,0,0,1,.32-7.83,1.13,1.13,0,0,1,.87-.93,27,27,0,0,1,2.95-.25l.25-.23V53.1l-.25-.23c-1.8.11-4.44.15-7.9.15s-5.89,0-7.63-.15l-.25.23v1.71l.25.26a26.74,26.74,0,0,1,2.95.25,1.12,1.12,0,0,1,.87.93,58.93,58.93,0,0,1,.32,7.83v12.8l-.07,5.66A13.6,13.6,0,0,1,449,85.9a8.63,8.63,0,0,1-2,1.49l-.13.3v.71l.25.25q1.9-.15,6.49-.15l18.36.15.25-.25a56.29,56.29,0,0,1,.56-8.33Zm21.43,6.9-.25-.26a26.77,26.77,0,0,1-3-.25,1.09,1.09,0,0,1-.86-.93,56.38,56.38,0,0,1-.33-7.83V64.08a56.48,56.48,0,0,1,.33-7.83,1.11,1.11,0,0,1,.86-.93,26.77,26.77,0,0,1,3-.25l.25-.26V53.1l-.25-.23c-1.62.11-4.2.15-7.76.15s-6.16,0-7.78-.15l-.25.23v1.71l.25.26a27.37,27.37,0,0,1,3,.25,1.12,1.12,0,0,1,.86.93,58.83,58.83,0,0,1,.32,7.83V77.44a58.72,58.72,0,0,1-.32,7.83,1.11,1.11,0,0,1-.86.93,27.37,27.37,0,0,1-3,.25l-.25.26V88.4l.23.25c1.68-.1,4.28-.15,7.77-.15s6.12,0,7.81.15l.23-.25Zm-.21-45.38-6.46.79-5.53,7v.36l1.16.88,11.39-8.23ZM536.5,53.15l-.28-.28c-2.12.1-3.92.15-5.38.15-2.06,0-4-.05-5.93-.15l-.28.25v1.72l.25.25a19.59,19.59,0,0,1,3.38.28c.37.12.56.45.56,1a30.14,30.14,0,0,1-1.72,5.48c-.79,2.17-1.3,3.53-1.51,4.07L520,80,513.59,64.2l-1.18-3a25.88,25.88,0,0,1-1.64-4.8.91.91,0,0,1,.43-.86,8.47,8.47,0,0,1,3.35-.46l.23-.25V53.15l-.26-.28c-2.76.1-5.81.15-9.18.15q-4.05,0-6.69-.15l-.28.28v1.66l.25.28c1.69,0,2.71.23,3.08.58s1.35,2.12,2.57,5l11.59,28.11h3.84q1.51-4.32,5.89-14.93L529,65.67l1.79-4.26a44.94,44.94,0,0,1,2.17-4.75A3,3,0,0,1,534,55.5a8.91,8.91,0,0,1,2.25-.41l.26-.25Zm36,33.63-.22-.28a7.42,7.42,0,0,1-2.4-.3c-.42-.15-.89-.82-1.41-2L555.06,52.69h-3.59l-2.22,5.79L542.66,75q-3.85,9.66-4.45,10.54c-.4.59-1.46.92-3.2,1l-.27.25v1.64l.25.23q4.1-.15,5.13-.15c.88,0,2.89,0,6,.15l.26-.25V86.78l-.26-.25c-1.27-.06-2.13-.14-2.57-.2-.8-.12-1.19-.5-1.19-1.14a18.93,18.93,0,0,1,1.27-4.39l1.1-3.08c2.6,0,4.55-.06,5.86-.06q3.64,0,7.12.06l2,5.33a9,9,0,0,1,.7,2.37c0,.6-.46.93-1.38,1l-2.2.13-.25.27v1.6l.22.25q4-.15,8.64-.15c.78,0,3,0,6.77.15l.22-.25Zm-16-12c-1.34,0-3.07.08-5.21.08s-4,0-5.38-.08l5.19-13.23,5.4,13.23m54.58,12-.25-.25a3,3,0,0,1-1.62-.38q-1.14-.74-4.57-6l-3.89-6q-1.41-2.17-2.67-4.29c5.14-1.92,7.73-5.17,7.73-9.75a8.62,8.62,0,0,0-.46-2.93,6,6,0,0,0-3.69-3.58,19.32,19.32,0,0,0-6.41-.78c-1.26,0-3.17.05-5.71.15-1.28,0-2.94.07-5,.07-3.53,0-6.13,0-7.77-.15l-.26.23v1.71l.26.26a27,27,0,0,1,3,.25,1.12,1.12,0,0,1,.86.93,56.48,56.48,0,0,1,.33,7.83V77.44a56.48,56.48,0,0,1-.33,7.83,1.11,1.11,0,0,1-.86.93,27,27,0,0,1-3,.25l-.26.26v1.71l.26.23q2.34-.15,7.77-.15,5.25,0,7.78.15l.22-.25V86.71l-.25-.26a27,27,0,0,1-2.95-.25,1.11,1.11,0,0,1-.86-.93,56.48,56.48,0,0,1-.33-7.83V64.23q0-6,.26-8.43a13.55,13.55,0,0,1,2.42-.2,10.88,10.88,0,0,1,4.42.7c2.12,1,3.18,2.91,3.18,5.76a7.87,7.87,0,0,1-1.09,4.22A6.76,6.76,0,0,1,595,68.76a8.1,8.1,0,0,1-3.89.78l-.86,0-.27.86a7,7,0,0,1,1.48,1.54l2.81,4.27,6.26,10.45a6.92,6.92,0,0,1,1,2c1.87-.1,3.23-.15,4.09-.15q.86,0,4.32.12l1,0,.25-.25ZM120.69,9.4c-1.08.24-1.57.6-1.68,1.69V38.82h1.56V13A2.41,2.41,0,0,1,123,10.72l.12.13v-.13h4.1V.12H94.28v10.6h3.5A2.52,2.52,0,0,1,100.31,13V38.82h1.33V11.09C101.52,10,101,9.64,100,9.4H95.74V1.21h29.89V9.4Zm0-1.21.48.13h3.26V2.53H97.06V8.32h2.41l.48-.13c1.93.24,2.89,1.21,3,2.9V38.82H117.8l.11-27.13-.11-.6a3,3,0,0,1,2.89-2.9M150.3,45.43c4.63-.56,5,3.79,2.41,4.79a23.58,23.58,0,0,1-6.77,1.29c-1.28.14-4.75,3.38-5.79,4.38s-4,3.79-2.72,5.44c.22.31,2.5.29,3.71.63a16.43,16.43,0,0,1,4,1.9,1.43,1.43,0,0,1,.28,2.31,8.59,8.59,0,0,1-5.55,2.43c-3,.07-7.93-2.21-11-2.54s-6.27,1-8.19,1.82a2.79,2.79,0,0,0-1.21.72l-1.09,4.94.61-1.32a19.33,19.33,0,0,1,4.63.78c2,.73,2.84,2.36,2.72,5,1.56,0,10.07,2.62,11.78,3.24,8,2.82,15.37,6.88,21.28,13.87-.84-.72-4.11-2.5-10-5.88-7.2-3.77-11.27-4.87-24.51-7.74A8.35,8.35,0,0,1,118,84.71a24.12,24.12,0,0,1-4.39-.79C106.7,93.93,95.85,98.74,81,98.74c-8.09,0-14.84-1.56-20.5-4.58a57.26,57.26,0,0,1-10.16,1.15C36.26,95.08,33.8,91,34.48,86.93c.43-2.59,4.21-5.13,6.17-5.92a27,27,0,0,1,6.61-1.79c-2.29-5.07-3.49-11.1-3.85-18.33h1.2c2.17,24.35,14.47,36.64,36.66,36.64,23-.35,35.92-12.41,38.46-36.64h.84l-.49,3.73c1.15-1.21,5.61-2.22,8.9-1.8,4.25.54,8.69,1.82,10,2.6a1.3,1.3,0,0,0,1.8-.21c.38-.41.23-.74-1.08-.88s-4.19-.8-4.92-2.32.82-4.63,5-9.32c0,0-1-1.44-2.05-1.33a4.27,4.27,0,0,0-2.05.73c-.19.12-.12.82-.24,1.57a15.87,15.87,0,0,1-2,4.62c-.54.55-2,1.68-2.47,1.4s-.43-1.59.36-2.78c.44-.66.94-1.62,1.28-2.2s.78-1.43.92-1.7c.37-.7.72-1.46,0-1.64-.47-.11-1.29.66-1.42,1.87A5.27,5.27,0,0,1,129,57.38c-.87.42-2.78-.19-2.77-1.32A6.45,6.45,0,0,1,124,57.38c-2.72.73-3.48-2.06-3.42-3.49s-.06-1.33-.36-1.09-3.5,3.18-4.34,4.1a5.16,5.16,0,0,1-3.14,1.33,2.14,2.14,0,0,1-1.8-1,2,2,0,0,1-.24-.61l-2.54,1.69a1.11,1.11,0,0,1-1.09.24,6.92,6.92,0,0,1-2-1.08s-2.94.72-4.11.84a2.42,2.42,0,0,1-2.65-1.69l-.11-.84a7.15,7.15,0,0,1-4.35,2.53c-3.49.19-2.91-5.34-1.68-7.84,1.54-3.13,4.21-4.53,5.54-4.45a3.88,3.88,0,0,1,2.41,1.56l2.41.24a35.06,35.06,0,0,1,5.75-6.1c1.2-.9,2.29-1.62,3.31-1.6s3,1.65.83,3.84c-.66.67-8.68,5.43-8.68,5.43-1.45,1.69-2.49,4.2-2.3,5.42s.74,1.21,1.82,1.33a4.15,4.15,0,0,0,3.37-2,22.8,22.8,0,0,1,4.1-5.25c.92-.78,1.72-1.19,2.37-.7s0,1.32-.6,2-3.06,3.24-3.29,3.67-.08.84.56,1,2-1.2,2.77-2.16,2.23-3.37,2.64-3.68a1,1,0,0,1,1.66.63c.15.87-1.31,2.33-2,3a6,6,0,0,0-1.61,2.37c-.1,1,.36,1.12.81,1A4.11,4.11,0,0,0,115.87,55a39.57,39.57,0,0,1,5.66-4c1.39-.87,3.09-1.73,4.14-2.28a4.24,4.24,0,0,1,2-.61,1.83,1.83,0,0,1,1.32.49s1.1-.23,1.49-.34,1,.64.92,1.3A3,3,0,0,1,130.7,51c-.38.48-1.84,2.32-2.54,3.23s-.31,2.13.36,2.24c.51.08,2.44-1.32,2.53-2.24a13.68,13.68,0,0,1,1.55-4.06c.52-.72,1.17-.8,1.29-.71a8.59,8.59,0,0,1,.75.75,2.33,2.33,0,0,0,1,.52c1.93-1.69,3.31-2.39,4.35-2.41A3,3,0,0,1,142.4,50l2.52-2.17a13.87,13.87,0,0,1,5.38-2.43m-.44,2.27a7,7,0,0,0-4.09,2.21s2.5-.29,3.86-.48c2.92-.41,2.89-1.45,2.29-1.68a4.24,4.24,0,0,0-2.06,0m-39.25-5.45a12.27,12.27,0,0,0-3.06,3.08s3.34-1.79,4-2.17c1-.61-.19-1.4-.92-.91M97.2,50.63a2.52,2.52,0,0,1-1.46-1.2,10.52,10.52,0,0,0-2.06,4.1c-.25,1-.24,2,.6,2.17s1.07-.38,1.69-.85,2.18-3.61,1.69-4.09a4,4,0,0,1-.46-.13m29.16-.48c-.57.21-2.67,1.46-3,2.65-.41,1.4,0,2.44.24,2.54s.64-.19,1.08-.49a11.36,11.36,0,0,0,2.42-2.05,9.46,9.46,0,0,0,.83-1.49c.18-.34,0-1.73-1.55-1.16m-4.94,26c-.79-.24-2.17-.35-3,3.31.9-.74,3.28-.78,4.08-1.25s.34-1.65-1.06-2.06M47,83.28a9.75,9.75,0,0,0-6.15,2.6c-1.51,1.4-1.88,2.67.24,3.66s4.34,1,6.9.94c4.78-.14,6.43-.79,6.43-.79a35.5,35.5,0,0,1-5.3-6.38,21.14,21.14,0,0,0-2.12,0M94.49,33.36c3.93-.51,3.06,3.58,2.21,5.59C96,40.67,85.6,61,85.6,61s1.91-.12,3.83-.11,9.72.68,10.28,1.56l.12.12.12-1.69h1.69c-.73,7.83-3,13.26-7,15.79A20.13,20.13,0,0,1,82,80.54a19.63,19.63,0,0,1-12.78-4.46C65.35,72.94,62.94,68,62.1,60.89h2l.61,4.45a39.24,39.24,0,0,1,10.61-2.88c1.44-4.11,5.42-8.08,11.82-12l4.94-8.79c.6-1.08,2.13-4.63,1.08-4.94s-2.29,1.49-3.13,2.41-6.28,7.45-6.63,8a1.3,1.3,0,0,1-1.45.48c-.68-.09-.45-1.3,0-2s5.37-6.8,5.91-7.47,1.37-4,.57-4.42-1.31.06-1.83.71S75.24,52.45,74,54.38s-2.65,3.13-4,3a1.75,1.75,0,0,1-1.44-2.88c2.28-3,8.92-11.3,9.76-12.66a35.42,35.42,0,0,0,3.2-7.08,23.7,23.7,0,0,0,.9-4.62A29.92,29.92,0,0,0,77.57,33c-.6.33.73-1.83,2.85-3.8s5.46-4.24,6.84-4.18S89,26.16,88.5,28.81a5.79,5.79,0,0,1,1.57-.11,5.71,5.71,0,0,1,3.37.84c.9.71,1.09,1.93-.12,4l1.17-.16M79.94,59.92c-.27.34-.78,1.31-.24,1.69s1.5-.28,2-1.08c.88-1.29,2.66-4.47,2.66-4.47-1-.12-4.2,3.53-4.46,3.86m10.2,11.31a8.72,8.72,0,0,0-2.73,1.71,11.89,11.89,0,0,0,3.14,1c2.07.18,2.35-1.1,1.92-1.87a1.85,1.85,0,0,0-2.33-.81m2.7-1.9c2.42,0,3.86,1.56,3.5,3.73a17.1,17.1,0,0,0,2.41-4.94,9.26,9.26,0,0,0-2.3-.11c-.92.13-4.33.84-4.33,1.32Zm-10-4a6.34,6.34,0,0,1-5.06,4c-2.69,0-3.38-1.57-3.26-3.63a17.8,17.8,0,0,0-3.93.8c-4.38,1.7-3.09,4.7.13,4.46,5.59-.4,10.36-.57,12.44-1,1.07-.23,4.81-3.54,7.88-4.48l-8.2-.13M94.76,75a2.89,2.89,0,0,1-1.08.85,9.26,9.26,0,0,1-3.83.81c-1.51-.11-4.44-.89-5.81-2.5l-9.65,4.1-.12.12a21,21,0,0,0,7.47,1.32c5.55,0,9.89-1.44,13-4.7m-20.25-.84c-.12-.36-.73-.63-1.42-.75a12.16,12.16,0,0,0-2.41-.08,16.28,16.28,0,0,1-2.25-.48c-1.35-.33,1.5,2.52,1.5,2.52ZM115.8,45c-.15-.3-.75-.36-1-.27a5.58,5.58,0,0,0-1,.65,1.49,1.49,0,0,0-.41,1.47.81.81,0,0,0,.81.53,3.48,3.48,0,0,0,1.21-.84c.53-.57.64-1.07.41-1.54m2.6,15.89H103c-1,8.67-3.62,14.47-8.21,17.24S86,82,82,81.75a21.39,21.39,0,0,1-13.63-4.7c-4.21-3.26-6.63-8.81-7.47-16.16H45.82c2,23.51,14,35.32,35.45,35.44,22.3-.24,34.72-12.06,37.13-35.44M70.17,10.61V0H37.37V10.61H41a2.32,2.32,0,0,1,2.41,2.29V38.7h1.32V11.45A1.75,1.75,0,0,0,43,9.64H38.82V1.45H68.73V9.64h-5a1.75,1.75,0,0,0-1.68,1.81V38.7h1.56V12.9a2.42,2.42,0,0,1,2.53-2.29ZM63.78,8.43h3.74V2.65H40.15V8.43H43a3.08,3.08,0,0,1,3,3V38.7H60.89V11.45a3.14,3.14,0,0,1,2.89-3M44.13,42.32a1.83,1.83,0,0,1,1.69.73,1.77,1.77,0,0,1,1.5.52c.39.45.43,1.29-.66,2.49-2,2.77-2.69,5-2,7.11.3,1-.48,1.57-1.33,1.57s-1.43-.76-1.51-1.92a10.53,10.53,0,0,1,1.39-5.2,5.65,5.65,0,0,0,.49-1.56,9,9,0,0,0-1.33,1.21c-1.49,1.7-2.37,3.4-2.17,4,.44,1.32.08,3.07-.94,3.19-1.4.16-2.2-1-1.84-3.19a12.91,12.91,0,0,1,2.66-6c-.25-.12-2.92,2.22-3.62,3.13-2.19,2.82-2.5,5.21-.84,5.19.6,0,.3.79-.9,1.52a1.84,1.84,0,0,1-1.47.33c-.56-.11-1.61-.88-1.61-1.24-.12.71-1.73,2.2-3.28,2.65-3.6,1-4.72-.69-2-7.84a9.79,9.79,0,0,1-2.53.48c-1.13,0-1.09-.12-1.09-.12l-3.61,7c-1.56,3-4.22,7.47-6.27,9.63-2.89,2.91-6.49,4.81-8.22,4.8s-3-.44-3.66-1.55c-1.54-2.45-1.29-6.86,2.24-9.86A80.17,80.17,0,0,1,11,53.46c1.44-1,5.55-3.37,9.67-5.6A16.39,16.39,0,0,0,22,44.61c.47-1.74-.08-3.42-1.69-3.38S10.07,44.59,7,44.69a3.72,3.72,0,0,1-3.88-2.85c-.33-1.75,1.68-4.94,4.22-6.64s8.49-4,12.3-5.16c2.79-.83,8.85-2.4,10.12-2.8s.92-1.91-1-1.68a53.36,53.36,0,0,0-6.15,1.56c1.09-1,6.54-3.39,9.09-2.72s3.49,4-1.3,5.59c-2.31.77-8.87,2.2-8.87,2.2a55.71,55.71,0,0,0-9.53,3c-4.32,2-5.25,5.23-1.92,5.19a13.39,13.39,0,0,0,4.22-.72,40.67,40.67,0,0,1,5.91-1.09c3.93-.23,5.18,2.89,3,8.69,1.33.48,3.73-.73,7.48-3.63a2.61,2.61,0,0,1,2.72-1.31,1.52,1.52,0,0,1,.41,2.73c-1.54,1.22-4.5,4.06-5.31,5.81s-.4,3.35.37,3.51c1.1.22,1.28-3.07,1.32-3.39s.22-.54.49-.48.59.73.59.73l3.27-4.58c1.57-2.21,4.36-4.48,5.9-4.47a1.42,1.42,0,0,1,1.33.61,11.24,11.24,0,0,1,2.29-.48M14.1,54A26.29,26.29,0,0,0,6.87,59.8c-1.78,2.32-1.93,4.33-.36,4.33,1.93,0,5.18-3,7.23-5.17a47.68,47.68,0,0,0,4.79-7,42.67,42.67,0,0,0-4.43,2M56.54,40.87c-.15.18-1,1.8-.83,1.93s.65-.08,1-.24l1.8-1c.13-.47-1.53-1.19-1.93-.73m-3.85,2.54c2.14,0,2.41,1.45,2.41,1.45a6.69,6.69,0,0,0,1.33,0,5.45,5.45,0,0,0,2.65-1.19c.49-.51,1.64.2,1.69.58a5.06,5.06,0,0,1,4.36-.83c1.67.67,1.93,1.92,1.42,2.64s-3.13,4.58-3.61,5.54-.2,2.33.72,2c.58-.17.14.61-1.47,1.38a2.72,2.72,0,0,1-.94.31c-.84.12-1.4-.51-1.26-2s2.07-4.92,3.55-6.73c.79-1,.66-1.66-.6-1.33a5.59,5.59,0,0,0-1.45,1.23c-.54.54-4.4,6.34-4.82,7s-1,1.87-1.94,1.93c-1.42.09-.32-1.88.34-2.76s3.16-4.42,3.34-5.28c.14-.65-.08-1.14-.54-1s-2.16.72-2.16.72a8.4,8.4,0,0,1-1,3.85c-1.23,2.35-3.79,5-6.31,4.31s-2.6-4.65-1.16-7.55c1-2,3.29-4.33,5.43-4.34M52.57,48a15.12,15.12,0,0,1-1.69-1.32A12.12,12.12,0,0,0,49,50.76c-.23,1-.2,2,.63,2.15.59.11,1.35-.47,2.07-1.4,1-1.35,1.64-3.16,1.16-3.65a.21.21,0,0,1-.24.12M36,39.41c0-.27-.45-.52-1-.83s-.9.38-1,.55-.47.93-.58,1.26,0,1,.36,1.08A1.93,1.93,0,0,0,35.2,41a4.21,4.21,0,0,0,.8-1.58m380.79,62H415.4v12.75h1.39ZM190.52,111a5.44,5.44,0,0,0,1.32-.14,2.67,2.67,0,0,0,.9-.4,2.21,2.21,0,0,0,.59-.76,2.44,2.44,0,0,0,.25-1.07,2,2,0,0,0-.4-1.23,2.21,2.21,0,0,0-1.14-.75,2,2,0,0,0,.86-.74,1.86,1.86,0,0,0,.28-1,2,2,0,0,0-.32-1.07,1.91,1.91,0,0,0-.89-.77,3.81,3.81,0,0,0-1.49-.25h-3.07V111Zm-2-7.2h1.63a5.09,5.09,0,0,1,1.25.11,1,1,0,0,1,.55.43,1.28,1.28,0,0,1,.2.71,1.08,1.08,0,0,1-.83,1.12,4.14,4.14,0,0,1-1,.09h-1.77Zm0,3.43h1.89a4,4,0,0,1,1.19.13,1.23,1.23,0,0,1,.65.48,1.32,1.32,0,0,1,.24.79,1.53,1.53,0,0,1-.16.69,1.15,1.15,0,0,1-.42.45,1.51,1.51,0,0,1-.62.22,4.25,4.25,0,0,1-.74,0h-2Zm6.82,3.77.9-2.48h3.41l.95,2.48h1.23l-3.34-8.17H197.3L194.16,111Zm2.11-5.75a10.64,10.64,0,0,0,.44-1.56c.12.45.32,1,.58,1.69l.85,2.26h-2.77Zm6.34,5.75v-3.63H205a4.05,4.05,0,0,1,.61,0,1.52,1.52,0,0,1,.49.22,2.34,2.34,0,0,1,.55.55c.2.25.46.63.78,1.12l1.08,1.7h1.35l-1.42-2.22a5.6,5.6,0,0,0-.89-1.09,3.2,3.2,0,0,0-.65-.41,2.87,2.87,0,0,0,1.73-.75,2.05,2.05,0,0,0,.57-1.47,2.37,2.37,0,0,0-.34-1.23,1.79,1.79,0,0,0-.91-.77,4.7,4.7,0,0,0-1.66-.23h-3.62V111Zm0-7.26h2.58a2,2,0,0,1,1.33.37,1.22,1.22,0,0,1,.42,1,1.38,1.38,0,0,1-.21.74,1.26,1.26,0,0,1-.64.48,3.26,3.26,0,0,1-1.16.16h-2.32ZM212,111v-3.63h1.26a3.79,3.79,0,0,1,.6,0,1.43,1.43,0,0,1,.49.22,2.17,2.17,0,0,1,.55.55c.2.25.46.63.78,1.12l1.08,1.7h1.36l-1.42-2.22a5.28,5.28,0,0,0-.9-1.09,2.94,2.94,0,0,0-.65-.41,2.93,2.93,0,0,0,1.74-.75,2.09,2.09,0,0,0,.56-1.47,2.28,2.28,0,0,0-.34-1.23,1.79,1.79,0,0,0-.91-.77,4.7,4.7,0,0,0-1.66-.23h-3.62V111Zm0-7.26h2.59a2,2,0,0,1,1.33.37,1.22,1.22,0,0,1,.42,1,1.39,1.39,0,0,1-.22.74,1.26,1.26,0,0,1-.64.48,3.2,3.2,0,0,1-1.15.16H212Zm7.39,7.26.9-2.48h3.41l.95,2.48h1.23l-3.34-8.17h-1.16L218.23,111Zm2.11-5.75a10.64,10.64,0,0,0,.44-1.56c.12.45.32,1,.57,1.69l.86,2.26h-2.77Zm6.27,5.75v-6.42l4.29,6.42h1.1v-8.17h-1v6.41l-4.29-6.41h-1.11V111Zm13.39-.88a3.9,3.9,0,0,0,.93-1.4,5.13,5.13,0,0,0,.3-1.81,5,5,0,0,0-.47-2.18,3.53,3.53,0,0,0-1.39-1.5,3.88,3.88,0,0,0-2-.54,4,4,0,0,0-2,.52,3.46,3.46,0,0,0-1.39,1.51,4.84,4.84,0,0,0-.49,2.2,4.75,4.75,0,0,0,.49,2.18,3.57,3.57,0,0,0,1.38,1.5,3.86,3.86,0,0,0,2,.54,4,4,0,0,0,2-.51,6.38,6.38,0,0,0,1.75,1l.32-.75a6.51,6.51,0,0,1-1.39-.76m-2.64-.59a3.61,3.61,0,0,1,1.07.46,2.66,2.66,0,0,1-1.09.22,2.62,2.62,0,0,1-2-.85,4.19,4.19,0,0,1,0-4.91,2.67,2.67,0,0,1,2-.83A2.72,2.72,0,0,1,240,104a2.57,2.57,0,0,1,1,1.15,4,4,0,0,1,.34,1.73,3.38,3.38,0,0,1-1,2.61,4.21,4.21,0,0,0-1.54-.78Zm10.68-2a3.08,3.08,0,0,1-.51,2.07,2.22,2.22,0,0,1-1.69.54,2.37,2.37,0,0,1-1.18-.27,1.48,1.48,0,0,1-.68-.78,4.59,4.59,0,0,1-.2-1.56v-4.72h-1.08v4.72a5.63,5.63,0,0,0,.31,2,2.27,2.27,0,0,0,1,1.14,4,4,0,0,0,1.88.4,3.6,3.6,0,0,0,1.91-.46,2.33,2.33,0,0,0,1-1.18,5.44,5.44,0,0,0,.28-2v-4.72h-1.08Zm3.06,3.45h1.08v-8.17h-1.08Zm8,0v-1h-4v-7.2h-1.08V111Zm6.34,0v-1h-4v-7.2h-1.08V111Zm1.54,0,.89-2.48h3.42l.95,2.48h1.23l-3.34-8.17h-1.17L267,111Zm2.1-5.75a9.53,9.53,0,0,0,.44-1.56c.13.45.32,1,.58,1.69l.85,2.26h-2.77Zm11,5.75v-3.46l3.26-4.71h-1.26l-1.58,2.41c-.35.53-.65,1-.89,1.44-.26-.46-.53-.92-.83-1.38l-1.61-2.47H277l3.14,4.71V111Zm13-2.87a2.69,2.69,0,0,1-.85,1.56,2.32,2.32,0,0,1-1.54.52,2.65,2.65,0,0,1-1.38-.38,2.34,2.34,0,0,1-1-1.16,5.07,5.07,0,0,1-.3-1.82,4.66,4.66,0,0,1,.26-1.57,2.35,2.35,0,0,1,.88-1.21,2.66,2.66,0,0,1,1.58-.45,2.17,2.17,0,0,1,1.35.41,2.52,2.52,0,0,1,.83,1.29l1.06-.25a3.26,3.26,0,0,0-1.16-1.75,3.34,3.34,0,0,0-2.06-.62,4,4,0,0,0-2,.49,3.39,3.39,0,0,0-1.39,1.44,4.87,4.87,0,0,0-.48,2.22,5.52,5.52,0,0,0,.43,2.19,3.33,3.33,0,0,0,1.26,1.56,3.84,3.84,0,0,0,2.14.54,3.41,3.41,0,0,0,2.16-.7,3.69,3.69,0,0,0,1.22-2l-1.08-.28m7.77-.59a3.1,3.1,0,0,1-.51,2.08,2.25,2.25,0,0,1-1.7.54,2.42,2.42,0,0,1-1.18-.27,1.53,1.53,0,0,1-.68-.78,4.67,4.67,0,0,1-.19-1.57v-4.7h-1.08v4.71a5.45,5.45,0,0,0,.31,2,2.22,2.22,0,0,0,1,1.14,4,4,0,0,0,1.88.4,3.56,3.56,0,0,0,1.9-.46,2.35,2.35,0,0,0,1-1.18,5.68,5.68,0,0,0,.28-2v-4.71H302Zm-2-5.21,1.22-1.56h-1.31l-.74,1.56Zm10.69,5.8a2.7,2.7,0,0,1-.86,1.56,2.31,2.31,0,0,1-1.53.52,2.71,2.71,0,0,1-1.39-.38,2.32,2.32,0,0,1-.94-1.16,5.07,5.07,0,0,1-.3-1.82,4.91,4.91,0,0,1,.25-1.57,2.37,2.37,0,0,1,.89-1.21,2.65,2.65,0,0,1,1.57-.45,2.2,2.2,0,0,1,1.36.41,2.51,2.51,0,0,1,.82,1.29l1.07-.25a3.22,3.22,0,0,0-1.17-1.75,3.3,3.3,0,0,0-2.06-.62,4.06,4.06,0,0,0-2,.49,3.37,3.37,0,0,0-1.38,1.44,4.87,4.87,0,0,0-.49,2.22A5.7,5.7,0,0,0,305,109a3.4,3.4,0,0,0,1.26,1.56,3.87,3.87,0,0,0,2.15.54,3.36,3.36,0,0,0,2.15-.7,3.7,3.7,0,0,0,1.23-2l-1.08-.28m7.76-.58a3.15,3.15,0,0,1-.5,2.07,2.27,2.27,0,0,1-1.7.54,2.37,2.37,0,0,1-1.18-.27,1.48,1.48,0,0,1-.68-.78,4.59,4.59,0,0,1-.2-1.56v-4.72h-1.08v4.72a5.4,5.4,0,0,0,.32,2,2.18,2.18,0,0,0,1,1.14,3.93,3.93,0,0,0,1.87.4,3.6,3.6,0,0,0,1.91-.46,2.33,2.33,0,0,0,1-1.18,5.44,5.44,0,0,0,.28-2v-4.72h-1.08Zm6,3.45v-7.2h2.7v-1h-6.47v1h2.69V111Zm3.21,0,.89-2.48H332l1,2.48h1.23l-3.34-8.17H329.7L326.57,111Zm2.1-5.75a9.53,9.53,0,0,0,.44-1.56c.13.45.32,1,.58,1.69l.85,2.26h-2.76Zm7.27,3.3h3.08v-1h-3.08Zm13.31-.42a2.7,2.7,0,0,1-.86,1.56,2.31,2.31,0,0,1-1.53.52,2.71,2.71,0,0,1-1.39-.38,2.32,2.32,0,0,1-.94-1.16,5.07,5.07,0,0,1-.3-1.82,4.91,4.91,0,0,1,.25-1.57,2.37,2.37,0,0,1,.89-1.21,2.65,2.65,0,0,1,1.57-.45,2.2,2.2,0,0,1,1.36.41,2.51,2.51,0,0,1,.82,1.29l1.07-.25a3.22,3.22,0,0,0-1.17-1.75,3.3,3.3,0,0,0-2.06-.62,4,4,0,0,0-2,.49,3.37,3.37,0,0,0-1.38,1.44,4.75,4.75,0,0,0-.49,2.22,5.7,5.7,0,0,0,.43,2.19A3.4,3.4,0,0,0,346,110.6a3.87,3.87,0,0,0,2.15.54,3.36,3.36,0,0,0,2.15-.7,3.7,3.7,0,0,0,1.23-2l-1.08-.28m2.08-1.11a4.49,4.49,0,0,0,.47,2,3.6,3.6,0,0,0,1.37,1.52,3.86,3.86,0,0,0,2.06.56,4,4,0,0,0,2-.51,3.39,3.39,0,0,0,1.42-1.48,4.74,4.74,0,0,0,.5-2.22,5,5,0,0,0-.47-2.19,3.5,3.5,0,0,0-1.39-1.51,3.88,3.88,0,0,0-2-.54,3.69,3.69,0,0,0-2.82,1.15,4.43,4.43,0,0,0-1.09,3.18m1.11,0a3.51,3.51,0,0,1,.83-2.63,2.83,2.83,0,0,1,3.43-.38,2.57,2.57,0,0,1,1,1.15,4.13,4.13,0,0,1,.34,1.74,3.48,3.48,0,0,1-.79,2.44,2.59,2.59,0,0,1-2,.85,2.62,2.62,0,0,1-2-.85,3.29,3.29,0,0,1-.79-2.32m13.14,4v-1h-4v-7.2h-1.08V111Zm1-4a4.62,4.62,0,0,0,.46,2,3.62,3.62,0,0,0,1.38,1.52,3.86,3.86,0,0,0,2.06.56,4,4,0,0,0,2-.51,3.39,3.39,0,0,0,1.42-1.48,5.21,5.21,0,0,0,0-4.41,3.48,3.48,0,0,0-1.38-1.51,3.89,3.89,0,0,0-2-.54,3.67,3.67,0,0,0-2.81,1.15,4.43,4.43,0,0,0-1.09,3.18m1.11,0a3.47,3.47,0,0,1,.83-2.63,2.83,2.83,0,0,1,3.43-.38,2.57,2.57,0,0,1,1,1.15,4.29,4.29,0,0,1,.34,1.74,3.53,3.53,0,0,1-.79,2.44,2.78,2.78,0,0,1-4,0,3.25,3.25,0,0,1-.79-2.32m9.09,4v-7l2.36,7h1l2.38-6.83V111h1v-8.17h-1.46l-1.95,5.68c-.2.58-.34,1-.44,1.31l-.38-1.21-1.94-5.78h-1.62V111Zm11.55,0a5.44,5.44,0,0,0,1.32-.14,2.67,2.67,0,0,0,.9-.4,2.21,2.21,0,0,0,.59-.76,2.31,2.31,0,0,0,.25-1.07,2,2,0,0,0-.4-1.23,2.21,2.21,0,0,0-1.14-.75,2,2,0,0,0,.86-.74,1.86,1.86,0,0,0,.28-1,2,2,0,0,0-.32-1.07,1.94,1.94,0,0,0-.88-.77,3.9,3.9,0,0,0-1.5-.25h-3.07V111Zm-2-7.2H389a5.09,5.09,0,0,1,1.25.11,1,1,0,0,1,.55.43,1.28,1.28,0,0,1,.2.71,1.08,1.08,0,0,1-.83,1.12,4.14,4.14,0,0,1-1,.09h-1.77Zm0,3.43h1.89a4.15,4.15,0,0,1,1.2.13,1.24,1.24,0,0,1,.64.48,1.32,1.32,0,0,1,.24.79,1.53,1.53,0,0,1-.16.69,1.15,1.15,0,0,1-.42.45,1.51,1.51,0,0,1-.62.22,4.25,4.25,0,0,1-.74,0h-2Zm6.76,3.77h1.08v-8.17h-1.08Zm3.23,0,.9-2.48h3.41l1,2.48h1.23l-3.34-8.17h-1.16L396.25,111Zm2.1-5.75a10.68,10.68,0,0,0,.45-1.56,17.72,17.72,0,0,0,.57,1.69l.85,2.26h-2.76ZM432.35,111l3.2-8.17h-1.1l-2.21,5.93c-.17.45-.31.89-.44,1.34-.11-.41-.26-.86-.43-1.34l-2.12-5.93h-1.17l3.16,8.17Zm4.35,0h1.08v-8.17H436.7Zm9.2-3.2v1.52a3.69,3.69,0,0,1-1,.57,3.63,3.63,0,0,1-1.37.27,3.38,3.38,0,0,1-1.53-.36,2.35,2.35,0,0,1-1.09-1.09,4,4,0,0,1-.38-1.82,4.39,4.39,0,0,1,.31-1.64,2.88,2.88,0,0,1,.52-.81,2.2,2.2,0,0,1,.87-.59,3.15,3.15,0,0,1,1.28-.23,2.78,2.78,0,0,1,1.13.22,1.9,1.9,0,0,1,.77.56,2.85,2.85,0,0,1,.46,1l1-.27a3.71,3.71,0,0,0-.62-1.34,2.69,2.69,0,0,0-1.12-.8,4.3,4.3,0,0,0-1.6-.28,4.42,4.42,0,0,0-2.16.5,3.28,3.28,0,0,0-1.43,1.53,5.08,5.08,0,0,0-.5,2.22,4.73,4.73,0,0,0,.5,2.18,3.44,3.44,0,0,0,1.48,1.49,4.72,4.72,0,0,0,2.19.52,5,5,0,0,0,1.74-.32,6.44,6.44,0,0,0,1.64-1v-3H443.5v1Zm2.83,3.2h1.08v-8.17h-1.08Zm8,0v-1h-4v-7.2h-1.08V111Zm1.54,0,.89-2.48h3.42l.95,2.48h1.23l-3.34-8.17h-1.17L457.16,111Zm2.1-5.75a9.53,9.53,0,0,0,.44-1.56c.13.45.32,1,.58,1.69l.85,2.26h-2.76Zm8.2,5.75a5.72,5.72,0,0,0,1.31-.14,3.19,3.19,0,0,0,1-.41,2.89,2.89,0,0,0,.74-.74,3.87,3.87,0,0,0,.56-1.19,6.16,6.16,0,0,0-.1-3.59,3.24,3.24,0,0,0-1-1.39,2.82,2.82,0,0,0-1.2-.59,7.24,7.24,0,0,0-1.45-.12h-2.81V111Zm-1.87-7.2h1.72a4.2,4.2,0,0,1,1.39.17,2.1,2.1,0,0,1,1,.91,3.81,3.81,0,0,1,.43,2,4.9,4.9,0,0,1-.22,1.58,2.53,2.53,0,0,1-.6,1,1.78,1.78,0,0,1-.73.42,4.2,4.2,0,0,1-1.26.15h-1.75Zm7.41,7.2.89-2.48h3.41l1,2.48h1.23l-3.34-8.17h-1.17L473,111Zm2.1-5.75a9.53,9.53,0,0,0,.44-1.56c.13.45.32,1,.58,1.69l.85,2.26h-2.77ZM485,111v-7l2.36,7h1l2.37-6.83V111h1v-8.17h-1.45l-2,5.68c-.19.58-.34,1-.43,1.31-.08-.26-.21-.67-.39-1.21l-1.93-5.78H484V111Zm8.68,0h1.08v-8.17h-1.08Zm4,0v-6.42L502,111h1.11v-8.17h-1v6.41l-4.28-6.41h-1.11V111Zm13.32,0v-1h-5v-2.77h4.51v-1H506v-2.5h4.82v-1H505V111Zm4.43,0a5.66,5.66,0,0,0,1.31-.14,3.25,3.25,0,0,0,1-.41,3.05,3.05,0,0,0,.74-.74,4.11,4.11,0,0,0,.56-1.19,5.9,5.9,0,0,0,.21-1.65,5.34,5.34,0,0,0-.32-1.94,3.22,3.22,0,0,0-1-1.39,2.82,2.82,0,0,0-1.2-.59,7.31,7.31,0,0,0-1.45-.12h-2.81V111Zm-1.86-7.2h1.71a4.23,4.23,0,0,1,1.4.17,2.1,2.1,0,0,1,1,.91,3.82,3.82,0,0,1,.42,2,5.21,5.21,0,0,1-.21,1.58,2.78,2.78,0,0,1-.6,1,1.85,1.85,0,0,1-.73.42,4.27,4.27,0,0,1-1.27.15h-1.74Zm12.51,3.75a3.08,3.08,0,0,1-.51,2.07,2.27,2.27,0,0,1-1.7.54,2.39,2.39,0,0,1-1.18-.27,1.47,1.47,0,0,1-.67-.78,4.35,4.35,0,0,1-.2-1.56v-4.72h-1.08v4.72a5.42,5.42,0,0,0,.31,2,2.22,2.22,0,0,0,1,1.14,4,4,0,0,0,1.88.4,3.56,3.56,0,0,0,1.9-.46,2.35,2.35,0,0,0,1-1.18,5.68,5.68,0,0,0,.28-2v-4.72h-1.08Zm8.7.58a2.7,2.7,0,0,1-.86,1.56,2.31,2.31,0,0,1-1.53.52,2.71,2.71,0,0,1-1.39-.38,2.32,2.32,0,0,1-.94-1.16,5.06,5.06,0,0,1-.31-1.82,4.92,4.92,0,0,1,.26-1.57,2.37,2.37,0,0,1,.89-1.21,2.63,2.63,0,0,1,1.57-.45,2.2,2.2,0,0,1,1.36.41,2.51,2.51,0,0,1,.82,1.29l1.07-.25a3.22,3.22,0,0,0-1.17-1.75,3.29,3.29,0,0,0-2.05-.62,4.07,4.07,0,0,0-2,.49,3.37,3.37,0,0,0-1.38,1.44,4.75,4.75,0,0,0-.49,2.22,5.7,5.7,0,0,0,.43,2.19,3.4,3.4,0,0,0,1.26,1.56,3.87,3.87,0,0,0,2.15.54,3.36,3.36,0,0,0,2.15-.7,3.7,3.7,0,0,0,1.23-2l-1.08-.28m2.66,2.87.89-2.48h3.41l1,2.48H544l-3.34-8.17h-1.17L536.34,111Zm2.1-5.75a9.53,9.53,0,0,0,.44-1.56c.13.45.32,1,.58,1.69l.85,2.26H538.7Zm11.07,2.88a2.69,2.69,0,0,1-.85,1.56,2.32,2.32,0,0,1-1.54.52,2.71,2.71,0,0,1-1.38-.38,2.27,2.27,0,0,1-.94-1.16,4.85,4.85,0,0,1-.31-1.82,4.92,4.92,0,0,1,.26-1.57,2.32,2.32,0,0,1,.89-1.21,2.63,2.63,0,0,1,1.57-.45,2.22,2.22,0,0,1,1.36.41,2.51,2.51,0,0,1,.82,1.29l1.06-.25a3.2,3.2,0,0,0-1.16-1.75,3.32,3.32,0,0,0-2.06-.62,4,4,0,0,0-2,.49,3.31,3.31,0,0,0-1.38,1.44,4.75,4.75,0,0,0-.49,2.22A5.52,5.52,0,0,0,545,109a3.4,3.4,0,0,0,1.26,1.56,3.84,3.84,0,0,0,2.14.54,3.39,3.39,0,0,0,2.16-.7,3.63,3.63,0,0,0,1.22-2l-1.08-.28m2.6,2.87h1.08v-8.17h-1.08Zm2.65-4a4.62,4.62,0,0,0,.47,2,3.56,3.56,0,0,0,1.38,1.52,3.86,3.86,0,0,0,2.06.56,4.06,4.06,0,0,0,2-.51,3.45,3.45,0,0,0,1.42-1.48,5.21,5.21,0,0,0,0-4.41,3.54,3.54,0,0,0-1.38-1.51,3.94,3.94,0,0,0-2-.54,3.71,3.71,0,0,0-2.82,1.15,4.48,4.48,0,0,0-1.09,3.18m1.12,0a3.51,3.51,0,0,1,.82-2.63,2.75,2.75,0,0,1,2-.79,2.69,2.69,0,0,1,1.45.41,2.59,2.59,0,0,1,1,1.15,4.29,4.29,0,0,1,.33,1.74,3.48,3.48,0,0,1-.78,2.43,2.63,2.63,0,0,1-2,.86,2.59,2.59,0,0,1-2-.85A3.25,3.25,0,0,1,557,107m2.93-4.71,1.22-1.56h-1.31l-.74,1.56Zm6.17,8.67v-6.42l4.29,6.42h1.11v-8.17h-1v6.41l-4.29-6.41h-1.1V111Z"/></g></g></svg>