<svg xmlns="http://www.w3.org/2000/svg" width="300" height="216.477" viewBox="0 0 300 216.477">
  <g id="Grupo_5269" data-name="Grupo 5269" transform="translate(-98.344 -84.333)">
    <g id="Grupo_5265" data-name="Grupo 5265" transform="translate(101.127 84.333)">
      <g id="Grupo_5260" data-name="Grupo 5260" transform="translate(62.577)">
        <g id="Grupo_5259" data-name="Grupo 5259">
          <g id="Grupo_5258" data-name="Grupo 5258">
            <g id="Grupo_5257" data-name="Grupo 5257">
              <path id="Trazado_123" data-name="Trazado 123" d="M354.051,94.252c-1.139.259-1.645.635-1.768,1.777v29.134h1.645v-27.1a2.524,2.524,0,0,1,2.531-2.422l.12.132v-.132h4.313V84.507H326.31V95.642h3.678a2.646,2.646,0,0,1,2.658,2.422v27.1h1.4V96.029c-.132-1.142-.637-1.518-1.776-1.777h-4.429v-8.6h31.4v8.6Z" transform="translate(-227.271 -84.382)" fill="#277834"/>
              <path id="Trazado_124" data-name="Trazado 124" d="M355.179,93.963l.5.133h3.428V88.013h-28.75V94.1h2.534l.5-.133c2.024.257,3.035,1.266,3.172,3.043V126.14h15.575l.121-28.5-.121-.633A3.171,3.171,0,0,1,355.179,93.963Z" transform="translate(-228.4 -85.359)" fill="#277834"/>
              <path id="Trazado_125" data-name="Trazado 125" d="M360.828,148.372a14.489,14.489,0,0,0-5.655,2.546l-2.65,2.281A3.112,3.112,0,0,0,350,151.43c-1.092.022-2.546.759-4.572,2.528a2.43,2.43,0,0,1-1.048-.537,10.977,10.977,0,0,0-.787-.793c-.127-.092-.81-.012-1.359.746a14.456,14.456,0,0,0-1.625,4.259c-.09.974-2.127,2.445-2.655,2.361-.709-.115-1.142-1.387-.381-2.364.736-.941,2.264-2.875,2.661-3.381a3.039,3.039,0,0,0,.762-1.55c.11-.694-.539-1.5-.964-1.379s-1.569.362-1.569.362a1.974,1.974,0,0,0-1.389-.514,4.487,4.487,0,0,0-2.122.637c-1.1.577-2.885,1.481-4.339,2.4a42.408,42.408,0,0,0-5.952,4.183,4.442,4.442,0,0,1-1.979,1.195c-.477.066-.958-.087-.86-1.1a6.306,6.306,0,0,1,1.69-2.494c.745-.759,2.273-2.28,2.11-3.2a1.049,1.049,0,0,0-1.741-.658c-.434.326-1.946,2.853-2.768,3.861s-2.107,2.517-2.911,2.272c-.676-.2-.832-.629-.593-1.083s2.864-3.187,3.459-3.855,1.278-1.565.626-2.062c-.678-.524-1.522-.079-2.485.743a23.854,23.854,0,0,0-4.3,5.506,4.381,4.381,0,0,1-3.548,2.15c-1.135-.127-1.7-.114-1.9-1.4s.884-3.918,2.414-5.694c0,0,8.425-5,9.113-5.706,2.259-2.3.227-4.014-.87-4.036-1.067-.022-2.224.729-3.482,1.688a36.131,36.131,0,0,0-6.032,6.4l-2.53-.252a4.115,4.115,0,0,0-2.537-1.643c-1.393-.082-4.2,1.388-5.823,4.686-1.292,2.614-1.894,8.421,1.766,8.225a7.518,7.518,0,0,0,4.574-2.655l.115.884a2.533,2.533,0,0,0,2.787,1.77c1.231-.128,4.31-.878,4.31-.878a7.342,7.342,0,0,0,2.148,1.134,1.164,1.164,0,0,0,1.144-.255c.384-.254,2.665-1.77,2.665-1.77a2.491,2.491,0,0,0,.252.639,2.243,2.243,0,0,0,1.895,1.007,5.394,5.394,0,0,0,3.3-1.394c.882-.975,4.247-4.046,4.559-4.305s.442-.352.382,1.143.731,4.431,3.594,3.664a6.774,6.774,0,0,0,2.355-1.384c0,1.181,2.008,1.822,2.913,1.384a5.522,5.522,0,0,0,3.324-4.357c.135-1.279,1-2.085,1.488-1.969.793.184.42.988.035,1.726-.149.272-.609,1.163-.966,1.779s-.89,1.62-1.349,2.318c-.826,1.25-.84,2.623-.377,2.913s2.025-.892,2.6-1.468A16.732,16.732,0,0,0,345.3,157c.123-.782.055-1.52.252-1.649a4.5,4.5,0,0,1,2.157-.762c1.093-.112,2.148,1.4,2.148,1.4-4.434,4.928-6.045,8.277-5.292,9.8.768,1.6,3.724,2.269,5.169,2.435,1.372.148,1.531.493,1.134.919a1.356,1.356,0,0,1-1.889.223c-1.427-.827-6.084-2.161-10.547-2.732-3.461-.443-8.145.622-9.345,1.894l.51-3.925h-.883c-2.672,25.456-16.219,38.129-40.408,38.5-23.307,0-36.226-12.919-38.5-38.5h-1.268c.38,7.6,1.646,13.932,4.049,19.253a29.2,29.2,0,0,0-6.947,1.887c-2.059.828-6.022,3.5-6.477,6.218-.721,4.323,1.869,8.557,16.685,8.8a58.689,58.689,0,0,0,10.67-1.2c5.957,3.178,13.044,4.818,21.537,4.818,15.577,0,26.974-5.06,34.2-15.578a25.693,25.693,0,0,0,4.61.834,8.8,8.8,0,0,0,7.291-3.369c13.9,3.008,21.2,6.053,28.755,10.011,6.2,3.547,9.759,5.564,10.646,6.327a52.165,52.165,0,0,0-22.3-15.578c-1.806-.638-13.931-4.431-15.573-4.431.121-2.785-.777-4.494-2.859-5.257a20.333,20.333,0,0,0-4.866-.823l-.635,1.388,1.137-5.187a3,3,0,0,1,1.271-.768c2.024-.825,5.416-2.235,8.611-1.894s8.4,2.74,11.521,2.663a8.943,8.943,0,0,0,5.824-2.558,1.507,1.507,0,0,0-.283-2.428,17.308,17.308,0,0,0-4.195-1.986c-1.268-.361-3.661-.347-3.9-.669-1.308-1.731,1.765-4.664,2.861-5.709s4.742-4.465,6.081-4.6a25.392,25.392,0,0,0,7.116-1.352C366.094,152.344,365.687,147.775,360.828,148.372Zm-.466,2.378a4.473,4.473,0,0,1,2.162.045c.634.251.661,1.342-2.407,1.772-1.421.193-4.056.5-4.056.5A7.293,7.293,0,0,1,360.362,150.751Zm-41.228-5.727c.757-.507,2.057.319.962.963-.668.4-4.183,2.271-4.183,2.271A13.108,13.108,0,0,1,319.134,145.023Zm-14.088,8.805a4.61,4.61,0,0,0,.481.13c.517.509-1.107,3.819-1.769,4.3s-.89,1.02-1.779.891-.9-1.2-.631-2.284a11.069,11.069,0,0,1,2.158-4.3A2.6,2.6,0,0,0,305.046,153.828Zm30.632-.5c1.644-.6,1.814.855,1.62,1.209a9.027,9.027,0,0,1-.862,1.577,12.07,12.07,0,0,1-2.538,2.151c-.47.306-.862.606-1.142.51s-.681-1.2-.244-2.661C332.877,154.861,335.078,153.54,335.678,153.324Zm-5.192,27.3c1.469.443,1.964,1.672,1.123,2.167s-3.354.534-4.292,1.318C328.2,180.248,329.657,180.375,330.486,180.62Zm-78.231,7.507c.609-.057,2.234.032,2.234.032,2.533,3.539,4.435,5.823,5.571,6.7,0,0-1.739.676-6.767.821-2.688.084-4.938.076-7.24-.992-2.233-1.033-1.838-2.37-.252-3.841A10.183,10.183,0,0,1,252.254,188.127Z" transform="translate(-202.94 -100.643)" fill="#277834"/>
              <path id="Trazado_126" data-name="Trazado 126" d="M313.459,129.532c-.534.066-1.225.163-1.225.163,1.262-2.151,1.064-3.43.121-4.181a6.012,6.012,0,0,0-3.547-.881,6.125,6.125,0,0,0-1.646.119c.507-2.786.142-3.943-1.306-4s-5,2.362-7.182,4.388c-2.232,2.07-3.621,4.344-2.988,3.993a31.581,31.581,0,0,1,5.146-2.983,24.771,24.771,0,0,1-.948,4.851,37.821,37.821,0,0,1-3.358,7.434c-.883,1.439-7.858,10.193-10.256,13.3a1.84,1.84,0,0,0,1.51,3.028c1.4.138,2.907-1.132,4.18-3.158s12.712-20.321,13.251-21,1.072-1.143,1.918-.741-.038,3.933-.6,4.636-5.741,7.08-6.214,7.856-.7,2.058,0,2.153,1.154.013,1.523-.506,6.084-7.384,6.965-8.354,2.18-2.864,3.29-2.535-.5,4.059-1.135,5.194-5.193,9.244-5.193,9.244c-6.71,4.051-10.889,8.225-12.413,12.541a41.266,41.266,0,0,0-11.143,3.03l-.634-4.68h-2.15c.878,7.474,3.414,12.658,7.469,15.958a20.67,20.67,0,0,0,13.421,4.688,21.172,21.172,0,0,0,13.307-4.055c4.178-2.659,6.578-8.355,7.344-16.591h-1.776l-.126,1.776-.127-.126c-.592-.927-8.74-1.616-10.8-1.637-2.013-.013-4.012.116-4.012.116S315,137.2,315.772,135.395C316.676,133.282,317.581,129,313.459,129.532Zm-15.285,27.9c.272-.354,3.669-4.175,4.686-4.052,0,0-1.875,3.337-2.792,4.688-.572.844-1.589,1.535-2.148,1.139S297.891,157.789,298.174,157.43Zm10.709,11.88a1.966,1.966,0,0,1,2.455.855c.442.806.156,2.139-2.021,1.96a12.385,12.385,0,0,1-3.294-1.023A9.431,9.431,0,0,1,308.883,169.31Zm2.08-1.993c0-.508,3.585-1.257,4.557-1.4a9.518,9.518,0,0,1,2.411.124,17.716,17.716,0,0,1-2.538,5.192c.379-2.274-1.126-3.927-3.671-3.917Zm-9.752-4.192,8.611.136c-3.225.992-7.15,4.467-8.276,4.7-2.184.47-7.2.645-13.066,1.063-3.387.246-4.744-2.908-.142-4.686a18.721,18.721,0,0,1,4.126-.84c-.12,2.166.6,3.805,3.43,3.815A6.681,6.681,0,0,0,301.211,163.124Zm12.536,10.137c-3.289,3.416-7.856,4.936-13.678,4.936a22.108,22.108,0,0,1-7.855-1.393l.131-.128,10.131-4.3c1.437,1.692,4.521,2.513,6.114,2.629a9.7,9.7,0,0,0,4.017-.857A3.164,3.164,0,0,0,313.747,173.262Zm-26.1.384s-2.986-2.986-1.574-2.648a16.786,16.786,0,0,0,2.37.508,13.177,13.177,0,0,1,2.532.081c.718.131,1.365.408,1.485.789Z" transform="translate(-214.199 -94.487)" fill="#277834"/>
              <path id="Trazado_127" data-name="Trazado 127" d="M356.645,149.757c-.151-.317-.78-.384-1.031-.283a5.591,5.591,0,0,0-1.09.685,1.586,1.586,0,0,0-.436,1.537.843.843,0,0,0,.861.558,3.534,3.534,0,0,0,1.262-.883A1.367,1.367,0,0,0,356.645,149.757Z" transform="translate(-235.003 -102.485)" fill="#277834"/>
              <path id="Trazado_128" data-name="Trazado 128" d="M331.962,173.02H315.753c-1.024,9.119-3.806,15.2-8.62,18.117-4.682,2.774-9.24,4.045-13.426,3.8A22.413,22.413,0,0,1,279.4,190c-4.432-3.425-6.966-9.255-7.854-16.976H255.713c2.151,24.7,14.694,37.108,37.238,37.232C316.377,209.994,329.426,197.59,331.962,173.02Z" transform="translate(-207.586 -109.063)" fill="#277834"/>
              <path id="Trazado_129" data-name="Trazado 129" d="M277.868,95.477V84.333H243.416V95.477h3.8a2.432,2.432,0,0,1,2.533,2.409v27.1h1.392V96.366a1.841,1.841,0,0,0-1.775-1.9h-4.427V85.851h31.41v8.611h-5.2a1.833,1.833,0,0,0-1.768,1.9v28.617h1.644v-27.1a2.541,2.541,0,0,1,2.658-2.409Z" transform="translate(-204.157 -84.333)" fill="#277834"/>
              <path id="Trazado_130" data-name="Trazado 130" d="M272.284,94.268h3.931V88.185H247.463v6.083H250.5a3.221,3.221,0,0,1,3.169,3.172v28.617h15.577V97.44A3.3,3.3,0,0,1,272.284,94.268Z" transform="translate(-205.285 -85.407)" fill="#277834"/>
              <path id="Trazado_131" data-name="Trazado 131" d="M235.328,138.646a12.432,12.432,0,0,0-2.4.507,1.478,1.478,0,0,0-1.393-.637c-1.625-.014-4.548,2.363-6.205,4.693s-3.423,4.811-3.423,4.811-.35-.69-.63-.758-.464.167-.511.5-.233,3.79-1.39,3.552c-.8-.156-1.227-1.836-.383-3.676s3.958-4.83,5.58-6.111a1.6,1.6,0,0,0-.433-2.863,2.737,2.737,0,0,0-2.863,1.384c-3.934,3.035-6.461,4.3-7.854,3.795,2.271-6.081.965-9.354-3.156-9.122a42.753,42.753,0,0,0-6.213,1.144,13.95,13.95,0,0,1-4.435.759c-3.493.035-2.52-3.335,2.019-5.452a59.048,59.048,0,0,1,10.009-3.162s6.893-1.5,9.32-2.316c5.029-1.685,4.043-5.169,1.362-5.87s-8.4,1.851-9.542,2.859a56.369,56.369,0,0,1,6.459-1.639c1.982-.245,2.35,1.352,1.017,1.77s-7.7,2.065-10.624,2.94c-4.013,1.206-10.271,3.634-12.932,5.417s-4.779,5.143-4.434,6.97a3.908,3.908,0,0,0,4.073,3c3.214-.1,12.227-3.592,13.919-3.633s2.271,1.711,1.765,3.543a17.058,17.058,0,0,1-1.4,3.42c-4.318,2.342-8.633,4.849-10.151,5.884a83.25,83.25,0,0,0-8.207,6.157c-3.7,3.162-3.971,7.783-2.347,10.369.725,1.152,2.026,1.616,3.842,1.627s5.6-1.99,8.64-5.039c2.149-2.277,4.946-6.975,6.579-10.129s3.8-7.349,3.8-7.349-.052.144,1.141.131a10.343,10.343,0,0,0,2.655-.507c-2.823,7.514-1.651,9.328,2.135,8.236,1.623-.472,3.314-2.035,3.444-2.787,0,.379,1.1,1.186,1.69,1.3a1.915,1.915,0,0,0,1.544-.348c1.267-.751,1.576-1.6.942-1.594-1.732.019-1.411-2.484.883-5.441.738-.959,3.548-3.42,3.8-3.293a13.666,13.666,0,0,0-2.784,6.333c-.386,2.308.459,3.511,1.928,3.348,1.077-.123,1.452-1.954.99-3.348-.207-.611.71-2.393,2.272-4.179a10.486,10.486,0,0,1,1.395-1.265,6.144,6.144,0,0,1-.5,1.643,11.131,11.131,0,0,0-1.464,5.463c.089,1.206.706,2.132,1.589,2.013.885,0,1.716-.589,1.4-1.644-.679-2.251,0-4.557,2.15-7.475,1.137-1.262,1.1-2.133.693-2.611a1.871,1.871,0,0,0-1.58-.552A1.91,1.91,0,0,0,235.328,138.646Zm-31.535,12.28a42.9,42.9,0,0,1,4.652-2.1,50.162,50.162,0,0,1-5.033,7.3c-2.159,2.271-5.568,5.444-7.6,5.444-1.645,0-1.5-2.121.379-4.557A27.638,27.638,0,0,1,203.793,150.926Z" transform="translate(-188.976 -94.196)" fill="#277834"/>
              <path id="Trazado_132" data-name="Trazado 132" d="M270.994,143.81c-.164.186-1.049,1.884-.885,2.021s.684-.079,1.014-.253,1.891-1.013,1.891-1.013C273.15,144.081,271.4,143.324,270.994,143.81Z" transform="translate(-211.594 -100.874)" fill="#277834"/>
              <path id="Trazado_133" data-name="Trazado 133" d="M263.143,147.475c-2.246.014-4.651,2.444-5.7,4.558-1.518,3.048-1.377,7.249,1.216,7.939,2.654.715,5.342-2.057,6.635-4.527a8.85,8.85,0,0,0,1.018-4.047s1.794-.617,2.275-.762.717.366.57,1.057c-.192.9-2.89,4.732-3.511,5.551-.7.912-1.845,2.983-.353,2.891.992-.063,1.59-1.377,2.032-2.03s4.5-6.746,5.061-7.315a6.056,6.056,0,0,1,1.519-1.3c1.332-.342,1.47.379.638,1.4-1.553,1.9-3.57,5.432-3.725,7.066-.152,1.515.445,2.176,1.32,2.05a2.848,2.848,0,0,0,.992-.325c1.689-.809,2.148-1.623,1.543-1.443-.966.281-1.276-1.148-.766-2.159s3.273-5.071,3.8-5.822.256-2.074-1.49-2.771a5.317,5.317,0,0,0-4.585.872c-.049-.4-1.262-1.139-1.77-.61A5.709,5.709,0,0,1,267.067,149a6.747,6.747,0,0,1-1.392,0S265.388,147.457,263.143,147.475Zm-.131,4.807a.23.23,0,0,0,.258-.127c.51.512-.126,2.417-1.22,3.826-.758.987-1.546,1.593-2.171,1.478-.878-.165-.909-1.217-.666-2.264a12.692,12.692,0,0,1,2.031-4.3A17.257,17.257,0,0,0,263.011,152.282Z" transform="translate(-207.795 -101.881)" fill="#277834"/>
              <path id="Trazado_134" data-name="Trazado 134" d="M240.338,141.377c.043-.283-.477-.549-1.09-.878-.519-.281-.948.408-1.029.573s-.493.981-.619,1.331-.031,1.025.381,1.137a2.068,2.068,0,0,0,1.523-.509A4.518,4.518,0,0,0,240.338,141.377Z" transform="translate(-202.521 -99.976)" fill="#277834"/>
            </g>
          </g>
        </g>
      </g>
      <g id="Grupo_5264" data-name="Grupo 5264" transform="translate(0 119.344)">
        <g id="Grupo_5261" data-name="Grupo 5261">
          <path id="Trazado_135" data-name="Trazado 135" d="M120.975,251.2l-.123.127c-1,0-1.558.262-1.683.8a13.549,13.549,0,0,0-.151,1.918c-.026.734-.035,1.79-.035,3.172V261.1q0,3.757-1.481,5.363a7.219,7.219,0,0,1-5.582,2.119,10.207,10.207,0,0,1-5.168-1.1,4.363,4.363,0,0,1-2.045-2.655,30.3,30.3,0,0,1-.306-5.735v-3.26a28.344,28.344,0,0,0-.165-3.912.551.551,0,0,0-.428-.47,14.711,14.711,0,0,0-1.479-.125l-.127-.127v-.847l.127-.125c.811.048,2.107.077,3.891.077,1.82,0,3.113-.029,3.879-.077l.125.125v.847l-.125.127a14.709,14.709,0,0,0-1.478.125.554.554,0,0,0-.428.47,28.1,28.1,0,0,0-.165,3.912v2.6q0,4.778.431,5.849c.57,1.413,1.982,2.126,4.228,2.126a5.044,5.044,0,0,0,3.451-1.09,3.116,3.116,0,0,0,.81-1.046,6.293,6.293,0,0,0,.35-1.645,18.813,18.813,0,0,0,.117-2.1V257.9q0-3.3-.025-4.517a5.743,5.743,0,0,0-.152-1.485.759.759,0,0,0-.442-.389,7.421,7.421,0,0,0-1.554-.187l-.128-.127v-.847l.128-.125c.734.048,1.488.077,2.261.077.581,0,1.695-.029,3.35-.077l.123.125Z" transform="translate(-102.203 -249.936)" fill="#277834"/>
          <path id="Trazado_136" data-name="Trazado 136" d="M164.453,251.213l-.139.131a12.764,12.764,0,0,0-1.478.124.554.554,0,0,0-.43.469,28.708,28.708,0,0,0-.162,3.915v5.125q0,5.678.162,7.392l-.162.117c-.953-.165-1.674-.275-2.161-.34q-3.389-3.806-11.563-13.874v8.262a27.857,27.857,0,0,0,.168,3.915.552.552,0,0,0,.43.47c.123.028.619.074,1.477.125l.128.127v.86l-.128.115c-.966-.052-1.871-.077-2.7-.077-.968,0-1.939.025-2.917.077l-.126-.115v-.86l.126-.127c.86-.05,1.351-.1,1.481-.125a.554.554,0,0,0,.425-.47,28.016,28.016,0,0,0,.165-3.915v-6.681a28,28,0,0,0-.165-3.915.549.549,0,0,0-.425-.469,12.871,12.871,0,0,0-1.481-.124l-.126-.131v-.858l.126-.11c.8.052,1.565.076,2.285.076,1.14,0,2.081-.024,2.831-.076q4.549,6.062,10.69,13v-7.391a28.084,28.084,0,0,0-.168-3.915.545.545,0,0,0-.43-.469,12.583,12.583,0,0,0-1.475-.124l-.125-.131v-.858l.125-.11q1.413.078,2.693.076c1.083,0,2.06-.024,2.926-.076l.127.11Z" transform="translate(-114.094 -249.941)" fill="#277834"/>
          <path id="Trazado_137" data-name="Trazado 137" d="M196.776,268l-.114.13c-.841-.048-2.143-.076-3.9-.076s-3.05.029-3.894.076l-.111-.13v-.846l.128-.128a13.254,13.254,0,0,0,1.475-.122.55.55,0,0,0,.428-.471,28.252,28.252,0,0,0,.164-3.917v-6.681a28.19,28.19,0,0,0-.164-3.912.552.552,0,0,0-.428-.47,14.805,14.805,0,0,0-1.475-.125l-.128-.127v-.861l.128-.112c.8.048,2.1.077,3.884.077s3.074-.029,3.881-.077l.127.112v.861l-.127.127c-.857.052-1.351.092-1.479.125a.552.552,0,0,0-.428.47,28.425,28.425,0,0,0-.164,3.912v6.681a28.487,28.487,0,0,0,.164,3.917.55.55,0,0,0,.428.471,13.349,13.349,0,0,0,1.479.122l.127.128Z" transform="translate(-126.338 -249.936)" fill="#277834"/>
          <path id="Trazado_138" data-name="Trazado 138" d="M235.4,251.213l-.125.126a4.085,4.085,0,0,0-1.131.211,1.374,1.374,0,0,0-.525.573,21.516,21.516,0,0,0-1.085,2.37l-.894,2.14-1.7,4.116q-2.185,5.3-2.942,7.465h-1.923l-5.8-14.056a10.227,10.227,0,0,0-1.287-2.53,2.8,2.8,0,0,0-1.544-.289l-.127-.138v-.832l.14-.141c.886.048,2,.077,3.35.077,1.682,0,3.214-.029,4.593-.077l.128.141v.845l-.112.126a4.179,4.179,0,0,0-1.682.226.461.461,0,0,0-.214.433,13.015,13.015,0,0,0,.822,2.4l.592,1.5,3.2,7.9,2.806-7.041c.108-.268.362-.95.758-2.032a15.151,15.151,0,0,0,.856-2.74c0-.278-.089-.445-.273-.508a10.094,10.094,0,0,0-1.694-.137l-.127-.126v-.86l.141-.125c.95.048,1.94.077,2.968.077.73,0,1.628-.029,2.691-.077l.138.141Z" transform="translate(-134.026 -249.936)" fill="#277834"/>
          <path id="Trazado_139" data-name="Trazado 139" d="M272.506,263.832a28.5,28.5,0,0,0-.275,4.167l-.127.13-9.185-.076c-1.535,0-2.617.029-3.25.076l-.124-.13v-.348l.061-.154a4.666,4.666,0,0,0,1.014-.747,6.613,6.613,0,0,0,.138-1.681l.038-2.828v-6.407a27.133,27.133,0,0,0-.168-3.912.544.544,0,0,0-.427-.47,14.625,14.625,0,0,0-1.475-.125l-.128-.127v-.861l.128-.112c.85.048,2.161.077,3.94.077q2.373,0,9.033-.077l.138.1-.164,1.4c-.051.448-.092.824-.113,1.137l-.09,1.175-.125.141h-.733l-.125-.126a5.122,5.122,0,0,0-.2-1.96,2.9,2.9,0,0,0-1.356-.278q-1.219-.1-2.141-.1-1.1,0-2.225.086-.135,1.323-.138,3.674v2.62c.666.038,1.2.059,1.615.059l1.658-.009c.769-.013,1.209-.076,1.314-.193a4.111,4.111,0,0,0,.263-1.708l.128-.119h.782l.128.119c-.037.948-.055,1.809-.055,2.59,0,.855.018,1.783.055,2.8l-.128.112h-.845l-.13-.125a4.132,4.132,0,0,0-.2-1.726c-.136-.176-.547-.3-1.228-.358-.513-.042-1.061-.063-1.641-.063q-.926,0-1.719.063v3.852q0,1.654.063,3.209h1.72a19.581,19.581,0,0,0,4.524-.293.408.408,0,0,0,.2-.136,2.267,2.267,0,0,0,.241-.762l.3-1.563.124-.139h.772Z" transform="translate(-145.814 -249.936)" fill="#277834"/>
          <path id="Trazado_140" data-name="Trazado 140" d="M311.753,267.984l-.123.13c-.061,0-.223-.006-.478-.014-1.16-.038-1.881-.062-2.165-.062-.429,0-1.108.029-2.049.076a3.385,3.385,0,0,0-.477-1.015l-3.131-5.225-1.406-2.137a3.463,3.463,0,0,0-.742-.773l.138-.427c.191.009.337.014.431.014a4.049,4.049,0,0,0,1.944-.392,3.384,3.384,0,0,0,1.186-1.238,3.935,3.935,0,0,0,.542-2.109,2.86,2.86,0,0,0-1.592-2.88,5.383,5.383,0,0,0-2.207-.355,6.8,6.8,0,0,0-1.212.1q-.129,1.234-.131,4.22v6.6a28,28,0,0,0,.168,3.917.545.545,0,0,0,.428.471,13.138,13.138,0,0,0,1.479.122l.125.128v.846l-.115.13c-.839-.048-2.137-.076-3.891-.076-1.809,0-3.105.029-3.887.076l-.13-.115v-.86l.13-.128a13.337,13.337,0,0,0,1.478-.122.555.555,0,0,0,.429-.471,28.487,28.487,0,0,0,.164-3.917V255.82a28.427,28.427,0,0,0-.164-3.912.557.557,0,0,0-.429-.47c-.128-.033-.622-.073-1.478-.125l-.13-.127v-.861l.13-.112c.824.048,2.122.077,3.887.077q1.543,0,2.5-.042,1.908-.072,2.852-.072a9.556,9.556,0,0,1,3.21.391,3,3,0,0,1,1.848,1.792,4.4,4.4,0,0,1,.225,1.468q0,3.433-3.869,4.876.638,1.057,1.345,2.145l1.946,2.995a13.745,13.745,0,0,0,2.285,3.017,1.476,1.476,0,0,0,.809.192l.123.126Z" transform="translate(-155.813 -249.922)" fill="#277834"/>
          <path id="Trazado_141" data-name="Trazado 141" d="M348.156,262.1a6,6,0,0,1-1.187,3.677,6.26,6.26,0,0,1-2.713,2.086,9.737,9.737,0,0,1-3.681.63,12.023,12.023,0,0,1-5.2-1.213l-.152-.281a18.408,18.408,0,0,0,.353-4.129l.127-.125h.807l.114.125v.291a15.551,15.551,0,0,0,.151,1.866,3.656,3.656,0,0,0,1.634,1.394,5.708,5.708,0,0,0,2.552.608,3.615,3.615,0,0,0,3.461-1.744,3.857,3.857,0,0,0,.49-1.858,2.408,2.408,0,0,0-1.349-2.315,7.923,7.923,0,0,0-2.161-.566,11.393,11.393,0,0,1-4.435-1.3,4.274,4.274,0,0,1-1.6-3.674,5.229,5.229,0,0,1,1.747-4.132,7.5,7.5,0,0,1,5.128-1.618,10.36,10.36,0,0,1,4.77.945l.092.3a21.912,21.912,0,0,0-.371,3.612l-.136.13h-.8l-.124-.13a16.874,16.874,0,0,0-.125-1.968,2.992,2.992,0,0,0-1.366-1.011,5.6,5.6,0,0,0-2.159-.434,3.808,3.808,0,0,0-2.679.9,2.817,2.817,0,0,0-.924,2.183,2.363,2.363,0,0,0,1.051,2.135,10.088,10.088,0,0,0,3.223.846c.177.027.669.114,1.478.255a7.7,7.7,0,0,1,1.377.362,3.857,3.857,0,0,1,1.917,1.47A4.843,4.843,0,0,1,348.156,262.1Z" transform="translate(-167.179 -249.824)" fill="#277834"/>
          <path id="Trazado_142" data-name="Trazado 142" d="M378.573,268l-.115.13c-.848-.048-2.142-.076-3.9-.076s-3.054.029-3.891.076l-.114-.13v-.846l.127-.128a12.966,12.966,0,0,0,1.475-.122.559.559,0,0,0,.433-.471,28.321,28.321,0,0,0,.167-3.917v-6.681a28.259,28.259,0,0,0-.167-3.912.561.561,0,0,0-.433-.47,14.449,14.449,0,0,0-1.475-.125l-.127-.127v-.861l.127-.112c.808.048,2.1.077,3.894.077,1.772,0,3.065-.029,3.872-.077l.131.112v.861l-.131.127a14.653,14.653,0,0,0-1.475.125.553.553,0,0,0-.431.47,28.419,28.419,0,0,0-.168,3.912v6.681a28.481,28.481,0,0,0,.168,3.917.55.55,0,0,0,.431.471,13.13,13.13,0,0,0,1.475.122l.131.128Z" transform="translate(-177.03 -249.936)" fill="#277834"/>
          <path id="Trazado_143" data-name="Trazado 143" d="M417.9,258.109a9.669,9.669,0,0,1-2.792,7.1,9.351,9.351,0,0,1-3.308,2.136,12.654,12.654,0,0,1-4.864.772l-4.457-.076c-1.213-.017-2.216,0-3.012.076l-.123-.13v-.348l.063-.154a4.385,4.385,0,0,0,1.008-.747,6.359,6.359,0,0,0,.141-1.681l.038-2.828V255.82a28.272,28.272,0,0,0-.164-3.912.562.562,0,0,0-.431-.47,14.7,14.7,0,0,0-1.475-.125l-.131-.127v-.861l.131-.112c.889.048,1.739.077,2.549.077,1.963,0,3.729-.029,5.307-.077q1.177-.037,2.362-.037a13.421,13.421,0,0,1,5.042.741,6.41,6.41,0,0,1,3.006,2.58A8.667,8.667,0,0,1,417.9,258.109Zm-3.878.606a7.781,7.781,0,0,0-1.69-5.383,4.788,4.788,0,0,0-2.212-1.392,13,13,0,0,0-3.522-.375,15.194,15.194,0,0,0-2.255.162q-.123,1.416-.123,6.85l.022,5.52a23.376,23.376,0,0,0,.1,2.446,14.041,14.041,0,0,0,2.279.179,8.862,8.862,0,0,0,3.965-.733,5.65,5.65,0,0,0,2.487-2.7A10.389,10.389,0,0,0,414.017,258.715Z" transform="translate(-184.793 -249.922)" fill="#277834"/>
          <path id="Trazado_144" data-name="Trazado 144" d="M460.952,267.964l-.117.13c-1.865-.048-2.992-.076-3.378-.076-1.548,0-2.993.029-4.326.076l-.114-.13v-.792l.127-.141,1.1-.067c.461-.02.7-.185.7-.487a4.679,4.679,0,0,0-.352-1.191l-1.025-2.664q-1.743-.026-3.56-.027-.986,0-2.937.027l-.555,1.54a9.542,9.542,0,0,0-.624,2.2c0,.32.193.508.588.568.219.033.653.066,1.287.1l.13.126v.806l-.13.13c-1.558-.048-2.555-.076-3-.076-.348,0-1.2.029-2.568.076l-.125-.115v-.821l.14-.126c.869-.049,1.4-.225,1.6-.52s.943-2.05,2.232-5.268l3.291-8.25c.249-.638.622-1.6,1.113-2.889h1.793l6.7,15.752c.262.6.493.934.709,1.012a3.788,3.788,0,0,0,1.193.151l.117.138Zm-8-6.8-2.706-6.617-2.593,6.617c.689.025,1.589.042,2.694.042C451.411,261.209,452.277,261.193,452.947,261.168Z" transform="translate(-196.973 -249.902)" fill="#277834"/>
          <path id="Trazado_145" data-name="Trazado 145" d="M504.376,258.109a9.683,9.683,0,0,1-2.789,7.1,9.45,9.45,0,0,1-3.313,2.136,12.643,12.643,0,0,1-4.863.772l-4.461-.076a30.037,30.037,0,0,0-3.006.076l-.126-.13v-.348l.064-.154a4.693,4.693,0,0,0,1.013-.747,6.7,6.7,0,0,0,.136-1.681l.037-2.828V255.82a27.953,27.953,0,0,0-.164-3.912.548.548,0,0,0-.428-.47,14.786,14.786,0,0,0-1.482-.125l-.124-.127v-.861l.124-.112c.9.048,1.745.077,2.554.077,1.962,0,3.734-.029,5.308-.077.782-.025,1.566-.037,2.361-.037a13.435,13.435,0,0,1,5.041.741,6.426,6.426,0,0,1,3,2.58A8.654,8.654,0,0,1,504.376,258.109Zm-3.879.606a7.785,7.785,0,0,0-1.69-5.383,4.791,4.791,0,0,0-2.212-1.392,12.98,12.98,0,0,0-3.524-.375,15.153,15.153,0,0,0-2.248.162q-.129,1.416-.131,6.85l.03,5.52a21,21,0,0,0,.1,2.446,13.969,13.969,0,0,0,2.273.179,8.86,8.86,0,0,0,3.966-.733,5.639,5.639,0,0,0,2.489-2.7A10.421,10.421,0,0,0,500.5,258.715Z" transform="translate(-208.909 -249.922)" fill="#277834"/>
        </g>
        <g id="Grupo_5262" data-name="Grupo 5262" transform="translate(0 24.997)">
          <path id="Trazado_146" data-name="Trazado 146" d="M119.045,311.208a7.768,7.768,0,0,1-1.547,4.786,8.037,8.037,0,0,1-3.537,2.709,12.56,12.56,0,0,1-4.785.825,15.623,15.623,0,0,1-6.775-1.576l-.2-.366a23.984,23.984,0,0,0,.462-5.371l.164-.164h1.052l.149.164v.376a19.463,19.463,0,0,0,.2,2.431,4.677,4.677,0,0,0,2.119,1.809,7.426,7.426,0,0,0,3.324.79q3.254,0,4.5-2.264a4.972,4.972,0,0,0,.643-2.424,3.124,3.124,0,0,0-1.762-3.008,9.8,9.8,0,0,0-2.809-.736c-2.931-.454-4.852-1.015-5.776-1.7a5.556,5.556,0,0,1-2.083-4.783,6.819,6.819,0,0,1,2.267-5.376,9.783,9.783,0,0,1,6.676-2.1,13.439,13.439,0,0,1,6.216,1.232l.116.394a28.243,28.243,0,0,0-.477,4.7l-.18.16H115.97l-.164-.16a21.164,21.164,0,0,0-.164-2.565,3.929,3.929,0,0,0-1.778-1.318,7.363,7.363,0,0,0-2.812-.557,4.978,4.978,0,0,0-3.485,1.17,3.689,3.689,0,0,0-1.2,2.845,3.081,3.081,0,0,0,1.367,2.78,13.227,13.227,0,0,0,4.193,1.1c.227.033.867.146,1.923.33a9.613,9.613,0,0,1,1.793.478,4.96,4.96,0,0,1,2.5,1.907A6.3,6.3,0,0,1,119.045,311.208Z" transform="translate(-102.203 -287.482)" fill="#277834"/>
          <path id="Trazado_147" data-name="Trazado 147" d="M141.313,318.886l-.151.163c-1.093-.063-2.789-.1-5.078-.1s-3.968.035-5.07.1l-.144-.163v-1.1l.164-.168a19.146,19.146,0,0,0,1.925-.161.718.718,0,0,0,.557-.609,37.127,37.127,0,0,0,.216-5.1v-8.7a37.062,37.062,0,0,0-.216-5.1.712.712,0,0,0-.557-.609,17.378,17.378,0,0,0-1.925-.164l-.164-.169v-1.12l.164-.146q1.582.1,5.062.1c2.317,0,4-.03,5.051-.1l.165.146v1.12l-.165.169a17.317,17.317,0,0,0-1.925.164.707.707,0,0,0-.556.609,36.53,36.53,0,0,0-.218,5.1v8.7a36.594,36.594,0,0,0,.218,5.1.713.713,0,0,0,.556.609,19.073,19.073,0,0,0,1.925.161l.165.168Z" transform="translate(-110.197 -287.627)" fill="#277834"/>
          <path id="Trazado_148" data-name="Trazado 148" d="M181.325,318.886l-.168.163c-1.082-.063-2.773-.1-5.062-.1q-3.52,0-5.065.1l-.148-.148v-1.117l.165-.168a18.841,18.841,0,0,0,1.921-.161.722.722,0,0,0,.563-.609,37.139,37.139,0,0,0,.211-5.1V300.631l-3.665,7.512c-.21.424-.922,1.954-2.141,4.61l-3.009,6.58h-1.1q-.854-2.042-2.317-5.149l-2.3-4.888-4.31-8.96v11.414a36.972,36.972,0,0,0,.214,5.1.719.719,0,0,0,.559.609,19.145,19.145,0,0,0,1.924.161l.165.168V318.9l-.165.148q-1.891-.1-3.52-.1-1.889,0-3.794.1l-.167-.148v-1.117l.167-.168a18.811,18.811,0,0,0,1.918-.161.716.716,0,0,0,.56-.609,37.013,37.013,0,0,0,.216-5.1v-8.7a36.948,36.948,0,0,0-.216-5.1.71.71,0,0,0-.56-.609,17.085,17.085,0,0,0-1.918-.164l-.167-.169v-1.12l.167-.146c1.137.068,2.58.1,4.323.1,1.334,0,2.506-.03,3.5-.1.359.836.875,2,1.545,3.524l1.051,2.264,5.231,10.938,2.515-5.1,3.927-8.4q.693-1.5,1.349-3.226c1.241.068,2.071.1,2.5.1q3.227,0,4.933-.1l.168.146v1.137l-.168.152a17.219,17.219,0,0,0-1.921.164.713.713,0,0,0-.56.609,37.114,37.114,0,0,0-.213,5.1v8.7a37.179,37.179,0,0,0,.213,5.1.719.719,0,0,0,.56.609,18.964,18.964,0,0,0,1.921.161l.168.168Z" transform="translate(-115.563 -287.627)" fill="#277834"/>
          <path id="Trazado_149" data-name="Trazado 149" d="M223.079,303.66q0,6.069-3.538,9.522-3.429,3.349-9.386,3.35-5.621,0-8.831-3.162t-3.2-8.805q0-7.91,6.034-10.95a14.854,14.854,0,0,1,6.755-1.383q5.747,0,8.931,3.01A11.012,11.012,0,0,1,223.079,303.66Zm-5.063.854a13.21,13.21,0,0,0-1.917-7.571,6.365,6.365,0,0,0-5.616-2.805,6.273,6.273,0,0,0-6.477,4.392,14.641,14.641,0,0,0-.824,5.045,14.844,14.844,0,0,0,1.876,8.028,6.433,6.433,0,0,0,5.8,3.041q4.684,0,6.3-4.618A16.572,16.572,0,0,0,218.016,304.513Zm-2.054-19.532-7.42,5.357-.757-.573v-.23L211.391,285l4.206-.511Z" transform="translate(-128.949 -284.487)" fill="#277834"/>
          <path id="Trazado_150" data-name="Trazado 150" d="M263.537,297.014l-.18.169a17.269,17.269,0,0,0-1.924.164.712.712,0,0,0-.557.609,36.891,36.891,0,0,0-.214,5.1v6.675q0,7.38.214,9.617l-.214.15c-1.24-.212-2.177-.363-2.812-.446Q253.44,314.1,242.8,301v10.752a37.127,37.127,0,0,0,.216,5.1.718.718,0,0,0,.557.609,19.151,19.151,0,0,0,1.927.161l.16.168V318.9l-.16.148c-1.265-.063-2.435-.1-3.523-.1q-1.889,0-3.8.1l-.164-.148v-1.117l.164-.168a18.919,18.919,0,0,0,1.923-.161.716.716,0,0,0,.56-.609,37.1,37.1,0,0,0,.212-5.1v-8.7a37.034,37.034,0,0,0-.212-5.1.71.71,0,0,0-.56-.609,17.182,17.182,0,0,0-1.923-.164l-.164-.169v-1.12l.164-.146c1.041.068,2.033.1,2.979.1,1.478,0,2.7-.03,3.681-.1q5.918,7.889,13.91,16.924v-9.619a36.753,36.753,0,0,0-.213-5.1.71.71,0,0,0-.563-.609,17.153,17.153,0,0,0-1.92-.164l-.166-.169v-1.12l.166-.146c1.227.068,2.394.1,3.5.1,1.414,0,2.684-.03,3.811-.1l.166.146Z" transform="translate(-140.074 -287.627)" fill="#277834"/>
        </g>
        <g id="Grupo_5263" data-name="Grupo 5263" transform="translate(135.529 24.997)">
          <path id="Trazado_151" data-name="Trazado 151" d="M309.424,311.514a7.039,7.039,0,0,1-4,6.4,10.186,10.186,0,0,1-5.085,1.116c-.651,0-1.2-.005-1.623-.018l-3.931-.082c-1.4,0-2.487.038-3.254.1l-.166-.162V318.4l.081-.2a5.572,5.572,0,0,0,1.314-.967,8.446,8.446,0,0,0,.18-2.186l.053-3.687V303.03a36.921,36.921,0,0,0-.216-5.1.716.716,0,0,0-.56-.608,17.4,17.4,0,0,0-1.92-.165l-.166-.166v-1.118l.166-.146c.974.068,2.648.1,5.027.1q2.268,0,4.093-.08c.966-.044,1.783-.067,2.453-.067q4.591,0,6.017,2.088a4.362,4.362,0,0,1,.754,2.533,4.914,4.914,0,0,1-1.823,3.9,6.224,6.224,0,0,1-1.806,1.1,18.788,18.788,0,0,1-2.372.709Q309.425,306.3,309.424,311.514ZM303.687,301.1q0-3.632-3.785-3.628a13.665,13.665,0,0,0-2.12.133q-.065,1.717-.065,3.185v4.542c.25.017.754.028,1.512.028,1.983,0,3.291-.634,3.912-1.909A5.2,5.2,0,0,0,303.687,301.1Zm.707,10.922q0-4.927-5.18-4.934c-.441,0-.935.015-1.5.053v7.613c0,.821.022,1.628.065,2.414a12.209,12.209,0,0,0,1.89.118,4.458,4.458,0,0,0,3.551-1.446A5.738,5.738,0,0,0,304.393,312.024Z" transform="translate(-290.137 -287.608)" fill="#277834"/>
          <path id="Trazado_152" data-name="Trazado 152" d="M347.621,306.654q0,6.069-3.537,9.519-3.433,3.353-9.392,3.353-5.623,0-8.82-3.162t-3.214-8.805q0-7.912,6.04-10.95a14.844,14.844,0,0,1,6.755-1.383q5.736,0,8.929,3.01A11.013,11.013,0,0,1,347.621,306.654Zm-5.069.852a13.232,13.232,0,0,0-1.91-7.569,6.369,6.369,0,0,0-5.616-2.807,6.276,6.276,0,0,0-6.481,4.393,14.68,14.68,0,0,0-.82,5.045A14.854,14.854,0,0,0,329.6,314.6a6.436,6.436,0,0,0,5.809,3.04q4.677,0,6.293-4.621A16.676,16.676,0,0,0,342.552,307.507Z" transform="translate(-299.205 -287.482)" fill="#277834"/>
          <path id="Trazado_153" data-name="Trazado 153" d="M380.064,313.457a35.906,35.906,0,0,0-.369,5.428l-.164.161-11.954-.1c-1.992,0-3.4.038-4.22.1l-.167-.161v-.463l.081-.2a5.9,5.9,0,0,0,1.317-.967,8.463,8.463,0,0,0,.178-2.187l.049-3.687V303.05a36.932,36.932,0,0,0-.211-5.1.72.72,0,0,0-.559-.608,17.632,17.632,0,0,0-1.93-.165l-.158-.166v-1.118l.158-.146c1.134.068,2.79.1,4.972.1,2.254,0,3.971-.029,5.141-.1l.169.146v1.135l-.169.149a17.268,17.268,0,0,0-1.915.165.716.716,0,0,0-.562.608,36.262,36.262,0,0,0-.213,5.1v9.831c0,1.439.024,2.826.081,4.176h2.234a26.089,26.089,0,0,0,5.887-.375A.5.5,0,0,0,378,316.5a2.876,2.876,0,0,0,.313-.982l.394-2.041.163-.182h1.005Z" transform="translate(-310.164 -287.627)" fill="#277834"/>
          <path id="Trazado_154" data-name="Trazado 154" d="M402.12,315.745l-.154.161c-1.093-.062-2.79-.1-5.076-.1s-3.974.038-5.072.1l-.146-.161v-1.1l.164-.167a18.843,18.843,0,0,0,1.926-.161.713.713,0,0,0,.557-.609,36.468,36.468,0,0,0,.216-5.1v-8.7a36.451,36.451,0,0,0-.216-5.1.708.708,0,0,0-.557-.608,17.343,17.343,0,0,0-1.926-.165l-.164-.166v-1.118l.164-.146c1.057.068,2.743.1,5.067.1s4-.029,5.05-.1l.167.146v1.118l-.167.166a17.608,17.608,0,0,0-1.928.165.711.711,0,0,0-.554.608,36.369,36.369,0,0,0-.213,5.1v8.7a36.386,36.386,0,0,0,.213,5.1.716.716,0,0,0,.554.609,19.143,19.143,0,0,0,1.928.161l.167.167Zm.224-30.764-7.414,5.357-.757-.573v-.23l3.6-4.54,4.206-.508Z" transform="translate(-318.45 -284.487)" fill="#277834"/>
          <path id="Trazado_155" data-name="Trazado 155" d="M435.041,297.029l-.169.172a5.366,5.366,0,0,0-1.468.264,1.97,1.97,0,0,0-.684.747,29.094,29.094,0,0,0-1.411,3.1l-1.169,2.777-2.2,5.357q-2.85,6.916-3.834,9.719h-2.5l-7.548-18.3a12.983,12.983,0,0,0-1.675-3.286,3.474,3.474,0,0,0-2-.375l-.167-.189v-1.081l.18-.182c1.151.068,2.6.1,4.359.1,2.192,0,4.186-.029,5.985-.1l.166.182v1.1l-.148.172a5.442,5.442,0,0,0-2.189.293.586.586,0,0,0-.278.56,16.851,16.851,0,0,0,1.068,3.12l.772,1.954,4.163,10.279,3.648-9.158c.142-.355.469-1.235.987-2.645a19.869,19.869,0,0,0,1.119-3.572c0-.361-.125-.583-.363-.657a12.108,12.108,0,0,0-2.206-.175l-.16-.172v-1.114l.177-.167c1.237.068,2.523.1,3.869.1.95,0,2.12-.029,3.5-.1l.185.182Z" transform="translate(-323.619 -287.627)" fill="#277834"/>
          <path id="Trazado_156" data-name="Trazado 156" d="M467.634,318.841l-.151.162c-2.43-.062-3.9-.1-4.4-.1-2.018,0-3.89.038-5.624.1l-.146-.162v-1.034l.164-.185,1.431-.083c.6-.032.9-.243.9-.643a6.042,6.042,0,0,0-.46-1.542l-1.333-3.471q-2.272-.032-4.638-.035-1.279,0-3.813.035l-.721,2.007a12.417,12.417,0,0,0-.824,2.86c0,.415.25.666.773.744.288.04.847.087,1.676.127l.163.162v1.057l-.163.162c-2.028-.062-3.332-.1-3.91-.1-.455,0-1.566.038-3.34.1l-.166-.15v-1.068l.179-.162q1.7-.1,2.081-.675t2.906-6.855l4.29-10.739q.472-1.254,1.447-3.766h2.334L465,316.094c.341.776.65,1.219.922,1.316a4.875,4.875,0,0,0,1.561.193l.151.182Zm-10.424-8.85-3.518-8.613-3.372,8.613c.9.031,2.068.048,3.5.048C455.215,310.038,456.341,310.022,457.209,309.991Z" transform="translate(-332.776 -287.582)" fill="#277834"/>
          <path id="Trazado_157" data-name="Trazado 157" d="M503.272,318.866l-.161.162c-.08,0-.29-.005-.63-.018-1.5-.048-2.44-.082-2.813-.082-.555,0-1.447.038-2.662.1a4.513,4.513,0,0,0-.628-1.318l-4.077-6.8-1.823-2.785a4.878,4.878,0,0,0-.966-1l.177-.558c.25.014.439.017.558.017a5.3,5.3,0,0,0,2.533-.507,4.407,4.407,0,0,0,1.546-1.613,5.152,5.152,0,0,0,.7-2.746,3.728,3.728,0,0,0-2.068-3.747,7.084,7.084,0,0,0-2.877-.463,8.956,8.956,0,0,0-1.579.133c-.112,1.075-.166,2.9-.166,5.5v8.6a36.026,36.026,0,0,0,.215,5.1.721.721,0,0,0,.557.609,18.933,18.933,0,0,0,1.926.161l.161.167v1.1l-.142.162c-1.1-.062-2.786-.1-5.069-.1-2.357,0-4.046.038-5.064.1l-.16-.15v-1.115l.16-.167a19.127,19.127,0,0,0,1.925-.161.724.724,0,0,0,.56-.609,37.531,37.531,0,0,0,.21-5.1v-8.7a37.513,37.513,0,0,0-.21-5.1.719.719,0,0,0-.56-.608,17.588,17.588,0,0,0-1.925-.165l-.16-.166v-1.118l.16-.146c1.072.068,2.758.1,5.064.1,1.339,0,2.419-.015,3.255-.05q2.484-.1,3.72-.1a12.507,12.507,0,0,1,4.173.511,3.887,3.887,0,0,1,2.4,2.334,5.509,5.509,0,0,1,.3,1.905q0,4.468-5.037,6.35c.552.917,1.134,1.85,1.742,2.789l2.535,3.9a18.018,18.018,0,0,0,2.975,3.93,1.944,1.944,0,0,0,1.058.246l.161.162Z" transform="translate(-343.293 -287.608)" fill="#277834"/>
        </g>
      </g>
    </g>
    <g id="Grupo_5267" data-name="Grupo 5267" transform="translate(151.398 271.904)">
      <g id="Grupo_5266" data-name="Grupo 5266" transform="translate(0 0)">
        <path id="Trazado_158" data-name="Trazado 158" d="M171.912,354.2v-7.447h2.794a3.459,3.459,0,0,1,1.369.226,1.792,1.792,0,0,1,.809.7,1.842,1.842,0,0,1,.29.983,1.693,1.693,0,0,1-.259.9,1.85,1.85,0,0,1-.782.679,1.946,1.946,0,0,1,1.038.676,1.817,1.817,0,0,1,.363,1.127,2.159,2.159,0,0,1-.221.972,1.9,1.9,0,0,1-.546.7,2.267,2.267,0,0,1-.814.368,4.982,4.982,0,0,1-1.2.124Zm.986-4.316h1.612a3.648,3.648,0,0,0,.938-.087,1.047,1.047,0,0,0,.566-.372,1.075,1.075,0,0,0,.191-.649,1.188,1.188,0,0,0-.179-.653.892.892,0,0,0-.507-.386,4.257,4.257,0,0,0-1.132-.1H172.9Zm0,3.438h1.856a4.341,4.341,0,0,0,.669-.035,1.645,1.645,0,0,0,.569-.2,1.062,1.062,0,0,0,.376-.413,1.3,1.3,0,0,0,.148-.627,1.222,1.222,0,0,0-.216-.724,1.13,1.13,0,0,0-.59-.431,3.7,3.7,0,0,0-1.089-.123H172.9Z" transform="translate(-171.912 -344.877)" fill="#464749"/>
        <path id="Trazado_159" data-name="Trazado 159" d="M180.455,354.2l2.859-7.447h1.061l3.048,7.447H186.3l-.868-2.255H182.32L181.5,354.2Zm2.149-3.058h2.524l-.779-2.063c-.235-.626-.412-1.139-.526-1.543a9.327,9.327,0,0,1-.4,1.423Z" transform="translate(-174.294 -344.877)" fill="#464749"/>
        <path id="Trazado_160" data-name="Trazado 160" d="M191.229,354.2v-7.447h3.3a4.44,4.44,0,0,1,1.514.2,1.647,1.647,0,0,1,.827.71,2.106,2.106,0,0,1,.309,1.121,1.878,1.878,0,0,1-.512,1.338,2.616,2.616,0,0,1-1.584.691,2.5,2.5,0,0,1,.594.368,5.176,5.176,0,0,1,.816.992l1.3,2.026h-1.238l-.986-1.548c-.287-.448-.524-.79-.712-1.026a2.087,2.087,0,0,0-.5-.5,1.5,1.5,0,0,0-.45-.2,3.015,3.015,0,0,0-.549-.035h-1.142V354.2Zm.986-4.158h2.117a3.18,3.18,0,0,0,1.058-.141,1.126,1.126,0,0,0,.58-.448,1.214,1.214,0,0,0,.2-.668,1.109,1.109,0,0,0-.383-.868,1.785,1.785,0,0,0-1.21-.341h-2.357Z" transform="translate(-177.298 -344.877)" fill="#464749"/>
        <path id="Trazado_161" data-name="Trazado 161" d="M201.645,354.2v-7.447h3.3a4.428,4.428,0,0,1,1.514.2,1.65,1.65,0,0,1,.829.71,2.119,2.119,0,0,1,.309,1.121,1.878,1.878,0,0,1-.512,1.338,2.616,2.616,0,0,1-1.585.691,2.45,2.45,0,0,1,.593.368,5.213,5.213,0,0,1,.819.992l1.294,2.026h-1.24l-.984-1.548q-.433-.672-.711-1.026a2.143,2.143,0,0,0-.5-.5,1.481,1.481,0,0,0-.449-.2,3.037,3.037,0,0,0-.549-.035h-1.144V354.2Zm.984-4.158h2.118a3.164,3.164,0,0,0,1.057-.141,1.121,1.121,0,0,0,.58-.448,1.215,1.215,0,0,0,.2-.668,1.111,1.111,0,0,0-.383-.868,1.792,1.792,0,0,0-1.212-.341h-2.357Z" transform="translate(-180.203 -344.877)" fill="#464749"/>
        <path id="Trazado_162" data-name="Trazado 162" d="M210.9,354.2l2.861-7.447h1.062l3.045,7.447H216.75l-.868-2.255H212.77l-.819,2.255Zm2.15-3.058h2.523l-.776-2.063q-.355-.939-.529-1.543a9.4,9.4,0,0,1-.4,1.423Z" transform="translate(-182.785 -344.877)" fill="#464749"/>
        <path id="Trazado_163" data-name="Trazado 163" d="M221.645,354.2v-7.447h1.012l3.909,5.847v-5.847h.943V354.2H226.5l-3.91-5.851V354.2Z" transform="translate(-185.78 -344.877)" fill="#464749"/>
        <path id="Trazado_164" data-name="Trazado 164" d="M237.579,353.355a5.978,5.978,0,0,0,1.266.689l-.291.686a5.778,5.778,0,0,1-1.6-.914,3.679,3.679,0,0,1-1.83.462,3.535,3.535,0,0,1-1.832-.487,3.236,3.236,0,0,1-1.266-1.371,4.363,4.363,0,0,1-.446-1.99,4.476,4.476,0,0,1,.448-2.006,3.158,3.158,0,0,1,1.272-1.377,3.661,3.661,0,0,1,1.845-.473,3.6,3.6,0,0,1,1.86.49,3.22,3.22,0,0,1,1.263,1.37,4.452,4.452,0,0,1,.433,1.99,4.652,4.652,0,0,1-.279,1.653A3.5,3.5,0,0,1,237.579,353.355Zm-2.169-1.261a3.63,3.63,0,0,1,1.407.712,3.068,3.068,0,0,0,.869-2.383,3.8,3.8,0,0,0-.307-1.579,2.369,2.369,0,0,0-.9-1.049,2.579,2.579,0,0,0-3.156.381,3.133,3.133,0,0,0-.727,2.253,3.178,3.178,0,0,0,.72,2.229,2.391,2.391,0,0,0,1.835.777,2.535,2.535,0,0,0,1-.2,3.214,3.214,0,0,0-.976-.427Z" transform="translate(-188.55 -344.826)" fill="#464749"/>
        <path id="Trazado_165" data-name="Trazado 165" d="M248.185,346.755h.986v4.3a5.051,5.051,0,0,1-.256,1.78,2.173,2.173,0,0,1-.916,1.077,3.252,3.252,0,0,1-1.739.412,3.568,3.568,0,0,1-1.711-.361,2.057,2.057,0,0,1-.95-1.044,4.988,4.988,0,0,1-.283-1.865v-4.3h.983v4.3a4.148,4.148,0,0,0,.182,1.429,1.371,1.371,0,0,0,.618.71,2.179,2.179,0,0,0,1.076.247,2.06,2.06,0,0,0,1.548-.49,2.839,2.839,0,0,0,.463-1.9Z" transform="translate(-191.822 -344.877)" fill="#464749"/>
        <path id="Trazado_166" data-name="Trazado 166" d="M253.941,354.2v-7.447h.984V354.2Z" transform="translate(-194.786 -344.877)" fill="#464749"/>
        <path id="Trazado_167" data-name="Trazado 167" d="M257.658,354.2v-7.447h.984v6.568h3.668v.878Z" transform="translate(-195.822 -344.877)" fill="#464749"/>
        <path id="Trazado_168" data-name="Trazado 168" d="M265.68,354.2v-7.447h.986v6.568h3.666v.878Z" transform="translate(-198.059 -344.877)" fill="#464749"/>
        <path id="Trazado_169" data-name="Trazado 169" d="M272.623,354.2l2.859-7.447h1.062l3.048,7.447h-1.123l-.87-2.255h-3.112l-.817,2.255Zm2.148-3.058H277.3l-.778-2.063q-.355-.939-.526-1.543a9.653,9.653,0,0,1-.4,1.423Z" transform="translate(-199.995 -344.877)" fill="#464749"/>
        <path id="Trazado_170" data-name="Trazado 170" d="M288.125,354.2v-3.152l-2.869-4.294h1.2L287.922,349c.272.42.523.839.757,1.258.224-.387.5-.826.814-1.313l1.442-2.192h1.148l-2.972,4.294V354.2Z" transform="translate(-203.518 -344.877)" fill="#464749"/>
        <path id="Trazado_171" data-name="Trazado 171" d="M304.9,351.542l.984.251a3.3,3.3,0,0,1-1.114,1.85,3.07,3.07,0,0,1-1.968.638,3.541,3.541,0,0,1-1.958-.491,3.02,3.02,0,0,1-1.146-1.418,5.048,5.048,0,0,1-.394-2,4.36,4.36,0,0,1,.445-2.028,3.016,3.016,0,0,1,1.263-1.315,3.686,3.686,0,0,1,1.806-.45,3.066,3.066,0,0,1,1.88.569,2.954,2.954,0,0,1,1.058,1.6l-.969.23a2.283,2.283,0,0,0-.751-1.185,2,2,0,0,0-1.237-.37,2.408,2.408,0,0,0-1.434.41,2.159,2.159,0,0,0-.811,1.106,4.461,4.461,0,0,0-.234,1.429,4.576,4.576,0,0,0,.276,1.658,2.084,2.084,0,0,0,.86,1.059,2.427,2.427,0,0,0,1.265.351,2.139,2.139,0,0,0,1.4-.477A2.455,2.455,0,0,0,304.9,351.542Z" transform="translate(-207.433 -344.829)" fill="#464749"/>
        <path id="Trazado_172" data-name="Trazado 172" d="M315,346.029h.984v4.3a5.079,5.079,0,0,1-.252,1.78,2.2,2.2,0,0,1-.917,1.077,3.258,3.258,0,0,1-1.739.413,3.564,3.564,0,0,1-1.711-.361,2.058,2.058,0,0,1-.951-1.044,4.969,4.969,0,0,1-.284-1.865v-4.3h.984v4.3a4.148,4.148,0,0,0,.182,1.429,1.362,1.362,0,0,0,.619.71,2.175,2.175,0,0,0,1.075.247,2.059,2.059,0,0,0,1.549-.49,2.848,2.848,0,0,0,.462-1.9Zm-2.569-.455.674-1.423h1.2l-1.117,1.423Z" transform="translate(-210.453 -344.151)" fill="#464749"/>
        <path id="Trazado_173" data-name="Trazado 173" d="M325.726,351.542l.986.251a3.3,3.3,0,0,1-1.117,1.85,3.063,3.063,0,0,1-1.967.638,3.529,3.529,0,0,1-1.956-.491,3.028,3.028,0,0,1-1.148-1.418,5.033,5.033,0,0,1-.393-2,4.377,4.377,0,0,1,.444-2.028,3.037,3.037,0,0,1,1.262-1.315,3.7,3.7,0,0,1,1.807-.45,3.063,3.063,0,0,1,1.88.569,2.964,2.964,0,0,1,1.062,1.6l-.971.23a2.3,2.3,0,0,0-.752-1.185,2.006,2.006,0,0,0-1.239-.37,2.418,2.418,0,0,0-1.436.41,2.154,2.154,0,0,0-.808,1.106,4.462,4.462,0,0,0-.235,1.429,4.576,4.576,0,0,0,.276,1.658,2.086,2.086,0,0,0,.862,1.059,2.427,2.427,0,0,0,1.265.351,2.126,2.126,0,0,0,1.4-.477A2.437,2.437,0,0,0,325.726,351.542Z" transform="translate(-213.242 -344.829)" fill="#464749"/>
        <path id="Trazado_174" data-name="Trazado 174" d="M335.832,346.755h.984v4.3a5.054,5.054,0,0,1-.255,1.78,2.191,2.191,0,0,1-.917,1.077,3.245,3.245,0,0,1-1.738.412,3.574,3.574,0,0,1-1.713-.361,2.064,2.064,0,0,1-.949-1.044,4.987,4.987,0,0,1-.283-1.865v-4.3h.984v4.3a4.19,4.19,0,0,0,.18,1.429,1.354,1.354,0,0,0,.619.71,2.177,2.177,0,0,0,1.075.247,2.054,2.054,0,0,0,1.548-.49,2.847,2.847,0,0,0,.464-1.9Z" transform="translate(-216.262 -344.877)" fill="#464749"/>
        <path id="Trazado_175" data-name="Trazado 175" d="M343.034,354.2v-6.566h-2.452v-.88h5.9v.88h-2.465V354.2Z" transform="translate(-218.945 -344.877)" fill="#464749"/>
        <path id="Trazado_176" data-name="Trazado 176" d="M347.961,354.2l2.859-7.447h1.061l3.046,7.447h-1.122l-.868-2.255h-3.113l-.819,2.255Zm2.147-3.058h2.526l-.778-2.063q-.355-.939-.528-1.543a9.484,9.484,0,0,1-.4,1.423Z" transform="translate(-221.003 -344.877)" fill="#464749"/>
        <path id="Trazado_177" data-name="Trazado 177" d="M361.27,353.627v-.917h2.808v.917Z" transform="translate(-224.714 -346.538)" fill="#464749"/>
        <path id="Trazado_178" data-name="Trazado 178" d="M375.936,351.542l.984.251a3.3,3.3,0,0,1-1.114,1.85,3.067,3.067,0,0,1-1.968.638,3.53,3.53,0,0,1-1.957-.491,3.045,3.045,0,0,1-1.148-1.418,5.084,5.084,0,0,1-.393-2,4.4,4.4,0,0,1,.443-2.028,3.024,3.024,0,0,1,1.263-1.315,3.694,3.694,0,0,1,1.809-.45,3.051,3.051,0,0,1,1.877.569,2.954,2.954,0,0,1,1.061,1.6l-.968.23a2.3,2.3,0,0,0-.754-1.185,2.006,2.006,0,0,0-1.239-.37,2.414,2.414,0,0,0-1.434.41,2.165,2.165,0,0,0-.81,1.106,4.462,4.462,0,0,0-.234,1.429,4.545,4.545,0,0,0,.276,1.658,2.08,2.08,0,0,0,.862,1.059,2.427,2.427,0,0,0,1.265.351,2.129,2.129,0,0,0,1.4-.477A2.432,2.432,0,0,0,375.936,351.542Z" transform="translate(-227.243 -344.829)" fill="#464749"/>
        <path id="Trazado_179" data-name="Trazado 179" d="M380.734,350.524a4.06,4.06,0,0,1,.994-2.9,3.385,3.385,0,0,1,2.57-1.049,3.56,3.56,0,0,1,1.859.493,3.212,3.212,0,0,1,1.263,1.374,4.477,4.477,0,0,1,.433,2,4.352,4.352,0,0,1-.459,2.024,3.09,3.09,0,0,1-1.293,1.353,3.7,3.7,0,0,1-1.809.461,3.525,3.525,0,0,1-1.879-.507,3.281,3.281,0,0,1-1.254-1.389A4.175,4.175,0,0,1,380.734,350.524Zm1.018.017a2.976,2.976,0,0,0,.723,2.119,2.521,2.521,0,0,0,3.644-.006,3.169,3.169,0,0,0,.718-2.221,3.8,3.8,0,0,0-.307-1.586,2.341,2.341,0,0,0-.9-1.052,2.425,2.425,0,0,0-1.326-.372,2.524,2.524,0,0,0-1.8.717A3.207,3.207,0,0,0,381.752,350.541Z" transform="translate(-230.141 -344.826)" fill="#464749"/>
        <path id="Trazado_180" data-name="Trazado 180" d="M392.31,354.2v-7.447h.985v6.568h3.668v.878Z" transform="translate(-233.369 -344.877)" fill="#464749"/>
        <path id="Trazado_181" data-name="Trazado 181" d="M399.973,350.524a4.057,4.057,0,0,1,.994-2.9,3.389,3.389,0,0,1,2.572-1.049,3.568,3.568,0,0,1,1.858.493,3.209,3.209,0,0,1,1.262,1.374,4.488,4.488,0,0,1,.436,2,4.37,4.37,0,0,1-.459,2.024,3.093,3.093,0,0,1-1.294,1.353,3.682,3.682,0,0,1-1.807.461,3.518,3.518,0,0,1-1.879-.507,3.278,3.278,0,0,1-1.255-1.389A4.2,4.2,0,0,1,399.973,350.524Zm1.017.017a2.973,2.973,0,0,0,.724,2.119,2.523,2.523,0,0,0,3.646-.006,3.176,3.176,0,0,0,.718-2.221,3.8,3.8,0,0,0-.309-1.586,2.333,2.333,0,0,0-.9-1.052,2.439,2.439,0,0,0-1.328-.372,2.527,2.527,0,0,0-1.8.717A3.21,3.21,0,0,0,400.99,350.541Z" transform="translate(-235.506 -344.826)" fill="#464749"/>
        <path id="Trazado_182" data-name="Trazado 182" d="M411.565,354.2v-7.447h1.483l1.762,5.272c.162.492.281.86.353,1.1.086-.272.218-.668.4-1.195l1.783-5.181h1.326V354.2h-.949v-6.23l-2.164,6.23h-.889l-2.153-6.338V354.2Z" transform="translate(-238.738 -344.877)" fill="#464749"/>
        <path id="Trazado_183" data-name="Trazado 183" d="M423.565,354.2v-7.447h2.794a3.454,3.454,0,0,1,1.367.226,1.764,1.764,0,0,1,.807.7,1.839,1.839,0,0,1,.293.983,1.7,1.7,0,0,1-.26.9,1.845,1.845,0,0,1-.782.679,1.962,1.962,0,0,1,1.041.676,1.815,1.815,0,0,1,.361,1.127,2.2,2.2,0,0,1-.219.972,1.909,1.909,0,0,1-.547.7,2.29,2.29,0,0,1-.814.368,5,5,0,0,1-1.2.124Zm.986-4.316h1.608a3.642,3.642,0,0,0,.94-.087,1.039,1.039,0,0,0,.566-.372,1.061,1.061,0,0,0,.192-.649,1.2,1.2,0,0,0-.179-.653.89.89,0,0,0-.506-.386,4.273,4.273,0,0,0-1.134-.1h-1.487Zm0,3.438H426.4a4.351,4.351,0,0,0,.669-.035,1.658,1.658,0,0,0,.57-.2,1.049,1.049,0,0,0,.373-.413,1.285,1.285,0,0,0,.148-.627,1.235,1.235,0,0,0-.213-.724,1.137,1.137,0,0,0-.591-.431,3.7,3.7,0,0,0-1.089-.123h-1.721Z" transform="translate(-242.085 -344.877)" fill="#464749"/>
        <path id="Trazado_184" data-name="Trazado 184" d="M433.473,354.2v-7.447h.984V354.2Z" transform="translate(-244.847 -344.877)" fill="#464749"/>
        <path id="Trazado_185" data-name="Trazado 185" d="M436.113,354.2l2.858-7.447h1.062l3.048,7.447h-1.122l-.869-2.255h-3.113l-.818,2.255Zm2.148-3.058h2.524l-.777-2.063c-.235-.626-.413-1.139-.527-1.543a9.578,9.578,0,0,1-.4,1.423Z" transform="translate(-245.584 -344.877)" fill="#464749"/>
      </g>
    </g>
    <g id="Grupo_5268" data-name="Grupo 5268" transform="translate(176.534 290.179)">
      <path id="Trazado_186" data-name="Trazado 186" d="M210.013,380.8l-3.245-8.377h1.2l2.176,6.086c.175.488.324.945.441,1.372q.195-.685.451-1.372l2.264-6.086h1.132L211.15,380.8Z" transform="translate(-206.768 -370.309)" fill="#464749"/>
      <path id="Trazado_187" data-name="Trazado 187" d="M219.031,380.8v-8.377h1.108V380.8Z" transform="translate(-210.188 -370.309)" fill="#464749"/>
      <path id="Trazado_188" data-name="Trazado 188" d="M227.091,377.459v-.982l3.547-.008v3.107a6.285,6.285,0,0,1-1.685.982,4.986,4.986,0,0,1-1.783.327,4.747,4.747,0,0,1-2.244-.529,3.5,3.5,0,0,1-1.522-1.525,4.85,4.85,0,0,1-.513-2.237,5.21,5.21,0,0,1,.511-2.284,3.394,3.394,0,0,1,1.472-1.571,4.607,4.607,0,0,1,2.21-.515,4.4,4.4,0,0,1,1.642.293,2.714,2.714,0,0,1,1.152.821,3.611,3.611,0,0,1,.634,1.371l-1,.274a3.082,3.082,0,0,0-.469-1.005,1.936,1.936,0,0,0-.8-.584,2.926,2.926,0,0,0-1.154-.221,3.4,3.4,0,0,0-1.315.23,2.476,2.476,0,0,0-.895.609,2.912,2.912,0,0,0-.526.829,4.365,4.365,0,0,0-.321,1.685,4.069,4.069,0,0,0,.386,1.874,2.458,2.458,0,0,0,1.124,1.121,3.48,3.48,0,0,0,1.563.364,4.1,4.1,0,0,0,2.447-.867v-1.559Z" transform="translate(-211.264 -370.254)" fill="#464749"/>
      <path id="Trazado_189" data-name="Trazado 189" d="M236.16,380.8v-8.377h1.108V380.8Z" transform="translate(-214.964 -370.309)" fill="#464749"/>
      <path id="Trazado_190" data-name="Trazado 190" d="M240.342,380.8v-8.377h1.11v7.39h4.124v.987Z" transform="translate(-216.13 -370.309)" fill="#464749"/>
      <path id="Trazado_191" data-name="Trazado 191" d="M248.156,380.8l3.216-8.377h1.195L256,380.8h-1.265l-.977-2.536h-3.5l-.922,2.536Zm2.416-3.439h2.839l-.873-2.32q-.4-1.057-.6-1.737a10.449,10.449,0,0,1-.451,1.6Z" transform="translate(-218.309 -370.309)" fill="#464749"/>
      <path id="Trazado_192" data-name="Trazado 192" d="M260.252,380.8v-8.377h2.886a6.89,6.89,0,0,1,1.49.122,2.85,2.85,0,0,1,1.228.6,3.391,3.391,0,0,1,.991,1.431,5.6,5.6,0,0,1,.33,1.993,5.9,5.9,0,0,1-.221,1.692,4.079,4.079,0,0,1-.572,1.218,3.1,3.1,0,0,1-.762.759,3.038,3.038,0,0,1-1,.421,5.661,5.661,0,0,1-1.344.143Zm1.108-.987h1.791a4.324,4.324,0,0,0,1.3-.155,1.844,1.844,0,0,0,.754-.433,2.66,2.66,0,0,0,.616-1.06,5.248,5.248,0,0,0,.219-1.615,3.914,3.914,0,0,0-.431-2.019,2.166,2.166,0,0,0-1.048-.945,4.321,4.321,0,0,0-1.434-.172h-1.76Z" transform="translate(-221.682 -370.309)" fill="#464749"/>
      <path id="Trazado_193" data-name="Trazado 193" d="M270.693,380.8l3.217-8.377H275.1l3.428,8.377h-1.264l-.973-2.536h-3.5l-.92,2.536Zm2.416-3.439h2.841l-.873-2.32q-.4-1.057-.6-1.737a10.281,10.281,0,0,1-.451,1.6Z" transform="translate(-224.593 -370.309)" fill="#464749"/>
      <path id="Trazado_194" data-name="Trazado 194" d="M286.355,380.8v-8.377h1.668l1.983,5.931c.186.553.317.966.4,1.242.094-.306.244-.751.445-1.344l2.006-5.828h1.491V380.8H293.28V373.79l-2.432,7.008h-1l-2.419-7.13v7.13Z" transform="translate(-228.961 -370.309)" fill="#464749"/>
      <path id="Trazado_195" data-name="Trazado 195" d="M300.182,380.8v-8.377h1.107V380.8Z" transform="translate(-232.816 -370.309)" fill="#464749"/>
      <path id="Trazado_196" data-name="Trazado 196" d="M304.412,380.8v-8.377h1.138l4.4,6.578v-6.578h1.064V380.8h-1.139l-4.4-6.582V380.8Z" transform="translate(-233.996 -370.309)" fill="#464749"/>
      <path id="Trazado_197" data-name="Trazado 197" d="M316.176,380.8v-8.377h6.056v.989h-4.948v2.567h4.636v.982h-4.636v2.851h5.144v.987Z" transform="translate(-237.276 -370.309)" fill="#464749"/>
      <path id="Trazado_198" data-name="Trazado 198" d="M326.969,380.8v-8.377h2.883a6.894,6.894,0,0,1,1.49.122,2.839,2.839,0,0,1,1.23.6,3.4,3.4,0,0,1,.992,1.431,5.648,5.648,0,0,1,.33,1.993,5.9,5.9,0,0,1-.224,1.692,4.079,4.079,0,0,1-.572,1.218,3.023,3.023,0,0,1-.761.759,3.069,3.069,0,0,1-1,.421,5.668,5.668,0,0,1-1.346.143Zm1.107-.987h1.787a4.321,4.321,0,0,0,1.3-.155,1.864,1.864,0,0,0,.754-.433,2.65,2.65,0,0,0,.614-1.06,5.166,5.166,0,0,0,.218-1.615,3.931,3.931,0,0,0-.428-2.019,2.183,2.183,0,0,0-1.051-.945,4.309,4.309,0,0,0-1.433-.172h-1.76Z" transform="translate(-240.286 -370.309)" fill="#464749"/>
      <path id="Trazado_199" data-name="Trazado 199" d="M344.187,372.421H345.3v4.842a5.642,5.642,0,0,1-.286,2,2.444,2.444,0,0,1-1.029,1.209,3.646,3.646,0,0,1-1.958.465,4,4,0,0,1-1.926-.405,2.311,2.311,0,0,1-1.068-1.174,5.6,5.6,0,0,1-.319-2.1v-4.842h1.107v4.834a4.756,4.756,0,0,0,.2,1.608,1.548,1.548,0,0,0,.7.8,2.433,2.433,0,0,0,1.209.279,2.308,2.308,0,0,0,1.742-.553,3.191,3.191,0,0,0,.52-2.132Z" transform="translate(-243.559 -370.309)" fill="#464749"/>
      <path id="Trazado_200" data-name="Trazado 200" d="M356.255,377.807l1.107.281a3.721,3.721,0,0,1-1.256,2.082,3.453,3.453,0,0,1-2.212.716,3.979,3.979,0,0,1-2.2-.552,3.406,3.406,0,0,1-1.29-1.6,5.667,5.667,0,0,1-.443-2.246,4.942,4.942,0,0,1,.5-2.282,3.388,3.388,0,0,1,1.423-1.479,4.14,4.14,0,0,1,2.03-.506,3.449,3.449,0,0,1,2.115.64,3.331,3.331,0,0,1,1.193,1.8l-1.091.259a2.593,2.593,0,0,0-.845-1.333,2.262,2.262,0,0,0-1.4-.415,2.706,2.706,0,0,0-1.611.461,2.429,2.429,0,0,0-.913,1.243,4.991,4.991,0,0,0-.262,1.61,5.191,5.191,0,0,0,.309,1.865,2.335,2.335,0,0,0,.971,1.191,2.714,2.714,0,0,0,1.421.4,2.4,2.4,0,0,0,1.578-.536A2.76,2.76,0,0,0,356.255,377.807Z" transform="translate(-246.696 -370.254)" fill="#464749"/>
      <path id="Trazado_201" data-name="Trazado 201" d="M360.844,380.8l3.217-8.377h1.194l3.428,8.377H367.42l-.978-2.536h-3.5l-.919,2.536Zm2.417-3.439H366.1l-.875-2.32c-.265-.7-.466-1.283-.593-1.737a10.624,10.624,0,0,1-.451,1.6Z" transform="translate(-249.732 -370.309)" fill="#464749"/>
      <path id="Trazado_202" data-name="Trazado 202" d="M378.793,377.807l1.108.281a3.726,3.726,0,0,1-1.253,2.082,3.463,3.463,0,0,1-2.215.716,3.985,3.985,0,0,1-2.2-.552,3.439,3.439,0,0,1-1.292-1.6,5.741,5.741,0,0,1-.441-2.246,4.942,4.942,0,0,1,.5-2.282,3.393,3.393,0,0,1,1.421-1.479,4.146,4.146,0,0,1,2.032-.506,3.445,3.445,0,0,1,2.115.64,3.331,3.331,0,0,1,1.193,1.8l-1.091.259a2.6,2.6,0,0,0-.847-1.333,2.255,2.255,0,0,0-1.393-.415,2.708,2.708,0,0,0-1.612.461,2.433,2.433,0,0,0-.913,1.243,5.032,5.032,0,0,0-.262,1.61,5.193,5.193,0,0,0,.309,1.865,2.34,2.34,0,0,0,.97,1.191,2.724,2.724,0,0,0,1.424.4,2.4,2.4,0,0,0,1.576-.536A2.735,2.735,0,0,0,378.793,377.807Z" transform="translate(-252.981 -370.254)" fill="#464749"/>
      <path id="Trazado_203" data-name="Trazado 203" d="M384.92,380.8v-8.377h1.108V380.8Z" transform="translate(-256.445 -370.309)" fill="#464749"/>
      <path id="Trazado_204" data-name="Trazado 204" d="M388.7,375.9a4.554,4.554,0,0,1,1.121-3.265,3.8,3.8,0,0,1,2.889-1.181,4.023,4.023,0,0,1,2.093.555,3.628,3.628,0,0,1,1.42,1.546,5.047,5.047,0,0,1,.487,2.25,4.917,4.917,0,0,1-.514,2.276,3.507,3.507,0,0,1-1.455,1.525,4.191,4.191,0,0,1-2.035.516,3.957,3.957,0,0,1-2.114-.57,3.69,3.69,0,0,1-1.411-1.561A4.722,4.722,0,0,1,388.7,375.9Zm1.142.017a3.362,3.362,0,0,0,.816,2.386,2.841,2.841,0,0,0,4.1-.007,3.565,3.565,0,0,0,.808-2.5,4.241,4.241,0,0,0-.347-1.783,2.656,2.656,0,0,0-1.008-1.183,2.753,2.753,0,0,0-1.5-.419,2.83,2.83,0,0,0-2.023.806A3.6,3.6,0,0,0,389.839,375.919ZM392,371.092l.756-1.6h1.349l-1.256,1.6Z" transform="translate(-257.498 -369.492)" fill="#464749"/>
      <path id="Trazado_205" data-name="Trazado 205" d="M401.77,380.8v-8.377h1.139L407.3,379v-6.578h1.064V380.8h-1.137l-4.4-6.582V380.8Z" transform="translate(-261.144 -370.309)" fill="#464749"/>
    </g>
    <rect id="Rectngulo_445" data-name="Rectngulo 445" width="300" height="0.09" transform="translate(98.344 287.107)" fill="#464749"/>
  </g>
</svg>
