<svg xmlns="http://www.w3.org/2000/svg" viewBox="0 0 18 18"><title>recursos</title><g id="Capa_2" data-name="Capa 2"><g id="Capa_1-2" data-name="Capa 1"><rect width="18" height="18" fill="none"/><path d="M9.14,4.39a.45.45,0,0,1-.2,0L2.21,1.27A.48.48,0,0,1,2,.63.48.48,0,0,1,2.61.39l6.53,3,6.52-3a.49.49,0,0,1,.64.24.47.47,0,0,1-.24.64L9.34,4.35A.48.48,0,0,1,9.14,4.39ZM17.78,2.2V13.62a.5.5,0,0,1-.28.45L9.34,17.75h0a.41.41,0,0,1-.19,0,.45.45,0,0,1-.2,0h0L.77,14.07a.5.5,0,0,1-.28-.45V2.2a.48.48,0,0,1,.22-.41.47.47,0,0,1,.46,0l8,3.59,8-3.59a.47.47,0,0,1,.46,0A.48.48,0,0,1,17.78,2.2ZM1.46,13.31l7.19,3.25V6.2L1.46,3ZM16.81,3,9.62,6.2V16.56l7.19-3.25Z" fill="#09843B"/></g></g></svg>