<?xml version="1.0" encoding="utf-8"?>
<!-- Generator: Adobe Illustrator 24.0.0, SVG Export Plug-In . SVG Version: 6.00 Build 0)  -->
<svg version="1.1" id="Capa_1" xmlns="http://www.w3.org/2000/svg" xmlns:xlink="http://www.w3.org/1999/xlink" x="0px" y="0px"
	 viewBox="0 0 18 18" style="enable-background:new 0 0 18 18;" xml:space="preserve">
<style type="text/css">
	.st0{fill:#dbb52e;}
</style>
<title>soporte</title>
<g id="Capa_2_1_">
	<g id="Capa_1-2">
		<g id="Grupo_5968">
			<g id="Grupo_5775">
				<path id="Trazado_2615" class="st0" d="M9,16.3l0.1-0.1c2.1-2.1,4.2-4.2,6.3-6.3c1.7-1.7,1.8-4.5,0.1-6.2c0,0,0,0,0,0
					c-0.6-0.6-1.2-1-2-1.2c-1.5-0.4-3.1,0-4.2,1.2C8.1,4.9,6.8,6.2,5.6,7.4C5.4,7.6,5.3,7.6,5.1,7.6C4.8,7.5,4.6,7.3,4.7,7
					c0,0,0,0,0,0c0-0.1,0-0.2,0.1-0.2l0.1-0.1c1.3-1.3,2.6-2.7,4-3.9c2.1-2,5.5-1.9,7.5,0.2c0.7,0.7,1.2,1.7,1.4,2.7
					c0.4,1.8-0.2,3.6-1.5,4.9c-2,2-4,4-6,6l-0.8,0.8c-0.3,0.3-0.5,0.3-0.8,0l-6.8-6.8c-2-2-2.1-5.2-0.3-7.3c1.1-1.4,2.9-2.1,4.7-1.8
					l0,0c0.3,0.1,0.5,0.3,0.5,0.5c0,0.3-0.3,0.5-0.6,0.4c0,0,0,0,0,0l0,0c-0.8-0.1-1.6,0-2.3,0.3c-1.4,0.6-2.4,2-2.5,3.5
					C1.1,7.5,1.6,8.8,2.5,9.8C4.7,12,6.8,14.1,9,16.3L9,16.3z"/>
			</g>
		</g>
	</g>
</g>
</svg>
