<svg xmlns="http://www.w3.org/2000/svg" viewBox="0 0 18 18"><title>www</title><g id="Capa_2" data-name="Capa 2"><g id="Capa_1-2" data-name="Capa 1"><rect width="18" height="18" fill="none"/><path d="M17.82,9a8.8,8.8,0,0,0-2.29-5.84.42.42,0,0,0-.12-.26A8.89,8.89,0,0,0,9.13.26H9A8.7,8.7,0,0,0,2.67,2.94,8.76,8.76,0,0,0,.19,9.34a8.91,8.91,0,0,0,8.58,8.54h.36a8.74,8.74,0,0,0,6.18-2.53l.1-.1a.45.45,0,0,0,.12-.27,8.69,8.69,0,0,0,2.26-5.44.53.53,0,0,0,0-.12s0,0,0-.07,0-.2,0-.3Zm-2.9,5.29a11.47,11.47,0,0,0-2.06-1,15.9,15.9,0,0,0,.49-3.41h3.5A7.86,7.86,0,0,1,14.92,14.28ZM1.16,9.88H4.9a15.9,15.9,0,0,0,.49,3.41A11.38,11.38,0,0,0,3.2,14.36,7.83,7.83,0,0,1,1.16,9.88Zm13.1-6.7a9.55,9.55,0,0,1-1.66.76,7.79,7.79,0,0,0-1.26-2.41A7.82,7.82,0,0,1,14.26,3.18ZM7,1.51A7.85,7.85,0,0,0,5.69,3.93,9.39,9.39,0,0,1,4,3.14,7.79,7.79,0,0,1,7,1.51ZM9.1,1.18h.08c1,0,1.91,1.16,2.55,3a9.91,9.91,0,0,1-2.55.33s0,0,0,0a10.15,10.15,0,0,1-2.58-.34C7.2,2.33,8.17,1.2,9.1,1.18Zm0,4.3h.06A11,11,0,0,0,12,5.11,16.32,16.32,0,0,1,12.45,9H5.8A16.81,16.81,0,0,1,6.28,5.1,10.8,10.8,0,0,0,9.12,5.48Zm3.31,4.4A15,15,0,0,1,12,13a10.64,10.64,0,0,0-2.77-.37H9.07A11,11,0,0,0,6.26,13a15.73,15.73,0,0,1-.44-3.14Zm-3.31,7c-.95,0-1.94-1.12-2.59-3a9.78,9.78,0,0,1,2.54-.33h.14a9.61,9.61,0,0,1,2.51.33C11.07,15.8,10.08,16.92,9.12,16.92ZM7,16.67A7.89,7.89,0,0,1,3.91,15a10.65,10.65,0,0,1,1.75-.81A7.92,7.92,0,0,0,7,16.67Zm4.34-.07a7.9,7.9,0,0,0,1.27-2.41,9.55,9.55,0,0,1,1.66.76A7.7,7.7,0,0,1,11.32,16.6Zm2-7.64a17.35,17.35,0,0,0-.5-4.12,10.53,10.53,0,0,0,2.06-1,7.85,7.85,0,0,1,2,5.11ZM3.19,3.74A11.15,11.15,0,0,0,5.41,4.83,17.38,17.38,0,0,0,4.88,9H1.12A7.79,7.79,0,0,1,3.19,3.74Z" fill="#074588"/></g></g></svg>