<svg xmlns="http://www.w3.org/2000/svg" viewBox="0 0 28 28"><title>Convenios</title><g id="Capa_2" data-name="Capa 2"><g id="Capa_3" data-name="Capa 3"><rect width="28" height="28" fill="none"/><path id="Trazado_2849" data-name="Trazado 2849" d="M22.85,19.44a2,2,0,0,1,0,2.48,3,3,0,0,1-1.17.59h-.29a1.1,1.1,0,0,1-.14.73,1.6,1.6,0,0,1-1.61,1c-.29,0-.43.14-.58.43a1.58,1.58,0,0,1-1.17,1.17,1.64,1.64,0,0,1-1.17-.15c-.15,0-.29-.14-.43-.29,0,.15-.15.15-.15.29a1.69,1.69,0,0,1-2.31.56l-.17-.12c-.15-.15-.29-.29-.43-.29s-.15.29-.29.29a.55.55,0,0,1-.44.14,1.17,1.17,0,0,1-1.2-1.14,1.06,1.06,0,0,1,0-.31,1.07,1.07,0,0,1-1.44.41l-.17-.12a1.18,1.18,0,0,1-.61-1.56l0-.05a1.31,1.31,0,0,1-1.61,0c-.58-.14-.73-.58-.58-1.31A1.37,1.37,0,0,1,5,21.93a1.34,1.34,0,0,1-.26-.6,1.27,1.27,0,0,1,.29-1c.29-.29.44-.58.73-.87-.29-.29-.58-.73-.87-1a.26.26,0,0,1,0-.38l0-.06c.14-.29.29-.43.43-.72a5.61,5.61,0,0,1,1.16,1.45,1.37,1.37,0,0,1,1.75.3c.44.29.44.87,0,1.45a1.58,1.58,0,0,1,1.61.15,1.41,1.41,0,0,1,.43,1.46,1.14,1.14,0,0,1,1.6.14,1.32,1.32,0,0,1,.44,1.46A1.14,1.14,0,0,1,13.8,24a1.44,1.44,0,0,1,.14,1.32.94.94,0,0,0,1.31.14c.15,0,.15-.14.3-.29s.14-.29-.15-.43a10.56,10.56,0,0,1-2-1.61.35.35,0,0,1-.22-.46.37.37,0,0,1,.07-.12c.15-.15.43-.29.59,0,1,.73,2.18,1.46,3.2,2.33.59.44,1,.15,1.32-.43a.54.54,0,0,0-.25-.71l0,0c-1.17-.87-2.34-1.6-3.5-2.48a.32.32,0,0,1-.3-.29.56.56,0,0,1,.15-.43.43.43,0,0,1,.58,0c.59.43,1.32.87,1.9,1.31.73.58,1.46,1,2.19,1.6a1.21,1.21,0,0,0,1,0,.69.69,0,0,0,.29-.87.31.31,0,0,0-.29-.29c-1.17-.88-2.33-1.75-3.65-2.63-.29-.14-.58-.43-.87-.58l-.15-.15c-.29-.14-.29-.43-.15-.73a.65.65,0,0,1,.73,0,7.78,7.78,0,0,1,1.17.88c1.17.87,2.33,1.75,3.65,2.62a.93.93,0,0,0,1.31-.29h0A.9.9,0,0,0,22,20.18c-2-1.89-4.22-3.64-6.27-5.54a3.39,3.39,0,0,0-.58-.73A1.52,1.52,0,0,0,13,13.83a2.2,2.2,0,0,0-.2.23c-.14.29-.14.43-.29.73a2.69,2.69,0,0,1-1.89,2,3.29,3.29,0,0,1-1.17,0,.65.65,0,0,1-.58-.43c0-.15-.15-.44,0-.44a4.27,4.27,0,0,0,.43-2.33,2.15,2.15,0,0,1,.29-1c.15-.29.29-.43.44-.73H8c.15-.43.29-.73.44-1.17h3.5a7.46,7.46,0,0,1,1.6-.58h0V9.38c-.43-.15-.87-.15-1.31-.29a.83.83,0,0,1-.44-.73.63.63,0,0,1,.72-.49l.16,0a2.88,2.88,0,0,0,1.17.15c.58,0,1-.29,1-.58,0-.44-.29-.59-1.17-.88-1.17-.43-1.9-1-1.9-2a2.16,2.16,0,0,1,1.75-1.9V1.94a.92.92,0,0,1,.58-.15h.44v.73a2.25,2.25,0,0,1,1,.15A.79.79,0,0,1,16,3.4a.74.74,0,0,1-.73.58,2.08,2.08,0,0,0-1-.14c-.73,0-.87.29-.87.58s.43.58,1.31.88c1.31.43,1.75,1,1.75,2a2,2,0,0,1-1.9,1.89V10a6.24,6.24,0,0,1,1.61.15c.58.15,1.31.29,1.89.43a5.14,5.14,0,0,0,1.46.15c.15,0,.29,0,.29.14,1,2.34,2.19,4.53,3.36,6.86V18l-.43.88C22.7,19.15,22.7,19.3,22.85,19.44Zm4.08-3.21c-.73-1.45-1.45-2.91-2-4.37-.58-1.17-1-2.33-1.6-3.36-.15-.29-.29-.29-.59-.29a.43.43,0,0,0-.29.15c-.43.29-1,.43-1.46.72s-.43.44-.29.88c1.32,2.62,2.48,5.25,3.79,7.88.15.43.44.58.88.29s1-.44,1.46-.73A1.15,1.15,0,0,0,26.93,16.23ZM7.53,9.67c.15-.29,0-.58-.29-.87s-1-.44-1.45-.73H5.35c-.29,0-.43.14-.58.43-1.17,2.63-2.48,5.25-3.65,7.88a.45.45,0,0,0,.29.73,6.87,6.87,0,0,0,1.46.73c.43.14.58,0,.87-.29.44-.73.73-1.61,1.17-2.34C5.78,13.32,6.66,11.57,7.53,9.67Z" fill="#09843B"/></g></g></svg>