<svg xmlns="http://www.w3.org/2000/svg" viewBox="0 0 28 28"><title>Cartas</title><g id="Capa_2" data-name="Capa 2"><g id="Capa_3" data-name="Capa 3"><rect width="28" height="28" fill="none"/><path d="M26.34,12V4.11A3.84,3.84,0,0,0,23.43.17l-.05,0c-.11,0-.22,0-.33-.06A3.86,3.86,0,0,0,22.56,0H10.06A4,4,0,0,0,6.38,3.26h-1a4,4,0,0,0-3.7,4.2V23.73A4.06,4.06,0,0,0,5.44,28h12.4a4,4,0,0,0,3.7-4.15h0v-.19h1.07a4,4,0,0,0,3.72-4.05V12Zm-6.8,11.85A2,2,0,0,1,17.76,26H5.52a2.05,2.05,0,0,1-1.86-2.21V7.4A2,2,0,0,1,5.44,5.25h.9V12h0v7.56A3.88,3.88,0,0,0,9.25,23.5l.05,0c.11,0,.22,0,.33.06s.32.07.49.09h9.42Zm3-2.19H10.22a1.47,1.47,0,0,1-.29-.05,2.06,2.06,0,0,1-1.59-2.16V4.06a2,2,0,0,1,1.8-2H22.46l.28,0a2.07,2.07,0,0,1,1.6,2.17V19.61A2,2,0,0,1,22.54,21.66ZM12.34,14h8v1h-8Zm0-3h8v1h-8Zm0-3h8V9h-8Zm0-3h8V6h-8Z" fill="#09843B"/></g></g></svg>