<svg xmlns="http://www.w3.org/2000/svg" viewBox="0 0 28 28"><title>Cobros</title><g id="Capa_2" data-name="Capa 2"><g id="Capa_3" data-name="Capa 3"><rect width="28" height="28" fill="none"/><path d="M14.27,22.64v1a.85.85,0,1,1-1.7,0v-.86a9.24,9.24,0,0,1-2-.32.85.85,0,0,1-.7-1,.7.7,0,0,1,.06-.19,1,1,0,0,1,1.17-.67l.11,0a4.83,4.83,0,0,0,1.81.32c.95,0,1.59-.42,1.59-1.06s-.53-1.07-1.81-1.39c-1.81-.63-3-1.38-3-3s1.07-2.55,2.77-3V11.46a.85.85,0,1,1,1.7,0v.95a6.64,6.64,0,0,1,1.6.22.91.91,0,0,1,.65,1.12s0,0,0,.05a.85.85,0,0,1-1,.69l-.18-.05a5.42,5.42,0,0,0-1.49-.21c-1.07,0-1.39.42-1.39.95s.54.86,2,1.39c2,.74,2.76,1.6,2.76,3.09A3.38,3.38,0,0,1,14.27,22.64ZM25,20.87a7.11,7.11,0,0,1-3.63,5.07c-1.76,1-3.74,1-6.26,1H12c-2.51-.05-4.5-.08-6.27-1.05a7.11,7.11,0,0,1-3.62-5.05,9.18,9.18,0,0,1,1.34-5.94,16.21,16.21,0,0,1,3.15-3.43C7.64,10.57,8.74,9.59,8.74,9H9.8c0,1.06-1.1,1.95-2.51,3.14a15,15,0,0,0-2.95,3,7.35,7.35,0,0,0-1.19,5,5.8,5.8,0,0,0,3.06,4c1.55.8,3.33.83,5.79.88h.53c.67,0,1.33,0,2,0h.52c2.46-.05,4.24-.08,5.79-.87a5.83,5.83,0,0,0,3.07-4.05,7.36,7.36,0,0,0-1.19-5,14.44,14.44,0,0,0-3-3C18.36,11,17.25,10.06,17.25,9h1.07c0,.59,1.09,1.57,2.15,2.51A15.88,15.88,0,0,1,23.63,15,9.08,9.08,0,0,1,25,20.87ZM6.74,3.87c-.28-.49-.61-1.12-.11-1.73a1.51,1.51,0,0,1,1.55-.41,18.3,18.3,0,0,0,4.09.7,1.63,1.63,0,0,1,1.42-.77h5.82v0a1.45,1.45,0,0,1,.9.43,1.38,1.38,0,0,1,0,1.67,6,6,0,0,1-.7.73,5.05,5.05,0,0,0-1.28,1.53,1.26,1.26,0,0,1,1,1.22,1.29,1.29,0,0,1-1.28,1.32H9.18A1.28,1.28,0,0,1,7.9,7.31a1.33,1.33,0,0,1,.78-1.22A5,5,0,0,0,7.39,4.52,6.59,6.59,0,0,1,6.74,3.87Zm.81-.54c.08.09.28.27.51.48A5,5,0,0,1,9.67,6h7.71A5.07,5.07,0,0,1,19,3.81a5.88,5.88,0,0,0,.56-.56c.16-.32.18-.41.11-.48a.56.56,0,0,0-.52-.11,17.4,17.4,0,0,1-5.63.79h-.16a18.6,18.6,0,0,1-5.48-.79.5.5,0,0,0-.51.12C7.32,2.84,7.35,3,7.55,3.33Z" fill="#09843B"/></g></g></svg>