<svg xmlns="http://www.w3.org/2000/svg" viewBox="0 0 28 28"><title>SaldoAFavor</title><g id="Capa_2" data-name="Capa 2"><g id="Capa_3" data-name="Capa 3"><rect width="28" height="28" fill="none"/><path id="Trazado_2731" data-name="Trazado 2731" d="M13.75,1.32A10.79,10.79,0,0,0,3.91,16.25a10.47,10.47,0,0,0,9.84,6.54h0a1.63,1.63,0,0,1,1.4,2.46l-.58,1a.24.24,0,0,0,.32.33c2.46-1.41,10.19-6.43,10.19-14.12A11.55,11.55,0,0,0,13.75,1.32Zm1,15.31v1a.8.8,0,1,1-1.6,0v-1a5.93,5.93,0,0,1-2-.4c-.4,0-.6-.4-.6-1a.84.84,0,0,1,1-.68,1,1,0,0,1,.23.08,5.63,5.63,0,0,0,1.78.2c1,0,1.6-.4,1.6-1s-.6-1-1.79-1.39c-1.59-.4-2.79-1.19-2.79-2.78,0-1.4,1-2.39,2.59-2.79v-1a.8.8,0,0,1,1.6,0v.8c.6,0,1,.2,1.39.2A.9.9,0,0,1,16.77,8s0,.08,0,.12a.67.67,0,0,1-.66.68.73.73,0,0,1-.33-.08c-.4,0-.8-.2-1.4-.2-1,0-1.39.4-1.39,1s.6.8,2,1.39c1.79.6,2.58,1.59,2.58,3C17.52,15,16.53,16.23,14.74,16.63Z" fill="#09843B"/></g></g></svg>