<svg xmlns="http://www.w3.org/2000/svg" viewBox="0 0 28 28"><title>Observ</title><g id="Capa_2" data-name="Capa 2"><g id="Capa_3" data-name="Capa 3"><rect width="28" height="28" fill="none"/><path id="Trazado_2781" data-name="Trazado 2781" d="M21.42,2.92H6.64A2.42,2.42,0,0,0,4.2,5.32V19a2.42,2.42,0,0,0,2.4,2.44H18.91c4.41,0,4.95,3.66,4.95,3.66s0-4.72,0-6V5.36a2.42,2.42,0,0,0-2.4-2.44ZM9.59,16.49v-.88c2.36,0,3.51-3.51,1.76-3.51a1.83,1.83,0,0,1,0-3.66C15.41,8.51,13.78,16.49,9.59,16.49Zm5.07,0v-.88c2.37,0,3.52-3.51,1.76-3.51a1.83,1.83,0,0,1,0-3.66c4.06.07,2.43,8-1.76,8Z" fill="#09843B"/></g></g></svg>