<svg xmlns="http://www.w3.org/2000/svg" viewBox="0 0 28 28"><title>Supercliente</title><g id="Capa_2" data-name="Capa 2"><g id="Capa_3" data-name="Capa 3"><rect width="28" height="28" fill="none"/><path id="Trazado_2736" data-name="Trazado 2736" d="M7.55,7.89A5.46,5.46,0,0,1,13,2.44a5.4,5.4,0,0,1,5.46,5.34v.11a5.46,5.46,0,1,1-10.91,0Zm8,15.71-1.42-1.42a2.65,2.65,0,0,1-.65-2.51,2.49,2.49,0,0,1,2-1.63l2.07-.33.11-.22a19.55,19.55,0,0,0-4.69-.76c-3.6,0-10.8,2-10.8,5.56v1.85H15.4Zm5-7.53a.84.84,0,0,0-.77.44l-1.09,2.18a.74.74,0,0,1-.65.44l-2.51.32a.81.81,0,0,0-.44,1.42l1.75,1.75a.67.67,0,0,1,.22.76l-.44,2.4a.83.83,0,0,0,.63,1h.13a.38.38,0,0,0,.33-.11l2.18-1.2a.57.57,0,0,1,.66,0l2.18,1.2a.38.38,0,0,0,.33.11.82.82,0,0,0,.78-.85.59.59,0,0,0,0-.13l.11-2.4a1,1,0,0,1,.22-.76l1.74-1.75a.85.85,0,0,0-.05-1.21.89.89,0,0,0-.38-.21l-2.51-.32a.91.91,0,0,1-.66-.44l-1.09-2.18c0-.22-.32-.44-.65-.44" fill="#09843B"/></g></g></svg>