<svg xmlns="http://www.w3.org/2000/svg" viewBox="0 0 28 28"><title>AutoDebito</title><g id="Capa_2" data-name="Capa 2"><g id="Capa_3" data-name="Capa 3"><rect width="28" height="28" fill="none"/><path d="M26.51,22.05a5.54,5.54,0,0,1-9.23,2.35,5.57,5.57,0,0,1-.11-7.88l0,0a5.59,5.59,0,0,1,7.59-.26l.5-.5a.53.53,0,0,1,.9.35l.18,3.21-3.21-.18a.53.53,0,0,1-.35-.9l.67-.66a3.7,3.7,0,0,0-5.09,5.31,3.65,3.65,0,0,0,2.67,1.3,3.73,3.73,0,0,0,2.76-1.07,3.65,3.65,0,0,0,.94-1.58.92.92,0,0,1,.9-.66.89.89,0,0,1,.71.37A1,1,0,0,1,26.51,22.05ZM14.43,20.34a12.28,12.28,0,0,0,.3,2.26H4a2.32,2.32,0,0,1-2.26-2.26V6.76A2.32,2.32,0,0,1,4,4.5h18.1a2.32,2.32,0,0,1,2.26,2.26v6.79H4v6.79ZM4,9h18.1V6.76H4Z" fill="#09843B"/></g></g></svg>