<svg xmlns="http://www.w3.org/2000/svg" viewBox="0 0 28 28"><title>DocsNoAdeudo</title><g id="Capa_2" data-name="Capa 2"><g id="Capa_3" data-name="Capa 3"><rect width="28" height="28" fill="none"/><rect x="9.13" y="13.08" width="8" height="1" fill="#09843B"/><polygon points="9.13 17.08 13.2 17.08 14.13 16.08 9.13 16.08 9.13 17.08" fill="#09843B"/><path d="M7,24.08a2.07,2.07,0,0,1-1.88-2.22V6.13a2,2,0,0,1,1.8-2H19.25a2,2,0,0,1,1.88,2.11v6.89l2,1V6.18a4,4,0,0,0-3.8-4.11H6.85A4,4,0,0,0,3.13,6.13V21.81a4,4,0,0,0,3.78,4.27h7.22l-1-2Z" fill="#09843B"/><rect x="9.13" y="7.08" width="8" height="1" fill="#09843B"/><path d="M20.14,15.33H20a6,6,0,0,0-5.9,5.9,5.9,5.9,0,1,0,6-5.9Zm3,4.45-3.93,3.94a.75.75,0,0,1-1,0l-1.88-1.8h0a.7.7,0,0,1,1-1h0l.78.78a.74.74,0,0,0,1.05,0l3-3a.74.74,0,1,1,1.05,1.05Z" fill="#09843B"/><rect x="9.13" y="10.08" width="8" height="1" fill="#09843B"/></g></g></svg>