<svg xmlns="http://www.w3.org/2000/svg" viewBox="0 0 28 28"><title>VentasOC</title><g id="Capa_2" data-name="Capa 2"><g id="Capa_3" data-name="Capa 3"><rect width="28" height="28" fill="none"/><g id="Grupo_6099" data-name="Grupo 6099"><path id="Trazado_2780" data-name="Trazado 2780" d="M5,17.58V25a.64.64,0,0,1-.6.5H3.8a.63.63,0,0,1-.6-.5v-7.4c0-.2.3-.4.6-.4h.6C4.7,17.28,5,17.38,5,17.58Zm5.8-4.4h-.6a.65.65,0,0,0-.6.6v11.3a.54.54,0,0,0,.6.5h.6a.55.55,0,0,0,.6-.5V13.68A.56.56,0,0,0,10.8,13.18Zm6.4,3.5h-.6c-.3,0-.6.2-.6.4v8a.63.63,0,0,0,.6.5h.6a.64.64,0,0,0,.6-.5v-8C17.8,16.88,17.5,16.68,17.2,16.68Zm5.8-5.3h-.6a.56.56,0,0,0-.6.5V25a.54.54,0,0,0,.6.5H23a.55.55,0,0,0,.6-.5V11.88A.57.57,0,0,0,23,11.38Zm-2.2-5.7,1.1,1L16.6,12l-5-5.1a1.61,1.61,0,0,0-.7-.2c-.2-.1-.4,0-.6.2l-7.9,7.3a.75.75,0,0,0-.15,1.05.54.54,0,0,0,.15.15.82.82,0,0,0,.6.3.71.71,0,0,0,.6-.2l7.3-6.6,5.1,5.2c.2.2.4.4.6.4h0a.81.81,0,0,0,.6-.4l5.9-6,1.1,1.1,1.9-5.5Z" fill="#09843B"/></g></g></g></svg>