<svg xmlns="http://www.w3.org/2000/svg" viewBox="0 0 28.03 28"><title>CambioMedidar</title><g id="Capa_2" data-name="Capa 2"><g id="Capa_3" data-name="Capa 3"><rect width="28" height="28" fill="none"/><path id="Trazado_2774" data-name="Trazado 2774" d="M14.54,8.69c.22,1.19.33,2.28.54,3.48,0,.11.11.22.22.33A1.91,1.91,0,0,1,16,14.45a1.75,1.75,0,0,1-1.63,1.2,1.63,1.63,0,0,1-1.63-1.2,1.76,1.76,0,0,1,.65-1.95.56.56,0,0,0,.22-.44A12.23,12.23,0,0,0,14,7.6c0-.22-.11-.65.32-.65s.33.32.33.65v1ZM9,9.23a.68.68,0,0,0,.11.44l1.63,1.63c.11.11.33,0,.44.11V11c-.55-.65-1.09-1.19-1.63-1.74-.11,0-.22-.11-.33-.11Zm7.07,1.09a.78.78,0,0,0,.43-.22,13.62,13.62,0,0,0,.77-1.95c0-.11,0-.44-.11-.44s-.33,0-.43.22l-.66,1.63c-.11.11-.11.33-.21.54,0,0,.1.22.21.22Zm-5.87,2.39a1.21,1.21,0,0,0-.11-.32,19.08,19.08,0,0,0-2.28-.87c-.11,0-.22.11-.44.22.11.1.11.32.22.32.65.33,1.3.55,2.06.87h.22C10,12.93,10.08,12.82,10.19,12.71ZM11.28,8c.32.76.54,1.41.87,2.17,0,.11.32.11.43.11s.11-.32.11-.43a15.63,15.63,0,0,0-.87-2.07c0-.11-.11-.11-.22-.22S11.17,7.82,11.28,8Zm7.29,4.35c-.11,0-.11.33-.11.33s.22.22.32.11c.77-.33,1.42-.55,2.18-.87.11,0,.11-.22.11-.33s-.11-.11-.33-.22C20.09,11.74,19.33,12.06,18.57,12.39Zm1-3.26h-.33l-1.63,1.63c-.11.11,0,.32,0,.43.21,0,.32,0,.43-.11.54-.43,1-1,1.52-1.41.11-.11.11-.22.22-.33a.25.25,0,0,1-.22-.22ZM16.5,21.75a7,7,0,0,1-2.18.32,8.28,8.28,0,0,1-8.16-8.16,8.05,8.05,0,0,1,8.06-8h.1a8.22,8.22,0,0,1,7.73,5.77,6.6,6.6,0,0,1,4.46,1.85V9.34h-.44a8.06,8.06,0,0,1-4.89-2.17A9.66,9.66,0,0,0,15,4.34,8.42,8.42,0,0,0,7.8,6.62,9.13,9.13,0,0,1,3.44,9c-.43.1-1,.21-1.41.32v8.81c0,.33.11.44.44.44a8.89,8.89,0,0,1,5.11,2.28A10.06,10.06,0,0,0,12,23.38a9.45,9.45,0,0,0,5.76-.22,4,4,0,0,1-1.3-1.42Zm1.2-3.37a4.56,4.56,0,0,0,4.46,4.56,4,4,0,0,0,2.71-1l-.76-.87a3.06,3.06,0,0,1-1.95.65,3.38,3.38,0,1,1,3.37-3.48H24l2.07,2.28,2-2.29h-1.3a4.64,4.64,0,0,0-4.46-4.46,4.53,4.53,0,0,0-4.57,4.49v.08Z" fill="#09843B"/></g></g></svg>