<svg xmlns="http://www.w3.org/2000/svg" viewBox="0 0 28 28"><title>Documentos</title><g id="Capa_2" data-name="Capa 2"><g id="Capa_3" data-name="Capa 3"><rect width="28" height="28" fill="none"/><path id="Trazado_2751" data-name="Trazado 2751" d="M23,8.15a1.27,1.27,0,0,0-1.24-1.29H6.32A1.27,1.27,0,0,0,5,8.09V9.44H23ZM19.15,4.28H8.9A1.26,1.26,0,0,0,7.61,5.52v.05H20.44A1.28,1.28,0,0,0,19.2,4.28Zm6.42,5.16-.75-.78v2.06H3.25V8.66l-.74.78c-.75.77-1.32,1-1,2.57s1.77,10.41,2,11.59a1.57,1.57,0,0,0,1.57,1.29H23a1.57,1.57,0,0,0,1.57-1.29c.21-1.18,1.7-10,2-11.59s-.26-1.8-1-2.57Zm-6.42,7a1.26,1.26,0,0,1-1.23,1.29H10.19A1.26,1.26,0,0,1,8.9,16.44v-.83a1.8,1.8,0,0,1,1.8-1.8h0v2.07h6.67V13.81h0a1.81,1.81,0,0,1,1.8,1.8v.78Z" fill="#09843B"/></g></g></svg>