<svg xmlns="http://www.w3.org/2000/svg" viewBox="0 0 28 28"><title>Beneficios</title><g id="Capa_2" data-name="Capa 2"><g id="Capa_3" data-name="Capa 3"><rect width="28" height="28" fill="none"/><path d="M24.07,7.7H21.31a4.55,4.55,0,0,0,.25-1.26,3.69,3.69,0,0,0-3.63-3.76h-.14a3.55,3.55,0,0,0-3.13,1.63L14,5.19l-.63-.88a3.58,3.58,0,0,0-3.14-1.63A3.69,3.69,0,0,0,6.5,6.31v.13A4.21,4.21,0,0,0,6.75,7.7H4a2.52,2.52,0,0,0-2.52,2.51V24A2.53,2.53,0,0,0,4,26.53H24.07A2.53,2.53,0,0,0,26.59,24V10.21A2.52,2.52,0,0,0,24.07,7.7ZM16.54,6.3h0a1.17,1.17,0,0,1,1.09-1.11.33.33,0,0,1,.14,0A1.19,1.19,0,0,1,19.05,6.3v.14A1.25,1.25,0,0,1,17.79,7.7H16.54ZM9,6.44a1.18,1.18,0,0,1,1.11-1.25.33.33,0,0,1,.14,0A1.19,1.19,0,0,1,11.52,6.3V7.7H10.26A1.18,1.18,0,0,1,9,6.59.38.38,0,0,1,9,6.44ZM24.07,24H4V21.51H24.07ZM4,17.74V10.21h6.74a8.68,8.68,0,0,1-3,3.51c-1.9,1.1-.54,3,2,1.51S14,9.45,14,9.45s1.09,3.93,4.27,5.78c2.07,1.21,3.76-.48,2-1.51-2.74-1.6-3.2-3.51-3.2-3.51h7v7.53Z" fill="#09843B"/></g></g></svg>