<svg xmlns="http://www.w3.org/2000/svg" viewBox="0 0 28 28"><title>Suspensiones</title><g id="Capa_2" data-name="Capa 2"><g id="Capa_3" data-name="Capa 3"><rect width="28" height="28" fill="none"/><path id="Trazado_2733" data-name="Trazado 2733" d="M17.75,12.12c3.34-.5,5.34-.84,8.68-1.33.5,0,.67.16.67.66a3.56,3.56,0,0,1-2.84,2.84,14.45,14.45,0,0,1-2.84.5c-1.83.34-2.33.34-4.17.67C17.42,14.46,17.58,13.29,17.75,12.12Zm-.5-10.18c-.33,2.17-.67,4.34-1,6.34l-1,7a42.7,42.7,0,0,1-1.17,4.34c0,.17-.17.33-.17.5a3.45,3.45,0,0,1,2,.84,3.17,3.17,0,0,1,.19,4.48l0,0c-1.34,1.33-2.5,1.5-4.51.5l-.67-.67a3.56,3.56,0,0,1,0-3.84,2.18,2.18,0,0,0,.5-.67,6.42,6.42,0,0,0,.5-4.67c-.5,0-1-.16-1.67-.16a8,8,0,0,0-4,1.16,4.28,4.28,0,0,1-4-.16,2.55,2.55,0,0,1-.5-.67A.54.54,0,0,0,1.56,16a3.06,3.06,0,0,1,.51-3.85,3.28,3.28,0,0,1,4-.5,3,3,0,0,1,1.67,2.5h.33a24.34,24.34,0,0,1,3.67-.83c.34-.34.34-.34.34-.67.5-2.67.83-5.18,1.33-7.68a4.62,4.62,0,0,1,1.67-3,6.31,6.31,0,0,1,1.5-.67C17.25,1.11,17.42,1.44,17.25,1.94ZM5.74,13.29a1.82,1.82,0,0,0-2.51,0,1.43,1.43,0,0,0-.16,2l.16.16a1.82,1.82,0,0,0,2.51,0A1.57,1.57,0,0,0,5.74,13.29Zm9,9a1.43,1.43,0,0,0-2-.16,1.21,1.21,0,0,0-.16.16,1.81,1.81,0,0,0,0,2.5,1.55,1.55,0,0,0,2.17,0,1.81,1.81,0,0,0,0-2.5Zm-.84-8.51a.76.76,0,0,0-.84,0c-.17.17-.17.5.17.84a.74.74,0,0,0,.83,0c.18-.34.18-.67-.16-.84Z" fill="#09843B"/></g></g></svg>