<svg xmlns="http://www.w3.org/2000/svg" viewBox="0 0 28 28"><title>Fraudes</title><g id="Capa_2" data-name="Capa 2"><g id="Capa_3" data-name="Capa 3"><rect width="28" height="28" fill="none"/><path d="M24,13.86a2.19,2.19,0,0,0-.51-.72,4,4,0,0,1-.71-1l-.06-.08a2.11,2.11,0,0,0,0-.25,1.36,1.36,0,0,0,.21-.32,4.1,4.1,0,0,0,.21-1c0-.16.05-.31.07-.44a2.87,2.87,0,0,0,.09-.46,7.34,7.34,0,0,0,.08-1.06,2.78,2.78,0,0,0-.25-1,8.35,8.35,0,0,0-.42-1,7.8,7.8,0,0,0-1.2-1.7,3.55,3.55,0,0,0-3.24-1.27L18,3.29l-.65-1.14L17.33,2h0a2.2,2.2,0,0,0-.68-.73,1.87,1.87,0,0,0-1.07-.21l-1.16.06a17.15,17.15,0,0,0-2.33.32A9.46,9.46,0,0,0,7.68,3.61,8.81,8.81,0,0,0,5.06,7.79a2.54,2.54,0,0,0-.16.6c0,.21,0,.43,0,.63,0,.43.1.82.13,1.15a8.16,8.16,0,0,0,.17,1.21,1.66,1.66,0,0,0,.19.43c0,.12,0,.24,0,.37s-.24.32-.35.47l-.32.47a2.31,2.31,0,0,0-.19,3.25,2.14,2.14,0,0,0,.78.56,2.37,2.37,0,0,1,1.16,1.52A37,37,0,0,0,8,22.11a6.79,6.79,0,0,0,4,3.49,6.63,6.63,0,0,0,2.24.38,6.86,6.86,0,0,0,3-.71,7,7,0,0,0,2.45-2,15.55,15.55,0,0,0,1.95-4.22l.14-.37a3.73,3.73,0,0,0,.18-.52,1.37,1.37,0,0,1,.92-1.11,2.43,2.43,0,0,0,1.24-1.36A2.33,2.33,0,0,0,24,13.86Zm-13.47-5a2.18,2.18,0,0,1,1.17-.59c.92-.06,1.89-.14,2.8-.13.46,0,.95.07,1.46.08a7.51,7.51,0,0,0,.8,0,3.3,3.3,0,0,0,.89-.25,2,2,0,0,0,.87-.71,2.07,2.07,0,0,0,.35-1.13,2.38,2.38,0,0,0,0-.49V5.53c3.53.39,3.4,5.5,3.46,5.7a1.83,1.83,0,0,1-.26.16,21.15,21.15,0,0,1-8.7,1.3,20.47,20.47,0,0,1-7.1-1.3.68.68,0,0,1-.31-.14C6,11,5.12,5.4,12.5,3.43a11.6,11.6,0,0,1,2.07-.27l1.06-.06h0l0,0,.68,1.19a5.2,5.2,0,0,0,.48.72l.1.11c0,.1,0,.21,0,.31l0,.23a1.88,1.88,0,0,0,.05.22,2,2,0,0,1,.06.23c0,.24.08.25-.17.47a1.63,1.63,0,0,1-.46.22L15.83,7c-.44.07-.92.11-1.41.17-1,.16-1.92.41-2.89.65a2.61,2.61,0,0,0-1.23.9s-.12.12,0,.21S10.49,8.87,10.49,8.87Zm8.51,6A1.28,1.28,0,0,1,17.8,16a1.22,1.22,0,0,1-1.3-1.1,1.39,1.39,0,0,1,1.3-1.1A1.21,1.21,0,0,1,19,14.89Zm-7.3,0a1.11,1.11,0,0,1-1.18,1l-.12,0c-.7,0-1.3-.6-1.2-1.1a1.31,1.31,0,0,1,1.3-1A1.21,1.21,0,0,1,11.7,14.89Zm11.41.46a1.41,1.41,0,0,1-.68.77,2.31,2.31,0,0,0-1.51,1.81c0,.14-.09.26-.13.37s-.11.27-.17.45a14.74,14.74,0,0,1-1.82,3.94,6,6,0,0,1-2.07,1.69,5.9,5.9,0,0,1-7.88-2.69c-.51-1.15-1-2.35-1.37-3.52A3.34,3.34,0,0,0,5.79,16a1.15,1.15,0,0,1-.46-.33,1.34,1.34,0,0,1,.17-1.91l.1-.14a17,17,0,0,0,1.7,2.74A3,3,0,0,0,9.8,18a3.08,3.08,0,0,0,2.8-1.2,1.71,1.71,0,0,1,2.3-.7,1.75,1.75,0,0,1,.7.7A3,3,0,0,0,18.4,18a3,3,0,0,0,2.5-1.6,25,25,0,0,0,1.71-2.7l.15.17a1.6,1.6,0,0,1,.3.42A1.37,1.37,0,0,1,23.11,15.35Z" fill="#09843B"/><path d="M21.43,4.81l0,0,0,0Z" fill="#09843B"/></g></g></svg>