<svg xmlns="http://www.w3.org/2000/svg" viewBox="0 0 28 28"><title>ReConex</title><g id="Capa_2" data-name="Capa 2"><g id="Capa_3" data-name="Capa 3"><rect width="28" height="28" fill="none"/><path d="M11.22,20.55l-1.05.6a4.1,4.1,0,0,1-1.76,4.6l-.2.12a4.05,4.05,0,0,1-5.48-1.61l-.09-.16a4.07,4.07,0,0,1,1.58-5.53,4.09,4.09,0,0,1,4.87.54l1-.61A5.24,5.24,0,0,0,11.22,20.55Zm2.59-4.2a6.07,6.07,0,0,0,1.08,2l1.1-.62c.14-.14.14-.14.27,0l.82.4A3.75,3.75,0,0,0,19.51,18a3.3,3.3,0,0,0,1.35-4.46c-.08-.14-.17-.28-.26-.41a3.1,3.1,0,0,0-3.66-.95,3.26,3.26,0,0,0-1.89,3.25c0,.13,0,.13-.14.27S14.35,16,13.81,16.35Zm13.16-1c-.12.19-2.59,3.32-2.59,3.32l-2.56-3.26c-.23-.29-.19-.53.2-.53h1.55A5.64,5.64,0,0,0,18,9.51,5.55,5.55,0,1,0,18,20.6a5.19,5.19,0,0,0,2.67-.69.89.89,0,0,1,1.1.19.91.91,0,0,1-.22,1.39,7.61,7.61,0,0,1-3.68,1,7.5,7.5,0,0,1-7.44-7.44,7.62,7.62,0,0,1,1.3-4c-.38-.25-.72-.49-1.44-1a4.64,4.64,0,0,1-1.08.67,5.13,5.13,0,0,1-1.11.41A4.93,4.93,0,0,1,2.19,7.48,4.9,4.9,0,0,1,4.35,2.06a5.17,5.17,0,0,1,1.18-.52,4.94,4.94,0,0,1,6.13,3.37,5.55,5.55,0,0,1,0,3c0,.14,0,.14.14.27.54.36,1.06.74,1.58,1.13A7.63,7.63,0,0,1,18,7.61a7.48,7.48,0,0,1,7.45,7.31h1.21C27.05,14.92,27.09,15.21,27,15.39ZM10.58,6.26A3.73,3.73,0,0,0,6.79,2.74,3.59,3.59,0,0,0,7.2,9.91,3.69,3.69,0,0,0,10.58,6.26Z" fill="#09843B"/></g></g></svg>