<svg xmlns="http://www.w3.org/2000/svg" viewBox="0 0 28 28"><title>CCobro</title><g id="Capa_2" data-name="Capa 2"><g id="Capa_3" data-name="Capa 3"><rect width="28" height="28" fill="none"/><path d="M14.27,26.26H7.05A4,4,0,0,1,3.27,22V6.31A4,4,0,0,1,7,2.26H19.47a3.94,3.94,0,0,1,3.8,4.11v7.89l-2-1V6.38a2,2,0,0,0-1.88-2.12H7.07a2,2,0,0,0-1.8,2.05V22.05a2.05,2.05,0,0,0,1.88,2.21h6.12Zm0-10h-5v1h4.06Zm3-3h-8v1h8Zm0-3h-8v1h8Zm0-3h-8v1h8Zm8.52,13.63A5.53,5.53,0,0,1,24,25.17,6.17,6.17,0,0,1,19.68,27a5.57,5.57,0,0,1-4.28-1.84,6.17,6.17,0,0,1-1.84-4.28,5.58,5.58,0,0,1,1.84-4.28,6.09,6.09,0,0,1,4.28-1.83A5.54,5.54,0,0,1,24,16.61,5.53,5.53,0,0,1,25.79,20.89ZM22.1,22.27c0-1-.49-1.52-1.8-2-1-.35-1.31-.55-1.31-.9s.2-.62.89-.62a3.5,3.5,0,0,1,1,.14.53.53,0,0,0,.12,0,.56.56,0,0,0,.64-.45v0a.59.59,0,0,0-.42-.73,4.57,4.57,0,0,0-1-.14V17a.56.56,0,0,0-1.11,0v.69a2.05,2.05,0,0,0-1.79,1.94c0,1,.76,1.52,1.93,1.93.83.21,1.18.49,1.18.9s-.42.69-1,.69a3.1,3.1,0,0,1-1.17-.2l-.07,0a.62.62,0,0,0-.76.44.56.56,0,0,0,0,.12.56.56,0,0,0,.45.64,7.3,7.3,0,0,0,1.31.21v.55a.56.56,0,0,0,1.11,0v-.62A2.21,2.21,0,0,0,22.1,22.27Z" fill="#09843B"/></g></g></svg>