<svg xmlns="http://www.w3.org/2000/svg" viewBox="0 0 28 28"><title>Catastro</title><g id="Capa_2" data-name="Capa 2"><g id="Capa_3" data-name="Capa 3"><rect width="28" height="28" fill="none"/><path id="Trazado_2848" data-name="Trazado 2848" d="M17.19,22.05a4.41,4.41,0,0,0,.56-1.13h1ZM12,24l-1.12-1.54L6.93,25Zm13.48-1.4-4.91,3.23,2.38.28c2.39-.56,3.66-1.26,3.66-2.25,0-.42-.43-.84-1.13-1.26Zm-4.91-1.4-6,3.79,3.93.56,5.62-3.51A12.58,12.58,0,0,0,20.56,21.21Zm-15.45.56C3,22.33,1.6,23,1.6,23.87c0,.56.7,1.13,1.82,1.69l5.34-3.37ZM11.43,27c.84,0,1.82.14,2.67.14h2.1V27L17,26.4l-3.65-.7ZM9,26.68l2.67-1.54-6.32,1A21.47,21.47,0,0,0,9,26.68Zm1.4-5.61-.56-.14h0c-.84.14-1.68.14-2.38.28l2.24.28Zm2.39,1.68c-1.4-2.11-3.79-6-3.79-9.27a4.92,4.92,0,0,1,9.83,0c0,3.23-2.25,7-3.79,9.27C14.8,23.59,13.53,23.59,12.83,22.75Zm1.27-6.88a2.25,2.25,0,0,0,0-4.5A2.28,2.28,0,0,0,12,13.62a2.1,2.1,0,0,0,2,2.24ZM24.77,7.44,15.22,2.11a2.64,2.64,0,0,0-1-.29,3.43,3.43,0,0,0-1.13.29l-1.68,1H6.65a2.15,2.15,0,0,0-2.1,2.1V6.88l-1.13.56a2,2,0,0,0-1,2.39,2.05,2.05,0,0,0,2,1.54h0v6.46a2.15,2.15,0,0,0,2.1,2.11h3L8.34,17.83H6.65V9.27H4.55L6.65,8V5.19H9.32V6.6l4.92-2.67,9.55,5.34H21.54v8.56H19.85l-1.12,2.11h2.95a2.16,2.16,0,0,0,2.11-2.11V11.37h.14A2.26,2.26,0,0,0,26,9.83C26.32,9,25.61,8,24.77,7.44Z" fill="#09843B"/></g></g></svg>