<svg xmlns="http://www.w3.org/2000/svg" viewBox="0 0 28 28"><title>Historico</title><g id="Capa_2" data-name="Capa 2"><g id="Capa_3" data-name="Capa 3"><rect width="28" height="28" fill="none"/><path id="Trazado_2738" data-name="Trazado 2738" d="M15.64,3.41A11,11,0,0,0,4.75,14.08H2.48a.43.43,0,0,0-.32.71l4.26,4.73,4.25-4.73a.42.42,0,0,0-.31-.71H7.53a8.12,8.12,0,1,1,8.11,8.56,7.92,7.92,0,0,1-3.9-1,1.37,1.37,0,0,0-1.65.26h0a1.38,1.38,0,0,0,.36,2.16,10.65,10.65,0,0,0,5.19,1.35,11,11,0,0,0,.09-22Zm-1,5v5.66a1.37,1.37,0,0,0,.4,1l3.6,3.6L20,17.3l-3-3a1.37,1.37,0,0,1-.4-1V8.41Z" fill="#09843B"/></g></g></svg>