<svg xmlns="http://www.w3.org/2000/svg" viewBox="0 0 28 28"><title>Reclamos</title><g id="Capa_2" data-name="Capa 2"><g id="Capa_3" data-name="Capa 3"><rect width="28" height="28" fill="none"/><path id="Trazado_2850" data-name="Trazado 2850" d="M23.66,27.79c0-3.79-5.9-6.06-10.14-6.06S3.37,24,3.37,27.79h0a1.91,1.91,0,0,1-1.85-1.95,2,2,0,0,1,.19-.78c2-3.78,7.57-5.6,11.81-5.6s10,2,11.81,5.6a1.87,1.87,0,0,1-.81,2.52,1.85,1.85,0,0,1-.86.21ZM20.18,17h-5a6.73,6.73,0,0,1-1.67.3,5.44,5.44,0,0,1-5.45-5.41v0h0v-.6h0c2.58-1.52,5.16-3,7.73-4.4h0a.74.74,0,0,1,.91.3v.15c.3,1.67.45,3.49.6,5.15h2.27c.3,0,.61-.15.61-.3V7.8a3.69,3.69,0,0,0-3.64-3.63,2.4,2.4,0,0,1-2.26-1.82,10.33,10.33,0,0,0-3,.15A8.53,8.53,0,0,0,7.77,4.32a14.26,14.26,0,0,0-3.18,7.42,10.75,10.75,0,0,1-.15,2.12,3.81,3.81,0,0,0,.3,1.82,3.56,3.56,0,0,0,.9,1.66c.16.15.3.46.61.61a6.85,6.85,0,0,0,.61.45A.58.58,0,0,0,7.59,18a.29.29,0,0,0,0-.09V15.83a6.93,6.93,0,0,0,5.76,3,7.43,7.43,0,0,0,4.69-1.67v.15c.15.61.15,1.06.61,1.37a1.38,1.38,0,0,0,1.51,0A20.58,20.58,0,0,0,22,17c.15-.3.3-.45.45-.75A13.72,13.72,0,0,1,20.18,17Zm-6.81-3.48a1,1,0,0,1,1.06,1v0a1.08,1.08,0,0,1-.93,1.2h-.13A1,1,0,0,1,12.31,15a.81.81,0,0,1,0-.22A1.16,1.16,0,0,1,13.37,13.56ZM24,10.07a2.46,2.46,0,0,1-.76,1.67v.45c0,2.27-2.12,3.18-3.33,3.33h-4.7a1.23,1.23,0,0,0,.15-.75,1.26,1.26,0,0,0-.15-.76h4.55s1.81-.3,1.81-1.82V7.65A5.1,5.1,0,0,0,16.49,2.5h-1A1.77,1.77,0,0,1,17.3,1.29a6.31,6.31,0,0,1,5.9,6.36v.76A2.39,2.39,0,0,1,24,10.07Z" fill="#09843B"/></g></g></svg>