<svg xmlns="http://www.w3.org/2000/svg" viewBox="0 0 15 15"><defs><style>.cls-1{fill:#0c6cb1;}.cls-2{fill:none;}</style></defs><g id="Capa_2" data-name="Capa 2"><g id="Capa_1-2" data-name="Capa 1"><path class="cls-1" d="M14.62,7.29a6.92,6.92,0,0,0-2.09-4.94,7,7,0,0,0-4.92-2H7.55a7.3,7.3,0,0,0-1,.09,6.91,6.91,0,0,0-3.92,2,7,7,0,0,0-2,4.93h0v0a7,7,0,0,0,2,4.84.15.15,0,0,0,0,.07,6.93,6.93,0,0,0,3,1.8h0a6.86,6.86,0,0,0,2,.3h0a7.05,7.05,0,0,0,7-7.06h0Zm-2.37,4.28a8.4,8.4,0,0,0-1.71-.82,13.46,13.46,0,0,0,.41-3h2.92A6.28,6.28,0,0,1,12.25,11.57Zm-7,1.66a6.68,6.68,0,0,1-.81-.39l-.27-.16a5,5,0,0,1-.66-.48l-.13-.12a8.15,8.15,0,0,1,1.38-.63,6.3,6.3,0,0,0,1,1.94c-.11,0-.23-.05-.34-.09Zm-4-5.52H4.18a13.46,13.46,0,0,0,.41,3,8.75,8.75,0,0,0-1.69.81A6.19,6.19,0,0,1,1.3,7.71ZM2.91,3.14A8.5,8.5,0,0,0,4.6,4a13.77,13.77,0,0,0-.41,3H1.3A6.2,6.2,0,0,1,2.91,3.14Zm1.46-1.2a6.41,6.41,0,0,1,1-.46l.08,0c.14-.05.28-.08.42-.12a6.71,6.71,0,0,0-1,1.93,7.85,7.85,0,0,1-1.38-.64A6.25,6.25,0,0,1,4.32,2ZM10.8,12.77h0a6.65,6.65,0,0,1-1,.48h0c-.14.05-.29.08-.43.12a6.3,6.3,0,0,0,1-1.94,7.66,7.66,0,0,1,1.4.64A6.49,6.49,0,0,1,10.8,12.77Zm-3.24.86c-.76,0-1.54-.89-2.06-2.4A8,8,0,0,1,7.56,11h0a8.39,8.39,0,0,1,2.07.26C9.12,12.73,8.33,13.63,7.56,13.63Zm0-3.41a8.81,8.81,0,0,0-2.28.3,12.8,12.8,0,0,1-.36-2.81h5.29a13,13,0,0,1-.36,2.82A8.48,8.48,0,0,0,7.56,10.22ZM4.92,7a13.25,13.25,0,0,1,.38-2.8,9.07,9.07,0,0,0,2.26.32h.05a8.77,8.77,0,0,0,2.24-.31A12,12,0,0,1,10.21,7ZM7.57,3.76h0a8.38,8.38,0,0,1-2.06-.27C6,2,6.82,1.06,7.56,1.06h0c.76,0,1.56.91,2.08,2.44A7.7,7.7,0,0,1,7.57,3.76ZM9.34,1.34a6.39,6.39,0,0,1,2.39,1.29,8.75,8.75,0,0,1-1.39.64A6.24,6.24,0,0,0,9.34,1.34ZM11,7a13.7,13.7,0,0,0-.4-3,8.44,8.44,0,0,0,1.71-.83A6.27,6.27,0,0,1,13.87,7Z"/><rect class="cls-2" width="15" height="15"/></g></g></svg>