<svg xmlns="http://www.w3.org/2000/svg" viewBox="0 0 16 16"><defs><style>.cls-1,.cls-2{fill:none;}.cls-1{stroke:#4d4d4d;stroke-linecap:round;stroke-linejoin:round;stroke-width:0.4px;}</style></defs><g id="Capa_2" data-name="Capa 2"><g id="Capa_1-2" data-name="Capa 1"><path class="cls-1" d="M14.14,7.56A5.68,5.68,0,1,1,8.46,1.89,5.68,5.68,0,0,1,14.14,7.56Z"/><path class="cls-1" d="M9.63,10.05a8.3,8.3,0,0,1,0-1,2,2,0,0,0,.53-1.16c.14,0,.35-.14.41-.66a.48.48,0,0,0-.18-.49c.22-.67.68-2.72-.85-2.93A1.18,1.18,0,0,0,8.44,3.4C6.35,3.44,6.09,5,6.55,6.75a.5.5,0,0,0-.18.49c.06.52.28.65.41.66a2,2,0,0,0,.55,1.16c0,.35,0,.61,0,1-.3.81-1.83.87-2.71,1.64a5.78,5.78,0,0,0,4,1.6,6.75,6.75,0,0,0,3.74-1.59C11.46,10.92,9.93,10.86,9.63,10.05Z"/><rect class="cls-2" width="16" height="16"/></g></g></svg>