<svg xmlns="http://www.w3.org/2000/svg" viewBox="0 0 15 15"><defs><style>.cls-1{fill:#0c6e78;}.cls-2{fill:none;}</style></defs><g id="Capa_2" data-name="Capa 2"><g id="Capa_1-2" data-name="Capa 1"><path class="cls-1" d="M13.66,1.29a.36.36,0,0,0-.36,0L7.4,4.22,1.5,1.27a.36.36,0,0,0-.36,0A.34.34,0,0,0,1,1.6V11a.38.38,0,0,0,.2.33l6.06,3a.53.53,0,0,0,.17,0,.42.42,0,0,0,.16,0l6.07-3a.38.38,0,0,0,.2-.33V1.6A.37.37,0,0,0,13.66,1.29ZM1.7,2.2,6.85,4.77v8.58L1.7,10.77Zm11.4,8.57L7.59,13.52V5L13.1,2.2ZM2.22.52A.36.36,0,0,1,2.71.36L7.4,2.73,12.08.36a.38.38,0,0,1,.5.16.37.37,0,0,1-.16.5L7.57,3.47a.38.38,0,0,1-.34,0L2.38,1A.37.37,0,0,1,2.22.52Z"/><rect class="cls-2" width="15" height="15"/></g></g></svg>