<svg xmlns="http://www.w3.org/2000/svg" viewBox="0 0 15 15"><defs><style>.cls-1{fill:#ed7432;}.cls-2{fill:none;}</style></defs><g id="Capa_2" data-name="Capa 2"><g id="Capa_1-2" data-name="Capa 1"><path class="cls-1" d="M14.32,4.53a4.3,4.3,0,0,0-1.09-2.14,4.26,4.26,0,0,0-6-.17C6.46,2.91,5.73,3.64,5,4.35l-.77.77-.07.07a.73.73,0,0,0-.15.35A.36.36,0,0,0,4.37,6a.37.37,0,0,0,.42-.31l.77-.78C6.25,4.16,7,3.44,7.71,2.75A3.53,3.53,0,0,1,13.6,4.68a3.51,3.51,0,0,1-1,3.26c-1,1-1.95,2-2.93,2.93L8.22,12.32l-.62.59-5-5a3.58,3.58,0,0,1,3-6.1.37.37,0,0,0,0-.74A4.32,4.32,0,0,0,2.08,8.42l5,5a.71.71,0,0,0,.51.28h0a.76.76,0,0,0,.55-.25l.59-.59,1.45-1.44c1-1,2-2,2.92-2.94A4.21,4.21,0,0,0,14.32,4.53Z"/><rect class="cls-2" width="15" height="15"/></g></g></svg>