<svg xmlns="http://www.w3.org/2000/svg" viewBox="0 0 16 16"><defs><style>.cls-1{fill:#4d4d4d;}.cls-2{fill:none;}</style></defs><g id="Capa_2" data-name="Capa 2"><g id="Capa_1-2" data-name="Capa 1"><path class="cls-1" d="M9.89,5.16a1.58,1.58,0,0,1,.49,1.24,1.6,1.6,0,0,1-.55,1.33,2.39,2.39,0,0,1-1.5.45v1H7.61V7.66H8A2.48,2.48,0,0,0,9.17,7.4a1.06,1.06,0,0,0,.46-1A1,1,0,0,0,8.56,5.34a1.12,1.12,0,0,0-.83.29,1,1,0,0,0-.32.77H6.68a1.67,1.67,0,0,1,.23-.89,1.61,1.61,0,0,1,.67-.59,2.26,2.26,0,0,1,1-.21A1.84,1.84,0,0,1,9.89,5.16ZM8.44,10v.89H7.52V10Z"/><rect class="cls-2" width="16" height="16"/></g></g></svg>